<svg width="68" height="68" viewBox="0 0 68 68" fill="none" xmlns="http://www.w3.org/2000/svg">
<g clip-path="url(#clip0_265_5487)">
<path d="M57.906 59.4994C57.906 59.7634 57.9676 60.0236 58.0853 60.2602L61.4857 67.0597C61.7733 67.6362 62.3622 67.9998 63.006 67.9998C63.6503 67.9998 64.2393 67.6362 64.5269 67.0597L67.9266 60.2602C68.0449 60.0236 68.1059 59.7634 68.1059 59.4994V17.0001H57.906V59.4994Z" fill="#9571F8"/>
<path d="M63.006 3.39978C60.1908 3.40289 57.9091 5.68455 57.906 8.49974V13.5997H68.1059V8.49974C68.1028 5.68455 65.8218 3.40289 63.006 3.39978Z" fill="#9571F8"/>
<path d="M49.4064 3.39977H42.6062V8.49974C42.6062 9.43855 41.8455 10.1999 40.9066 10.1999C39.9678 10.1999 39.2065 9.43855 39.2065 8.49974V1.7002C39.2065 0.761384 38.4451 0 37.5063 0C36.5674 0 35.8067 0.761384 35.8067 1.7002V3.39977H29.0065V8.49974C29.0065 9.43855 28.2451 10.1999 27.3063 10.1999C26.3675 10.1999 25.6068 9.43855 25.6068 8.49974V1.7002C25.6068 0.761384 24.8454 0 23.9066 0C22.9677 0 22.2064 0.761384 22.2064 1.7002V3.39977H15.4068V8.49974C15.4068 9.43855 14.6454 10.1999 13.7066 10.1999C12.7678 10.1999 12.0064 9.43855 12.0064 8.49974V1.7002C12.0064 0.761384 11.2457 0 10.3069 0C9.36805 0 8.60667 0.761384 8.60667 1.7002V3.39977H1.80651C1.35578 3.39977 0.923104 3.57844 0.604356 3.89781C0.285608 4.21656 0.106313 4.64924 0.106935 5.09997V66.2996C0.106313 66.7503 0.285608 67.183 0.604356 67.5017C0.923104 67.8211 1.35578 67.9998 1.80651 67.9998H49.4064C49.8571 67.9998 50.2898 67.8211 50.6085 67.5017C50.9279 67.183 51.1066 66.7503 51.1066 66.2996V5.09997C51.1066 4.64924 50.9279 4.21656 50.6085 3.89781C50.2898 3.57844 49.8571 3.39977 49.4064 3.39977ZM39.2065 54.3994H12.0064C11.0676 54.3994 10.3069 53.6387 10.3069 52.6999C10.3069 51.761 11.0676 50.9997 12.0064 50.9997H39.2065C40.1453 50.9997 40.9066 51.761 40.9066 52.6999C40.9066 53.6387 40.1453 54.3994 39.2065 54.3994ZM39.2065 44.1995H12.0064C11.0676 44.1995 10.3069 43.4387 10.3069 42.4999C10.3069 41.5611 11.0676 40.7997 12.0064 40.7997H39.2065C40.1453 40.7997 40.9066 41.5611 40.9066 42.4999C40.9066 43.4387 40.1453 44.1995 39.2065 44.1995ZM39.2065 33.9996H12.0064C11.0676 33.9996 10.3069 33.2388 10.3069 32.3C10.3069 31.3612 11.0676 30.5998 12.0064 30.5998H39.2065C40.1453 30.5998 40.9066 31.3612 40.9066 32.3C40.9066 33.2388 40.1453 33.9996 39.2065 33.9996ZM39.2065 23.7996H12.0064C11.0676 23.7996 10.3069 23.0389 10.3069 22.1001C10.3069 21.1612 11.0676 20.3999 12.0064 20.3999H39.2065C40.1453 20.3999 40.9066 21.1612 40.9066 22.1001C40.9066 23.0389 40.1453 23.7996 39.2065 23.7996Z" fill="#9571F8"/>
</g>
<defs>
<clipPath id="clip0_265_5487">
<rect width="68" height="68" fill="white"/>
</clipPath>
</defs>
</svg>
