<?xml version="1.0" encoding="UTF-8" standalone="no"?>
<svg
   viewBox="2.3 0.81 128 128"
   version="1.1"
   id="svg4"
   sodipodi:docname="google_play_store_img.svg"
   width="128"
   height="128"
   inkscape:version="1.2.2 (1:1.2.2+202212051552+b0a8486541)"
   xmlns:inkscape="http://www.inkscape.org/namespaces/inkscape"
   xmlns:sodipodi="http://sodipodi.sourceforge.net/DTD/sodipodi-0.dtd"
   xmlns="http://www.w3.org/2000/svg"
   xmlns:svg="http://www.w3.org/2000/svg">
  <defs
     id="defs8" />
  <sodipodi:namedview
     id="namedview6"
     pagecolor="#505050"
     bordercolor="#ffffff"
     borderopacity="1"
     inkscape:showpageshadow="0"
     inkscape:pageopacity="0"
     inkscape:pagecheckerboard="1"
     inkscape:deskcolor="#505050"
     showgrid="false"
     inkscape:zoom="3.3570196"
     inkscape:cx="-19.06453"
     inkscape:cy="30.830919"
     inkscape:window-width="1846"
     inkscape:window-height="1016"
     inkscape:window-x="74"
     inkscape:window-y="27"
     inkscape:window-maximized="1"
     inkscape:current-layer="svg4" />
  <rect
     style="fill:#6c57a8;fill-opacity:1;stroke-width:0.938672"
     id="rect323"
     width="128"
     height="128"
     x="2.238601"
     y="0.88190758" />
  <path
     d="m 90.519937,64.517589 c -1.0142,-0.579544 -2.06462,-1.050424 -3.11505,-1.44886 1.05043,-0.398436 2.10085,-0.869315 3.11505,-1.448859 6.95453,-4.020587 10.830233,-11.301108 10.866453,-18.798959 -6.483653,-3.730813 -14.742153,-4.020587 -21.732903,0 -1.014201,0.579545 -1.955961,1.267753 -2.825277,1.955961 0.181108,-1.122866 0.289772,-2.281953 0.289772,-3.441043 0,-8.041171 -4.3828,-15.03192 -10.86645,-18.798957 -6.483647,3.767037 -10.866448,10.757786 -10.866448,18.798957 0,1.15909 0.108659,2.318177 0.289772,3.441043 -0.869317,-0.72443 -1.811075,-1.412638 -2.825277,-1.992181 -6.954529,-4.020587 -15.21303,-3.730815 -21.7329,0 0,7.497849 3.875701,14.77837 10.86645,18.798957 1.014202,0.579544 2.064625,1.050423 3.115049,1.448859 -1.050424,0.398438 -2.100847,0.869316 -3.115049,1.448862 -6.954528,4.020586 -10.830228,11.301106 -10.86645,18.798959 6.483648,3.73081 14.742151,4.02058 21.7329,0 1.014202,-0.57955 1.95596,-1.26775 2.825277,-1.95596 -0.181108,1.15908 -0.289772,2.31817 -0.289772,3.47726 0,8.04117 4.382801,15.03192 10.866448,18.798962 6.48365,-3.767042 10.86645,-10.757792 10.86645,-18.798962 0,-1.15909 -0.108658,-2.31818 -0.289772,-3.44104 0.869316,0.72443 1.811076,1.37642 2.825277,1.95596 6.954528,4.02059 15.21303,3.73081 21.732903,0 -0.0362,-7.497851 -3.911923,-14.778373 -10.866453,-18.798959 z M 66.251532,77.55733 c -8.004951,0 -14.488598,-6.48365 -14.488598,-14.488601 0,-8.004951 6.483647,-14.488599 14.488598,-14.488599 8.004953,0 14.488601,6.483648 14.488601,14.488599 0,8.004951 -6.483648,14.488601 -14.488601,14.488601 z"
     fill="#d0bdff"
     id="path2"
     style="stroke-width:3.62216" />
</svg>
