<svg width="150" height="150" fill="none" xmlns="http://www.w3.org/2000/svg"><mask id="a" style="mask-type:alpha" maskUnits="userSpaceOnUse" x="0" y="0" width="150" height="150"><circle cx="75" cy="75" r="75" fill="#D9D9D9"/></mask><g mask="url(#a)" stroke="#87CDFF"><path d="M-61 97.421 80.421-44M-4.432 153.99 136.99 12.568M-32.716 125.706 108.706-15.716M23.853 182.274 165.274 40.853M-46.858 111.563 94.563-29.857M9.71 168.132 151.133 26.711M-18.574 139.848 122.848-1.574M37.995 196.416 179.416 54.995M-53.929 104.492 87.492-36.928M2.64 161.061 144.06 19.64M-25.645 132.777 115.777-8.645M30.924 189.345 172.345 47.924M-39.787 118.635 101.635-22.787M16.782 175.203 158.203 33.782M-11.503 146.919 129.92 5.497M45.066 203.487l141.421-141.42"/></g></svg>