<svg xmlns="http://www.w3.org/2000/svg" viewBox="0 0 256 256"><defs><style>.cls-1{fill:#f9e251;}.cls-2{fill:#211c1c;}.cls-3{fill:#e1404c;}</style></defs><title>care01</title><g id="care01"><path class="cls-1" d="M222.73,106.91c-4.69-13-6.68-22.8-13.76-33.68S191.28,55.51,180.71,48.3c-20-13.65-42.58-18.36-68.36-14-10,1.69-20.57.92-29.19,5.31C72.77,44.86,66.1,52.31,58.38,60.69c-9.09,9.87-18.65,21.17-23.06,33.93-5.13,14.87-5.7,32.12-2.91,48.72,1.12,6.7,5.66,15.38,9.16,23.53s6,15.77,11.41,22.22a98,98,0,0,0,19.59,17.65c6.11,4.16,13.9,5.62,20.83,8.31,15.78,6.13,32.16,10.24,50.07,7.23a97.49,97.49,0,0,0,24.8-7.64c9.64-4.46,16.91-12.07,24.44-19.18,13-12.33,24-26.46,28.68-44C224.9,138.44,227.31,119.62,222.73,106.91Z"/><path class="cls-2" d="M154.81,103.67c-2-8.57-14.86-19.4-20.51-18.11s-1.94,14.21,0,22.79a12.29,12.29,0,0,0,3,6.13c2.78,3.69,6.51,5.69,10,4.88,3-.68,6.11-3.7,7.28-7.21C155.64,109,155.73,107.72,154.81,103.67Z"/><path class="cls-2" d="M98.15,115.91C93,108.77,85.79,97.43,81.08,100.82S76,121,81.09,128.18c2.43,3.37,3.45,4.14,6.5,5.44,3.41,1.45,7.75,1.1,10.23-.68,2.94-2.12,3.91-6.24,3-10.77A12.23,12.23,0,0,0,98.15,115.91Z"/><path class="cls-2" d="M134.07,137.25c.1,2.81-2.95,3.9-5.28,3.4a17.23,17.23,0,0,1-5.68-2.92c-1.61-1.07-3.11,1.52-1.52,2.59,3,2,6.56,4.21,10.28,3.27a6.48,6.48,0,0,0,5.2-6.34C137,135.32,134,135.31,134.07,137.25Z"/><path class="cls-2" d="M141.84,65.51c1.51,1.21,3.42-1.11,1.9-2.31a26.51,26.51,0,0,0-28.12-3.3c-1.73.82-.66,3.63,1.09,2.79A23.52,23.52,0,0,1,141.84,65.51Z"/><path class="cls-2" d="M81.59,68.6A26.53,26.53,0,0,0,59.44,86.23c-.64,1.81,2.1,3,2.75,1.2A23.48,23.48,0,0,1,81.9,71.59,1.5,1.5,0,0,0,81.59,68.6Z"/><path class="cls-3" d="M149.55,158.33a16.5,16.5,0,0,0-6.78-5.87,23.29,23.29,0,0,0-33.66,21.85c-3.6-4.48-7.53-9-12.78-11.31s-12.2-1.84-15.84,2.6c-2.53,3.09-3,7.51-2,11.37a26.48,26.48,0,0,0,6,10.26A57.9,57.9,0,0,0,116,205.85l.57-.09c2.57-6.23,8-10.73,13.6-14.56a33.3,33.3,0,0,1-5.69-2.12,23.37,23.37,0,0,1-10.14-9.16c-2.12-3.74-.71-8.23,3.51-9.53,3.55-1.08,10.11,3.42,12.31,6.4-1-1.52-2.2-5.62,0-6.94,3.41-2.06,6,5.06,7.9,6.74a15.23,15.23,0,0,0,5.25,2.7l1.78.63c.64-.68,1.27-1.39,1.85-2.14C151.26,172.28,153.2,164.26,149.55,158.33Z"/></g></svg>