<svg id="visual" viewBox="0 0 900 600" width="900" height="600" xmlns="http://www.w3.org/2000/svg" xmlns:xlink="http://www.w3.org/1999/xlink" version="1.1"><path d="M0 103L82 115L164 91L245 85L327 103L409 67L491 67L573 67L655 103L736 121L818 49L900 43L900 0L818 0L736 0L655 0L573 0L491 0L409 0L327 0L245 0L164 0L82 0L0 0Z" fill="#00cc8e"></path><path d="M0 181L82 181L164 145L245 139L327 139L409 139L491 145L573 109L655 139L736 199L818 127L900 115L900 41L818 47L736 119L655 101L573 65L491 65L409 65L327 101L245 83L164 89L82 113L0 101Z" fill="#00b98a"></path><path d="M0 313L82 331L164 385L245 343L327 277L409 277L491 367L573 271L655 283L736 427L818 397L900 205L900 113L818 125L736 197L655 137L573 107L491 143L409 137L327 137L245 137L164 143L82 179L0 179Z" fill="#00a784"></path><path d="M0 547L82 451L164 505L245 541L327 499L409 547L491 463L573 481L655 541L736 535L818 523L900 475L900 203L818 395L736 425L655 281L573 269L491 365L409 275L327 275L245 341L164 383L82 329L0 311Z" fill="#00957c"></path><path d="M0 601L82 601L164 601L245 601L327 601L409 601L491 601L573 601L655 601L736 601L818 601L900 601L900 473L818 521L736 533L655 539L573 479L491 461L409 545L327 497L245 539L164 503L82 449L0 545Z" fill="#038373"></path></svg>