<svg xmlns="http://www.w3.org/2000/svg" viewBox="0 0 256 256"><defs><style>.cls-1{fill:#f9e251;}.cls-2{fill:#211c1c;}.cls-3{fill:#e1404c;}</style></defs><title>care02</title><g id="care02"><path class="cls-1" d="M220.71,103.3a97.36,97.36,0,0,0-9.94-24c-5.35-9.18-13.61-15.7-21.4-22.53-13.5-11.82-28.6-21.38-46.45-24.41-13.34-2.27-32.3-2.9-44.53,2.87C85.9,41.14,76.32,44.05,66.16,52.12S50.18,71.4,44,82.6C32.3,103.82,29.73,126.73,36.46,152c2.63,9.84,2.85,20.39,8,28.56,6.25,9.84,14.3,15.78,23.37,22.68,10.67,8.12,22.82,16.57,36,19.76,15.28,3.71,32.51,2.65,48.78-1.69,6.56-1.75,14.77-7.08,22.55-11.33s15.14-7.42,21.05-13.46a97.86,97.86,0,0,0,15.73-21.17c3.57-6.47,4.28-14.36,6.31-21.52C222.85,137.53,225.39,120.84,220.71,103.3Z"/><path class="cls-2" d="M112.67,97.05c-4.06.93-1.38,10.2,0,16.36a8.87,8.87,0,0,0,2.12,4.4c2,2.65,4.68,4.09,7.21,3.51a8.09,8.09,0,0,0,5.23-5.18c.75-2.26.82-3.18.15-6.09C126,103.9,116.74,96.12,112.67,97.05Z"/><path class="cls-2" d="M86.73,118.84C83,113.71,77.85,105.57,74.47,108s-3.68,14.52,0,19.64c1.74,2.43,2.47,3,4.67,3.91a8,8,0,0,0,7.34-.49c2.11-1.52,2.81-4.47,2.14-7.73A8.86,8.86,0,0,0,86.73,118.84Z"/><path class="cls-2" d="M106.49,133.25a54.47,54.47,0,0,0-7-1.5c-1.57-.22-3.7-.31-4.76,1.13-1.26,1.72.23,3.34,1.06,4.86,1.69,3.15,5.36,4.6,8.81,4.39,2.92-.19,7.58-2.38,6-6.07C109.9,134.4,108.09,133.7,106.49,133.25Zm1.8,4.47c-.55,1.87-3.91,2.05-5.42,1.85a6.36,6.36,0,0,1-5-3.27.43.43,0,0,1,0-.07l-.07-.1c-.28-.42-.94-1.26-.9-1.53.11-.66,1.13-.48,1.62-.45a29.75,29.75,0,0,1,3.48.59C103.17,135,108.91,135.66,108.29,137.72Z"/><path class="cls-2" d="M131.55,78.64a26.54,26.54,0,0,0-28.24-2c-1.69.9-.5,3.66,1.21,2.75A23.52,23.52,0,0,1,129.75,81C131.32,82.18,133.12,79.78,131.55,78.64Z"/><path class="cls-2" d="M69.7,86.8a26.54,26.54,0,0,0-21.35,18.59c-.56,1.84,2.24,2.94,2.8,1.08a23.49,23.49,0,0,1,19-16.7A1.5,1.5,0,0,0,69.7,86.8Z"/><path class="cls-3" d="M112.85,158.62a23.29,23.29,0,0,0-40.12.81c-.7-5.71-1.66-11.61-4.9-16.36s-9.39-8-14.83-6.13c-3.77,1.29-6.5,4.79-7.67,8.61A26.7,26.7,0,0,0,45,157.42a57.94,57.94,0,0,0,17,32.46l.54.22c5.47-3.94,12.48-4.88,19.23-5.19A33.86,33.86,0,0,1,78,180.1,23.23,23.23,0,0,1,74.25,167c.17-4.29,3.73-7.36,8-6.24,3.58.94,6.78,8.23,7.09,11.92,0-1.8,1.08-5.93,3.65-5.9,4,.06,2.46,7.49,3.15,9.9a15.22,15.22,0,0,0,3,5.06l1.17,1.48q1.36-.36,2.7-.84c6.53-2.42,12.42-8.22,12.45-15.18A16.38,16.38,0,0,0,112.85,158.62Z"/></g></svg>