<svg xmlns="http://www.w3.org/2000/svg" viewBox="0 0 256 256"><defs><style>.cls-1{fill:#e8734f;}.cls-2{fill:#211c1c;}.cls-3{fill:#b15742;}.cls-4{fill:#fffcac;}</style></defs><title>angry03</title><g id="angry03"><path class="cls-1" d="M213.33,83.43c-3.1-6.05-10.05-12.94-15.85-19.65S187,50.55,179.87,46.06a97.58,97.58,0,0,0-24-10.89c-7.08-2.12-14.95-1.15-22.37-1.62-16.89-1.06-33.75,0-49.9,8.27a96.69,96.69,0,0,0-21.32,14.8C54.42,63.78,49.79,73.24,44.77,82.3c-8.69,15.69-14.84,32.47-14,50.56.6,13.53,4,32.19,12.22,42.92,8.4,10.95,13.27,19.71,23.31,27.93s22.23,11.53,34.48,15.2c23.22,7,46.15,4.61,69.41-7.32,9.06-4.65,19.33-7.1,26.21-13.89,8.3-8.19,12.4-17.32,17.22-27.64,5.68-12.15,11.37-25.82,11.7-39.32C225.69,115,221,98.4,213.33,83.43Z"/><path class="cls-2" d="M107.35,140.33c1.37-.44,2.71-1.08,4.09-1.48a4,4,0,0,0,2.91-4.61l-.06-.24a1.48,1.48,0,0,0-.13-.35A39.16,39.16,0,0,0,106,122.9a1.56,1.56,0,0,0-.2-.16c-2.65-1.87-5.56-3.47-8.32-5a109.49,109.49,0,0,0-19.09-8.61,1.49,1.49,0,0,0-1.93,1.64A70.08,70.08,0,0,0,78.17,119a22.3,22.3,0,0,0,1.25,4.68,25.79,25.79,0,0,0,3.38,5.72,31.45,31.45,0,0,0,10.65,9.42A18.62,18.62,0,0,0,107.35,140.33Z"/><path class="cls-2" d="M191.57,104.17a71.18,71.18,0,0,0-.64-8.45,1.5,1.5,0,0,0-2.31-1.06,109.23,109.23,0,0,0-16,13.48c-2.23,2.27-4.59,4.6-6.63,7.12a1.37,1.37,0,0,0-.15.21,39.5,39.5,0,0,0-4.9,12.56,2.31,2.31,0,0,0,0,.37c0,.09,0,.17,0,.25a4,4,0,0,0,4.06,3.64c1.43,0,2.89.26,4.33.31a18.62,18.62,0,0,0,13-5.2,31.42,31.42,0,0,0,7.68-12,25.56,25.56,0,0,0,1.69-6.42A21.76,21.76,0,0,0,191.57,104.17Z"/><path class="cls-2" d="M168.25,146.91c-3.67-2-7.85-1.17-11.59.17-7.12,2.54-13.72,6.73-20.85,9.25a33.8,33.8,0,0,1-9.37,1.95l.76,5.5a6.26,6.26,0,1,1-12.41,1.72L113.34,155c-3.88-2.07-9.6.86-11.43,5.22-2,4.9-.23,11.05,2.13,16a66.64,66.64,0,0,0,14.59,20.22c3,2.8,6.53,5.34,10.23,5.13,2.58-.14,4.9-1.6,7.21-2.86a50.71,50.71,0,0,1,16.13-5.53c4.22-.69,8.54-.83,12.66-2s8.17-3.53,10.51-7.69c3.1-5.51,2.66-13,1.52-19.71S173.45,149.75,168.25,146.91Z"/><path class="cls-2" d="M137.77,203.82c-4.24,1.26-6.78,4.22-11.67,3.33-4.29-.78-7.71-3.69-10.78-6.59-1.27-1.21-3,.92-1.69,2.12,3.41,3.23,7.28,6.31,12,7.15,5.46,1,8.23-2,13.1-3.49C140.44,205.84,139.43,203.32,137.77,203.82Z"/><path class="cls-3" d="M82.55,78.5c5.69.73,11.21-3.79,15.82-6.5,2-1.16-.07-4.09-2-2.93-4.47,2.62-9.66,7.12-15.08,5.37C77,73.07,73.33,68.56,70.1,65.66c-1.72-1.53-4,1.19-2.32,2.72C72,72.14,76.61,77.74,82.55,78.5Z"/><path class="cls-3" d="M78,88.2c-6.14,0-12.26,5.56-16.55,9.36-1.7,1.5.32,4.45,2,2.93,3.21-2.85,7.11-6.43,11.23-7.81C80.61,90.69,85,96,89,99.46a1.79,1.79,0,0,0,2.32-2.72C87.64,93.55,83.32,88.19,78,88.2Z"/><path class="cls-3" d="M99.72,73.35C95.29,76,88.17,78.62,86.87,84.29s5,9.65,8.61,12.92c1.7,1.55,4-1.18,2.31-2.72-3-2.69-10.07-7.11-6.16-11.67,2.44-2.87,6.93-4.65,10.14-6.54C103.75,75.12,101.7,72.19,99.72,73.35Z"/><path class="cls-3" d="M72.93,82.29c.42-4.94-4.66-9.93-8.15-12.69-1.8-1.42-4.13,1.29-2.32,2.72,2.65,2.1,8.64,7.37,6.13,11.34-1.93,3-6.67,5.49-9.5,7.69-1.8,1.41.23,4.35,2,2.93C64.76,91.46,72.47,87.62,72.93,82.29Z"/><path class="cls-4" d="M106.77,120.63s-.3-2.75.64-4.12-.61-2.27-2-1a11,11,0,0,0-2.65,4.19c-.22.79-1.29-2.11-.94-3.51s1.46-8.08-1.79-5-7,14-7.1,17.27c-1,2.75.48,10,9.15,8.29s9.08-8.37,7-11.16S106.81,121.78,106.77,120.63Z"/><path class="cls-4" d="M181.93,115.42c-2.05-2.79-2.28-3.73-2.32-4.89,0,0-.3-2.75.64-4.12s-.61-2.27-2-1a10.72,10.72,0,0,0-2.65,4.19c-.23.78-1.29-2.11-.94-3.52s1.46-8.08-1.79-5-7,14-7.11,17.28c-1,2.74.49,10,9.16,8.28S184,118.21,181.93,115.42Z"/></g></svg>