<svg xmlns="http://www.w3.org/2000/svg" viewBox="0 0 256 256"><defs><style>.cls-1{fill:#717d8b;}.cls-2{fill:#56616d;}.cls-3{fill:#fff;}.cls-4{fill:#211c1c;}</style></defs><title>sorrow02</title><g id="sorrow02"><path class="cls-1" d="M224.39,110.64c-2-11.48-7.2-20-12.95-29.87-6.78-11.58-14.79-24-25.71-32C173,39.55,156.68,34,140,31.77c-6.73-.88-16.36.92-25.17,1.88S98,34.74,90.23,38.07A97.65,97.65,0,0,0,67.62,51.65c-5.77,4.62-9.44,11.64-14,17.49C43.1,82.43,34.39,96.9,32,114.9a97.13,97.13,0,0,0,.06,25.95c1.44,10.53,6.6,19.7,11.2,29,8,16.07,18.29,30.67,33.63,40.27,11.48,7.19,28.77,15,42.27,14.33,13.78-.69,23.76.28,36.23-3.31s22.12-11.74,32.1-19.74c18.9-15.15,30-35.35,33.41-61.27C222.25,130,226.07,120.17,224.39,110.64Z"/><path class="cls-2" d="M139.3,123.78c-.4-1.6-2.16-3.49-3.5-5.31s-2.27-3.57-4.41-4.86a31.36,31.36,0,0,0-7.69-3.23c-2.41-.67-5.51-.57-8.25-.83a57,57,0,0,0-19.91,1.17,65.42,65.42,0,0,0-9.93,3.38c-3.87,1.68-6.82,4-9.86,6.23C70.47,124.17,66,128.34,64,133c-1.48,3.46-2.56,8.29-.82,11.19s2.52,5.28,5.27,7.56,6.94,3.37,11.11,4.53c7.89,2.21,16.85,2.05,27.15-.56,4-1,8.21-1.45,11.67-3.06a44.79,44.79,0,0,0,10-6.73c3.68-3,7.57-6.38,9.4-9.82A17,17,0,0,0,139.3,123.78Z"/><path class="cls-3" d="M157.08,136.2a1.1,1.1,0,0,0-2.13.07A92.9,92.9,0,0,1,146,160.6c-8,14.68,1.25,30.85,11.92,20.58C166.38,173,160.06,146.72,157.08,136.2Z"/><path class="cls-4" d="M152.63,127c-9.76,4.77-22.77-2.44-31-7.9-1.59-1.07-3.5,1.25-1.89,2.33a90.75,90.75,0,0,0,9.19,5.43c-4.51,4.18-6.45,13-3.83,18.13a9.63,9.63,0,0,0,4,3.87q5.15-2.92,10.51-5.6c1.9-1,3.82-2,5.73-3,0-.61.07-1.23.06-1.84a18.25,18.25,0,0,0-1.44-6.93,18.89,18.89,0,0,0,9.74-1.73C155.41,129,154.37,126.17,152.63,127Z"/><path class="cls-4" d="M76.85,140.94a90.18,90.18,0,0,0,6.07-8.78c1-1.65-1.69-3-2.69-1.33-5.15,8.39-13.93,20.39-24.8,20.15-1.93,0-1.7,3,.21,3a18.79,18.79,0,0,0,9.57-2.52,18.27,18.27,0,0,0,1.6,6.9c.25.56.53,1.11.83,1.65,2.14.08,4.28.16,6.44.29q6,.17,11.89.67a9.59,9.59,0,0,0,2-5.16C88.15,150,82.7,142.84,76.85,140.94Z"/><path class="cls-4" d="M133.68,160.47a2.51,2.51,0,0,0-3.5.94,22.5,22.5,0,0,0-2.27,5.86c-.68-.33-1.36-.68-2-1-2.94-1.51-6-3.07-9.57-3.54a22.44,22.44,0,0,0-25.39,20.95,2.64,2.64,0,0,0,2.48,2.84,2.5,2.5,0,0,0,1-.11,2.21,2.21,0,0,0,1.47-2c.6-7.35,4.92-13.39,11.27-15.77,6.55-2.49,11.47-.16,17.17,2.5l3,1.38A23.12,23.12,0,0,0,130,182.84a2.24,2.24,0,0,0,3.06,1,2.65,2.65,0,0,0,1.2-3.58,17.2,17.2,0,0,1,.4-16.52A2.31,2.31,0,0,0,133.68,160.47Z"/></g></svg>