<svg xmlns="http://www.w3.org/2000/svg" viewBox="0 0 256 256"><defs><style>.cls-1{fill:#d2dac9;}.cls-2{fill:#211c1c;}</style></defs><title>bored01</title><g id="bored01"><path class="cls-1" d="M223.24,104.61a97.91,97.91,0,0,0-9.76-24.5c-3.64-6.44-10-11.19-15-16.67C187,51,174.17,40,156.78,34.8a97,97,0,0,0-25.62-4.12c-10.62-.27-20.51,3.34-30.41,6.38C83.61,42.34,67.54,50.18,55.59,63.77c-8.94,10.17-19.43,26-20.94,39.41-1.55,13.72-4.11,23.4-2.57,36.29s8,23.72,14.31,34.86c11.91,21.1,30.05,35.31,55.09,42.84,9.75,2.94,18.85,8.29,28.52,8.17,11.66-.15,20.94-3.88,31.57-8,12.52-4.82,26.09-10.73,35.69-20.22,11.18-11.06,19.33-26.28,24.18-42.4,1.95-6.51,1.73-16.29,2.2-25.15S225.27,112.81,223.24,104.61Z"/><path class="cls-2" d="M100.12,159.6c-2.56,1.37-.29,5.26,2.27,3.89,17.81-9.51,42.41-.79,50,18,1.07,2.66,5.43,1.5,4.34-1.19C148,158.77,120.7,148.61,100.12,159.6Z"/><path class="cls-2" d="M164.67,101a6.24,6.24,0,0,1,7.27,4.4c.52,1.86,3.39,1,2.87-.86a9.3,9.3,0,0,0-11-6.42C161.93,98.6,162.8,101.47,164.67,101Z"/><path class="cls-2" d="M83,102.62a23,23,0,0,1,8.42-.82c1.93.16,1.84-2.85-.07-3a25.14,25.14,0,0,0-9.21,1A1.5,1.5,0,0,0,83,102.62Z"/><path class="cls-2" d="M101.61,126a5.83,5.83,0,0,0-1.84-4.25,8.65,8.65,0,0,0-3.43-2.28,14,14,0,0,0-10.66.16,12.61,12.61,0,0,0-7,8,3.42,3.42,0,0,0,0,2.38c1,2.17,4.85-.19,6.17-.91a15.94,15.94,0,0,1,5.13-2.2,5.83,5.83,0,0,0,11.6-.87Z"/><path class="cls-2" d="M175.66,121.75a8.58,8.58,0,0,0-3.43-2.28,14,14,0,0,0-10.65.16,12.65,12.65,0,0,0-7,8,3.42,3.42,0,0,0,0,2.38c1,2.17,4.86-.19,6.17-.91a15.9,15.9,0,0,1,5.14-2.2,5.83,5.83,0,1,0,9.75-5.12Z"/></g></svg>