<svg xmlns="http://www.w3.org/2000/svg" viewBox="0 0 256 256"><defs><style>.cls-1{fill:#f9e251;}.cls-2{fill:#211c1c;}</style></defs><title>happy01</title><g id="happy01"><path class="cls-1" d="M223.15,111.78c-1.82-10.46-7.3-19.45-12.23-28.56-8.54-15.78-19.37-30-35-39-11.72-6.77-29.28-14-42.75-12.81-13.75,1.18-23.75.57-36.08,4.6S75.35,48.48,65.66,56.83c-18.35,15.82-28.73,36.4-31.21,62.42-1,10.15-4.42,20.11-2.41,29.58,2.43,11.4,7.91,19.77,14,29.39,7.18,11.33,15.63,23.48,26.83,31,13,8.8,29.56,13.8,46.31,15.39,6.76.64,16.32-1.5,25.09-2.78s16.78-1.68,24.42-5.29a98.09,98.09,0,0,0,22.11-14.37c5.6-4.83,9-12,13.41-18,10-13.67,18.19-28.43,19.9-46.51A97.29,97.29,0,0,0,223.15,111.78Z"/><path class="cls-2" d="M167.55,134.5a2.13,2.13,0,0,0-2.61,1.47c-2.38,10.58-11.51,17.09-16.74,20a38.39,38.39,0,0,1-22.47,4.93c-14.66-1.54-27.3-13-32.2-29.31a2,2,0,0,0-2.59-1.17,1.9,1.9,0,0,0-1.42,2.4c5.32,17.67,19.63,30.32,35.87,31.86l1.25.1a43,43,0,0,0,24.43-6.08c5.59-3.29,15.35-10.53,17.93-22A1.81,1.81,0,0,0,167.55,134.5Z"/><path class="cls-2" d="M176,113.25c-.48,5-3.53,8.78-6.83,8.47s-5.57-4.61-5.1-9.6c.23-2.36.46-4.35,1.59-5.87a6.44,6.44,0,0,1,5.23-2.61c2.06.2,3.72,2,4.56,4.45A12.47,12.47,0,0,1,176,113.25Z"/><path class="cls-2" d="M98.18,106.08c-.48,5-3.53,8.79-6.83,8.48s-5.57-4.62-5.1-9.61c.23-2.36.46-4.35,1.59-5.86a6.39,6.39,0,0,1,5.23-2.61c2.06.2,3.72,1.94,4.56,4.44A12.51,12.51,0,0,1,98.18,106.08Z"/></g></svg>