<svg xmlns="http://www.w3.org/2000/svg" viewBox="0 0 256 256"><defs><style>.cls-1{fill:#f9e251;}.cls-2{fill:#211c1c;}</style></defs><title>amused03</title><g id="amused03"><path class="cls-1" d="M224,122.18c-.45-7.38-4.06-14.43-6.18-21.56-4.8-16.23-11.58-31.7-24.92-44a97.49,97.49,0,0,0-21.22-14.93c-9.43-4.9-19.9-6-30.13-7.59-17.73-2.77-35.6-2.77-52.3,4.21-12.49,5.23-28.85,14.83-36.1,26.24C45.76,76.18,39.21,83.77,35,96s-3.19,24.84-2.42,37.61c1.46,24.19,11.53,44.91,30.73,62.66,7.49,6.91,13.32,15.7,22.06,19.83,10.55,5,20.53,5.7,31.88,6.67,13.36,1.15,28.15,1.8,40.94-2.53,14.9-5,28.89-15.15,40.32-27.51,4.6-5,8.69-13.89,13-21.64s8.83-14.37,10.59-22.63A97.74,97.74,0,0,0,224,122.18Z"/><path class="cls-2" d="M171.52,117.9c-12.49,4.41-24.44,4.4-34.91.3l-.69-.29-.64,1.86a7.6,7.6,0,0,1-14.38-5l1.82-5.28c-.42-.38-.85-.75-1.26-1.15-1.72-1.65-10.27-14.92-11.71-9.32a7.9,7.9,0,0,0-.16.79,12.75,12.75,0,0,0,0,3.39c1.15,10.84,2.83,21.37,6.19,29.87s8.53,14.86,15.42,16.23c12.38,2.46,27.87-11.25,41-27.2a6,6,0,0,0,1.54-3C173.88,117.49,172.55,117.53,171.52,117.9Z"/><path class="cls-2" d="M130.4,85.79c-4.38-8.85-12.06-18-22.21-20.3-2.58-.58-3.68,3.38-1.09,4,6.28,1.42,11.4,5.83,15.26,11-9.84-5.3-21.17-8.28-32-9.46-2.62-.29-2.6,3.82,0,4.11,13,1.41,26.59,5.68,37.25,13.47C129.4,89.92,131.22,87.45,130.4,85.79Z"/><path class="cls-2" d="M203.6,111.59a88.66,88.66,0,0,0-30-14.55c6.35-1.24,13.11-1.05,18.71,2.12,2.3,1.3,4.16-2.37,1.86-3.67-9.06-5.13-20.9-3.53-30.09.07-1.72.68-2,3.74.18,4,13.14,1.41,26.07,7.4,36.63,15.1C203,116.17,205.74,113.14,203.6,111.59Z"/></g></svg>