<svg width="20" height="20" viewBox="0 0 20 20" fill="none" xmlns="http://www.w3.org/2000/svg">
<path d="M9.17144 20C11.311 20 13.4507 19.2799 15.194 17.9397C17.5317 16.1794 18.9582 13.399 19.077 10.4186C19.2751 6.81801 17.3336 3.31748 14.2827 1.4572C12.5393 0.417038 10.5978 -0.10304 8.5573 0.0169778C8.04221 0.0169778 7.52712 0.437041 7.42806 0.837102C7.22995 1.35718 7.329 1.87726 7.72523 2.27732C9.34974 3.91757 9.96389 6.19791 9.56766 8.45825C8.85446 11.7588 5.78373 14.0191 2.41584 13.7191C1.90075 13.7191 1.38566 13.9191 1.08849 14.4392C0.791321 14.8592 0.890377 15.4793 1.18754 15.8794C2.61395 17.8397 4.75355 19.2799 7.11108 19.8C7.74504 19.9 8.45824 20 9.17144 20ZM10.1818 2.1773C11.212 2.27732 12.2224 2.69738 13.2525 3.31748C15.7091 4.75769 17.1355 7.53811 17.0365 10.3185C16.9374 12.6789 15.8082 14.8592 13.9657 16.2994C12.1233 17.7397 9.78559 18.2597 7.52712 17.7397C6.10071 17.4396 4.87242 16.8195 3.86205 15.7794C7.52711 15.4793 10.6969 12.6789 11.6082 8.87832C12.0242 6.59797 11.5092 4.1376 10.1818 2.1773Z" fill="#9571F8"/>
</svg>
