<svg width="24" height="24" viewBox="0 0 24 24" fill="none" xmlns="http://www.w3.org/2000/svg">
<circle cx="12" cy="12" r="4" stroke="#9571F8" stroke-width="2"/>
<rect x="11" y="1" width="2" height="4" rx="1" fill="#9571F8"/>
<rect x="11" y="19" width="2" height="4" rx="1" fill="#9571F8"/>
<rect x="1" y="13" width="2" height="4" rx="1" transform="rotate(-90 1 13)" fill="#9571F8"/>
<rect x="19" y="13" width="2" height="4" rx="1" transform="rotate(-90 19 13)" fill="#9571F8"/>
<rect x="3.51471" y="4.92892" width="2" height="4" rx="1" transform="rotate(-45 3.51471 4.92892)" fill="#9571F8"/>
<rect x="16.2426" y="17.6569" width="2" height="4" rx="1" transform="rotate(-45 16.2426 17.6569)" fill="#9571F8"/>
<rect x="19.071" y="3.51474" width="2" height="4" rx="1" transform="rotate(45 19.071 3.51474)" fill="#9571F8"/>
<rect x="6.34305" y="16.2427" width="2" height="4" rx="1" transform="rotate(45 6.34305 16.2427)" fill="#9571F8"/>
</svg>
