<svg width="12" height="20" viewBox="0 0 12 20" fill="none" xmlns="http://www.w3.org/2000/svg">
<path d="M3.70491 11.2398C3.62955 11.2398 2.04867 11.2403 1.31955 11.2396C0.944189 11.2393 0.810269 11.1045 0.810269 10.7267C0.809789 9.75639 0.809549 8.78607 0.810269 7.81575C0.810509 7.44279 0.952109 7.30047 1.32267 7.30023C2.05179 7.29975 3.62403 7.29999 3.70491 7.29999C3.70491 7.23351 3.70467 5.83263 3.70491 5.18751C3.70539 4.23375 3.87555 3.32079 4.36011 2.48487C4.85619 1.62927 5.57811 1.04319 6.50331 0.704309C7.09587 0.487109 7.71099 0.400469 8.33979 0.399989C9.12651 0.399509 9.91323 0.400229 10.7002 0.401669C11.0383 0.402149 11.1883 0.551669 11.1891 0.892229C11.1905 1.80495 11.1905 2.71767 11.1891 3.63015C11.1886 3.97431 11.0448 4.11255 10.699 4.11639C10.0541 4.12335 9.40875 4.11903 8.76459 4.14495C8.11395 4.14495 7.77171 4.46271 7.77171 5.13615C7.75611 5.84847 7.76523 6.56151 7.76523 7.29975C7.82619 7.29975 9.67779 7.29951 10.5432 7.29975C10.9363 7.29975 11.0707 7.43487 11.0707 7.83015C11.0707 8.79519 11.0705 9.76047 11.0698 10.7255C11.0695 11.115 10.9433 11.2393 10.5478 11.2396C9.68235 11.2401 7.83795 11.2398 7.75731 11.2398V19.0506C7.75731 19.467 7.62627 19.5997 7.21539 19.5997C6.21363 19.5997 5.21163 19.6 4.20987 19.5997C3.84675 19.5997 3.70515 19.4586 3.70515 19.0955C3.70491 16.5518 3.70491 11.3291 3.70491 11.2398Z" fill="white"/>
</svg>
