<svg width="24" height="24" viewBox="0 0 24 24" fill="none" xmlns="http://www.w3.org/2000/svg">
<g clip-path="url(#clip0_16_2066)">
<path d="M17.9998 0H6.0001C2.70047 0 0.000244141 2.70023 0.000244141 5.99985V18.0001C0.000244141 21.2989 2.70047 24 6.0001 24H17.9998C21.2994 24 23.9997 21.2989 23.9997 18.0001V5.99985C23.9997 2.70023 21.2994 0 17.9998 0ZM21.9996 18.0001C21.9996 20.2051 20.206 22 17.9998 22H6.0001C3.79486 22 2.00029 20.2051 2.00029 18.0001V5.99985C2.00029 3.79432 3.79486 2.00005 6.0001 2.00005H17.9998C20.206 2.00005 21.9996 3.79432 21.9996 5.99985V18.0001Z" fill="white"/>
<path d="M18.5009 6.99974C19.3293 6.99974 20.0009 6.32819 20.0009 5.49978C20.0009 4.67137 19.3293 3.99982 18.5009 3.99982C17.6725 3.99982 17.001 4.67137 17.001 5.49978C17.001 6.32819 17.6725 6.99974 18.5009 6.99974Z" fill="white"/>
<path d="M12.0001 5.99985C8.68576 5.99985 6.00024 8.68566 6.00024 11.9997C6.00024 15.3125 8.68576 18.0001 12.0001 18.0001C15.3135 18.0001 18 15.3125 18 11.9997C18 8.68566 15.3135 5.99985 12.0001 5.99985ZM12.0001 16.0001C9.79123 16.0001 8.00029 14.2092 8.00029 11.9997C8.00029 9.79024 9.79123 7.9999 12.0001 7.9999C14.209 7.9999 15.9999 9.79024 15.9999 11.9997C15.9999 14.2092 14.209 16.0001 12.0001 16.0001Z" fill="white"/>
</g>
<defs>
<clipPath id="clip0_16_2066">
<rect width="24" height="24" fill="white"/>
</clipPath>
</defs>
</svg>
