<svg xmlns="http://www.w3.org/2000/svg" viewBox="0 0 256 256"><defs><style>.cls-3{fill:#0d4261}.cls-4{fill:#fdfc0c}</style></defs><g id="smiling_sun"><path style="fill:#f9aa19" d="m203.12 118.74 43.22 11.66-43.22 10.29 32.93 32.93-39.11-4.8 17.84 39.1-33.66-18.52v39.79l-23.28-24.7-12.35 42.53-13.03-44.59-24.7 44.59-3.43-47.33-36.36 27.44 14.41-41.16-42.53 17.15 24.01-34.3-43.91-4.12 36.36-23.32-46.65-13.72 48.71-8.92-42.53-34.99 43.9 9.61-21.26-41.85 41.84 17.84-9.6-45.97 33.61 34.99 3.43-44.59L128 59.74l25.72-50.76v54.88l34.31-34.3-11.67 43.9L218.9 57l-26.07 34.98 46.65-2.05-36.36 28.81z"/><circle cx="128" cy="128" r="59.99" style="fill:#ffc90f"/><circle class="cls-3" cx="110.26" cy="113.3" r="7.06"/><circle class="cls-3" cx="144.44" cy="113.3" r="7.06"/><circle class="cls-4" cx="90.3" cy="134.01" r="14.29"/><circle class="cls-4" cx="163.86" cy="134.01" r="14.29"/><path d="M110.26 134h32.08s-.74 15.64-16 15.6c-13.29-.03-16.08-15.6-16.08-15.6z" style="fill:#ff6e2f"/></g></svg>