<svg xmlns="http://www.w3.org/2000/svg" xmlns:xlink="http://www.w3.org/1999/xlink" viewBox="0 0 512 512"><defs><linearGradient id="b" x1="256.49" y1="321.762" x2="256.49" y2="179.141" gradientUnits="userSpaceOnUse"><stop offset=".03" stop-color="#627eb2"/><stop offset=".669" stop-color="#83afcb"/><stop offset="1" stop-color="#90c3d5"/></linearGradient><linearGradient id="c" x1="256.491" y1="324.064" x2="256.491" y2="188.478" gradientUnits="userSpaceOnUse"><stop offset=".001" stop-color="#ff596c"/><stop offset=".386" stop-color="#ff7b71"/><stop offset="1" stop-color="#ffb97b"/></linearGradient><linearGradient id="d" x1="256.49" y1="371.204" x2="256.49" y2="253.063" gradientUnits="userSpaceOnUse"><stop offset="0" stop-color="#ff8b6c"/><stop offset=".273" stop-color="#ffa371"/><stop offset=".748" stop-color="#ffc878"/><stop offset="1" stop-color="#ffd67b"/></linearGradient><linearGradient id="a" x1="71.67" y1="289.295" x2="240.339" y2="355.527" gradientUnits="userSpaceOnUse"><stop offset=".001" stop-color="#f7f8fa"/><stop offset=".153" stop-color="#ecf3f6"/><stop offset=".706" stop-color="#c7e2ea"/><stop offset="1" stop-color="#b9dbe5"/></linearGradient><linearGradient id="e" x1="295.387" y1="292.777" x2="459.641" y2="359.891" xlink:href="#a"/></defs><path d="M422.955 317.555h-35c0-72.49-58.974-131.464-131.465-131.464s-131.465 58.974-131.465 131.464h-35c0-91.788 74.676-166.464 166.465-166.464s166.465 74.676 166.465 166.464z" style="fill:url(#b)"/><path d="M387.955 317.555h-35a96.464 96.464 0 1 0-192.929 0h-35c0-72.49 58.975-131.464 131.464-131.464s131.465 58.974 131.465 131.464z" style="fill:url(#c)"/><path d="M352.955 317.555h-35a61.465 61.465 0 0 0-122.93 0h-35a96.465 96.465 0 0 1 192.93 0z" style="fill:url(#d)"/><path d="M198.973 360.91a22.284 22.284 0 0 0 22.284-22.285 22.284 22.284 0 0 0-22.284-22.284h-4.506a45.038 45.038 0 1 0-88.721-13.134 29.26 29.26 0 0 0-5.747-.57H98.93a29.136 29.136 0 0 0-29.136 29.136 29.136 29.136 0 0 0 29.136 29.136z" style="fill:url(#a)"/><path d="M413.07 360.91a29.136 29.136 0 0 0 29.135-29.137 29.136 29.136 0 0 0-29.136-29.136h-1.068a29.26 29.26 0 0 0-5.747.57 45.035 45.035 0 1 0-88.72 13.135h-4.507a22.284 22.284 0 0 0-22.284 22.284 22.284 22.284 0 0 0 22.284 22.283z" style="fill:url(#e)"/></svg>