<svg xmlns="http://www.w3.org/2000/svg" xmlns:xlink="http://www.w3.org/1999/xlink" viewBox="0 0 512 512"><defs><linearGradient id="b" x1="204.482" y1="179.851" x2="524.482" y2="368.238" gradientUnits="userSpaceOnUse"><stop offset=".001" stop-color="#f7f8fa"/><stop offset=".153" stop-color="#ecf3f6"/><stop offset=".706" stop-color="#c7e2ea"/><stop offset="1" stop-color="#b9dbe5"/></linearGradient><linearGradient id="a" x1="256" y1="369.172" x2="256" y2="444.779" gradientUnits="userSpaceOnUse"><stop offset=".03" stop-color="#5e9fc4"/><stop offset=".194" stop-color="#65a3c5"/><stop offset=".436" stop-color="#79afca"/><stop offset=".725" stop-color="#9ac3d0"/><stop offset="1" stop-color="#bfdad8"/></linearGradient><linearGradient id="c" x1="348.328" y1="316.915" x2="348.328" y2="395.314" xlink:href="#a"/><linearGradient id="d" x1="163.672" y1="316.915" x2="163.672" y2="395.314" xlink:href="#a"/></defs><path d="M384.222 304.313a53.46 53.46 0 0 0 53.46-53.46 53.46 53.46 0 0 0-53.46-53.46H373.41a108.047 108.047 0 1 0-212.845-31.51 70.197 70.197 0 0 0-13.788-1.367h-2.561a69.898 69.898 0 0 0-69.898 69.898 69.898 69.898 0 0 0 69.898 69.898z" style="fill:url(#b)"/><path d="M289.429 390.407a9 9 0 0 0-12.294-3.294L265 394.119v-14.012a9 9 0 0 0-18 0v14.012l-12.135-7.006a9 9 0 0 0-9 15.589L238 409.707l-12.135 7.006a9 9 0 1 0 9 15.59L247 425.295v14.012a9 9 0 0 0 18 0v-14.012l12.135 7.006a9 9 0 0 0 9-15.589L274 409.707l12.135-7.005a9 9 0 0 0 3.294-12.295z" style="fill:url(#a)"/><path d="m378.463 365.64-12.135-7.006 12.135-7.006a9 9 0 0 0-9-15.589l-12.135 7.006v-14.01a9 9 0 0 0-18 0v14.01l-12.135-7.006a9 9 0 0 0-9 15.59l12.135 7.005-12.135 7.006a9 9 0 1 0 9 15.589l12.135-7.006v14.011a9 9 0 0 0 18 0v-14.011l12.135 7.006a9 9 0 0 0 9-15.589z" style="fill:url(#c)"/><path d="M197.1 339.334a9 9 0 0 0-12.293-3.294l-12.135 7.006v-14.012a9 9 0 0 0-18 0v14.012l-12.135-7.006a9 9 0 0 0-9 15.588l12.135 7.006-12.135 7.006a9 9 0 1 0 9 15.589l12.135-7.006v14.011a9 9 0 0 0 18 0v-14.011l12.135 7.006a9 9 0 0 0 9-15.589l-12.135-7.006 12.135-7.006a9 9 0 0 0 3.294-12.294z" style="fill:url(#d)"/></svg>