<svg xmlns="http://www.w3.org/2000/svg" viewBox="30 0 512 512"><defs><linearGradient id="a" x1="223.614" y1="255.809" x2="126.548" y2="129.084" gradientUnits="userSpaceOnUse"><stop offset="0" stop-color="#ff8b6c"/><stop offset=".103" stop-color="#ff926e"/><stop offset="1" stop-color="#ffce7b"/></linearGradient><linearGradient id="b" x1="135.175" y1="185.323" x2="426.597" y2="324.309" gradientUnits="userSpaceOnUse"><stop offset=".001" stop-color="#f7f8fa"/><stop offset=".04" stop-color="#f2f5f8"/><stop offset=".36" stop-color="#c9e2ea"/><stop offset=".525" stop-color="#b9dbe5"/><stop offset="1" stop-color="#97c2cc"/></linearGradient><linearGradient id="c" x1="344.267" y1="279.122" x2="179.407" y2="443.982" gradientUnits="userSpaceOnUse"><stop offset="0" stop-color="#ffe17b"/><stop offset=".485" stop-color="#ffd178"/><stop offset="1" stop-color="#ffc476"/></linearGradient></defs><path d="M403.382 346.963a48.037 48.037 0 0 0 48.036-48.037 48.037 48.037 0 0 0-48.036-48.037h-9.715a97.087 97.087 0 1 0-191.254-28.314 63.084 63.084 0 0 0-12.39-1.228h-2.3a62.808 62.808 0 0 0-62.809 62.808 62.808 62.808 0 0 0 62.808 62.808z" style="fill:url(#b)"/><path d="M329.356 239.02 309.1 316.528a3.436 3.436 0 0 0 3.324 4.304h34.493a3.436 3.436 0 0 1 2.584 5.7L256.57 432.654a4.112 4.112 0 0 1-7.073-3.749l20.255-77.506a3.436 3.436 0 0 0-3.324-4.304h-34.493a3.436 3.436 0 0 1-2.584-5.7l92.933-106.123a4.112 4.112 0 0 1 7.072 3.75z" style="fill:url(#c)"/></svg>