<svg xmlns="http://www.w3.org/2000/svg" xmlns:xlink="http://www.w3.org/1999/xlink" viewBox="0 0 512 512"><defs><linearGradient id="b" x1="106.2" y1="127.144" x2="461.232" y2="341.895" gradientUnits="userSpaceOnUse"><stop offset=".001" stop-color="#f7f8fa"/><stop offset=".368" stop-color="#e3eff3"/><stop offset="1" stop-color="#b9dbe5"/></linearGradient><linearGradient id="a" x1="176" y1="323.743" x2="176" y2="430.222" gradientUnits="userSpaceOnUse"><stop offset=".03" stop-color="#6c92b2"/><stop offset=".501" stop-color="#7ea9c2"/><stop offset="1" stop-color="#8ebdd0"/></linearGradient><linearGradient id="c" x1="256" y1="323.743" x2="256" y2="430.222" xlink:href="#a"/><linearGradient id="d" x1="336" y1="323.743" x2="336" y2="430.222" xlink:href="#a"/><linearGradient id="e" x1="201" y1="323.743" x2="201" y2="430.222" xlink:href="#a"/><linearGradient id="f" x1="281" y1="323.743" x2="281" y2="430.222" xlink:href="#a"/></defs><path d="M384.222 311.242a53.46 53.46 0 0 0 53.46-53.46 53.46 53.46 0 0 0-53.46-53.46H373.41a108.047 108.047 0 1 0-212.845-31.51 70.204 70.204 0 0 0-13.788-1.367h-2.561a69.898 69.898 0 0 0-69.898 69.898 69.898 69.898 0 0 0 69.898 69.899z" style="fill:url(#b)"/><path d="M167.518 372.99a10.002 10.002 0 0 1-8.411-15.395q1.79-2.795 3.606-5.598c4.46-6.903 9.07-14.041 13.066-21.07a10 10 0 1 1 17.387 9.882c-4.275 7.523-9.043 14.903-13.653 22.04q-1.791 2.772-3.565 5.534a9.993 9.993 0 0 1-8.43 4.608z" style="fill:url(#a)"/><path d="M247.518 372.99a10.002 10.002 0 0 1-8.411-15.395q1.79-2.795 3.606-5.598c4.46-6.903 9.07-14.041 13.066-21.07a10 10 0 1 1 17.387 9.882c-4.275 7.523-9.043 14.903-13.653 22.04q-1.791 2.772-3.565 5.534a9.993 9.993 0 0 1-8.43 4.608z" style="fill:url(#c)"/><path d="M327.518 372.99a10.002 10.002 0 0 1-8.411-15.395q1.79-2.795 3.606-5.598c4.46-6.903 9.07-14.041 13.066-21.07a10 10 0 1 1 17.387 9.882c-4.275 7.523-9.043 14.903-13.653 22.04q-1.791 2.772-3.565 5.534a9.993 9.993 0 0 1-8.43 4.608z" style="fill:url(#d)"/><path d="M192.518 441.378a10.002 10.002 0 0 1-8.412-15.395q1.793-2.798 3.61-5.604c4.458-6.901 9.068-14.038 13.062-21.065a10 10 0 1 1 17.388 9.882c-4.274 7.52-9.04 14.9-13.65 22.035q-1.792 2.774-3.568 5.54a9.993 9.993 0 0 1-8.43 4.607z" style="fill:url(#e)"/><path d="M272.518 441.378a10.002 10.002 0 0 1-8.412-15.395q1.793-2.798 3.61-5.604c4.458-6.901 9.068-14.038 13.062-21.065a10 10 0 1 1 17.388 9.882c-4.274 7.52-9.04 14.9-13.65 22.035q-1.792 2.774-3.568 5.54a9.993 9.993 0 0 1-8.43 4.607z" style="fill:url(#f)"/></svg>