<svg xmlns="http://www.w3.org/2000/svg" xmlns:xlink="http://www.w3.org/1999/xlink" viewBox="0 0 512 512"><defs><linearGradient id="g" x1="304.322" y1="216.276" x2="153.603" y2="67.177" xlink:href="#b"/><linearGradient id="a" x1="228.167" y1="318.589" x2="228.167" y2="388.947" gradientUnits="userSpaceOnUse"><stop offset=".03" stop-color="#6c92b2"/><stop offset=".501" stop-color="#7ea9c2"/><stop offset="1" stop-color="#8ebdd0"/></linearGradient><linearGradient id="d" x1="348.166" y1="318.589" x2="348.166" y2="388.947" xlink:href="#a"/><linearGradient id="b" x1="252.423" y1="268.74" x2="101.703" y2="119.641" gradientUnits="userSpaceOnUse"><stop offset="0" stop-color="#ff8b6c"/><stop offset=".103" stop-color="#ff926e"/><stop offset="1" stop-color="#ffce7b"/></linearGradient><linearGradient id="e" x1="199.958" y1="321.774" x2="49.239" y2="172.675" xlink:href="#b"/><linearGradient id="f" x1="304.886" y1="215.706" x2="154.167" y2="66.607" xlink:href="#b"/><linearGradient id="c" x1="288.166" y1="318.589" x2="288.166" y2="388.947" xlink:href="#a"/><linearGradient id="h" x1="200.523" y1="321.204" x2="49.803" y2="172.105" xlink:href="#b"/><linearGradient id="i" x1="326.219" y1="194.141" x2="175.5" y2="45.043" xlink:href="#b"/><linearGradient id="j" x1="178.626" y1="343.338" x2="27.907" y2="194.24" xlink:href="#b"/><linearGradient id="k" x1="252.821" y1="268.337" x2="102.102" y2="119.238" xlink:href="#b"/><linearGradient id="l" x1="252.024" y1="269.143" x2="101.304" y2="120.044" xlink:href="#b"/><linearGradient id="m" x1="210.131" y1="212.934" x2="426.956" y2="357.484" gradientUnits="userSpaceOnUse"><stop offset=".001" stop-color="#f7f8fa"/><stop offset=".368" stop-color="#e3eff3"/><stop offset="1" stop-color="#b9dbe5"/></linearGradient></defs><path d="M210.657 434.269a10.002 10.002 0 0 1-8.472-15.3l35-56.019a10 10 0 0 1 16.962 10.598l-35 56.018a9.995 9.995 0 0 1-8.49 4.703z" style="fill:url(#a)"/><path d="M270.657 434.269a10.002 10.002 0 0 1-8.471-15.3l35-56.019a10 10 0 0 1 16.962 10.598l-35 56.018a9.995 9.995 0 0 1-8.49 4.703z" style="fill:url(#c)"/><path d="M330.657 434.269a10.002 10.002 0 0 1-8.471-15.3l35-56.019a10 10 0 0 1 16.962 10.598l-35 56.018a9.995 9.995 0 0 1-8.49 4.703z" style="fill:url(#d)"/><circle cx="175.004" cy="192.154" r="77.639" style="fill:url(#b)"/><circle cx="175.004" cy="297.088" r="9.488" style="fill:url(#e)"/><circle cx="175.004" cy="87.22" r="9.488" style="fill:url(#f)"/><circle cx="279.938" cy="192.154" r="9.488" style="fill:url(#g)"/><circle cx="70.07" cy="192.154" r="9.488" style="fill:url(#h)"/><circle cx="249.203" cy="117.954" r="9.488" style="fill:url(#i)"/><circle cx="100.804" cy="266.353" r="9.488" style="fill:url(#j)"/><circle cx="100.804" cy="117.954" r="9.488" style="fill:url(#k)"/><circle cx="249.203" cy="266.353" r="9.488" style="fill:url(#l)"/><path d="M403.382 346.771a48.037 48.037 0 0 0 48.036-48.037 48.037 48.037 0 0 0-48.036-48.037h-9.715a97.087 97.087 0 1 0-191.254-28.314 63.084 63.084 0 0 0-12.39-1.228h-2.3a62.808 62.808 0 0 0-62.809 62.808 62.808 62.808 0 0 0 62.808 62.808z" style="fill:url(#m)"/></svg>