<svg xmlns="http://www.w3.org/2000/svg" xmlns:xlink="http://www.w3.org/1999/xlink" viewBox="0 0 512 512"><defs><linearGradient id="a" x1="202.95" y1="266.855" x2="139.576" y2="192.238" gradientUnits="userSpaceOnUse"><stop offset="0" stop-color="#ff8b6c"/><stop offset=".103" stop-color="#ff926e"/><stop offset="1" stop-color="#ffce7b"/></linearGradient><linearGradient id="b" x1="265.049" y1="214.113" x2="201.675" y2="139.496" xlink:href="#a"/><linearGradient id="c" x1="129.832" y1="328.954" x2="66.459" y2="254.338" xlink:href="#a"/><linearGradient id="d" x1="195.159" y1="273.472" x2="131.786" y2="198.855" xlink:href="#a"/><linearGradient id="e" x1="150.594" y1="222.052" x2="413.266" y2="395.263" gradientUnits="userSpaceOnUse"><stop offset=".001" stop-color="#f7f8fa"/><stop offset=".368" stop-color="#e3eff3"/><stop offset="1" stop-color="#b9dbe5"/></linearGradient></defs><circle cx="191.599" cy="253.491" r="93.121" style="fill:url(#a)"/><circle cx="191.599" cy="127.632" r="11.38" style="fill:url(#b)"/><circle cx="65.74" cy="253.491" r="11.38" style="fill:url(#c)"/><circle cx="102.603" cy="164.495" r="11.38" style="fill:url(#d)"/><path d="M403.609 395.748a54.031 54.031 0 0 0 54.031-54.031 54.031 54.031 0 0 0-54.031-54.032h-10.927a109.202 109.202 0 1 0-215.12-31.847 70.958 70.958 0 0 0-13.935-1.381h-2.589a70.645 70.645 0 0 0-70.645 70.645 70.646 70.646 0 0 0 70.645 70.646z" style="fill:url(#e)"/></svg>