<svg xmlns="http://www.w3.org/2000/svg" xmlns:xlink="http://www.w3.org/1999/xlink" viewBox="0 0 512 512"><defs><linearGradient id="b" x1="197.172" y1="242.958" x2="460.156" y2="442.04" gradientUnits="userSpaceOnUse"><stop offset=".001" stop-color="#f7f8fa"/><stop offset=".246" stop-color="#edf4f7"/><stop offset=".653" stop-color="#d4e8ee"/><stop offset="1" stop-color="#b9dbe5"/></linearGradient><linearGradient id="a" x1="240.056" y1="290.261" x2="139.795" y2="206.482" gradientUnits="userSpaceOnUse"><stop offset="0" stop-color="#ff8b6c"/><stop offset=".644" stop-color="#ffac77"/><stop offset="1" stop-color="#ffb97b"/></linearGradient><linearGradient id="c" x1="188.424" y1="352.05" x2="88.163" y2="268.271" xlink:href="#a"/><linearGradient id="d" x1="291.688" y1="228.472" x2="191.428" y2="144.692" xlink:href="#a"/><linearGradient id="e" x1="283.201" y1="238.629" x2="182.94" y2="154.849" xlink:href="#a"/><linearGradient id="f" x1="196.911" y1="341.893" x2="96.651" y2="258.114" xlink:href="#a"/><linearGradient id="g" x1="307.074" y1="210.06" x2="206.813" y2="126.28" xlink:href="#a"/><linearGradient id="h" x1="173.039" y1="370.462" x2="72.778" y2="286.683" xlink:href="#a"/><linearGradient id="i" x1="246.058" y1="283.079" x2="145.797" y2="199.299" xlink:href="#a"/><linearGradient id="j" x1="234.054" y1="297.443" x2="133.794" y2="213.664" xlink:href="#a"/></defs><path d="M403.382 390.52a48.037 48.037 0 0 0 48.036-48.037 48.037 48.037 0 0 0-48.036-48.037h-9.715a97.087 97.087 0 1 0-191.254-28.314 63.076 63.076 0 0 0-12.39-1.228h-2.3a62.808 62.808 0 0 0-62.809 62.808 62.808 62.808 0 0 0 62.808 62.808z" style="fill:url(#b)"/><circle cx="175.004" cy="235.902" r="77.639" style="fill:url(#a)"/><circle cx="175.004" cy="340.836" r="9.488" style="fill:url(#c)"/><circle cx="175.004" cy="130.968" r="9.488" style="fill:url(#d)"/><circle cx="279.938" cy="235.902" r="9.488" style="fill:url(#e)"/><circle cx="70.07" cy="235.902" r="9.488" style="fill:url(#f)"/><circle cx="249.203" cy="161.703" r="9.488" style="fill:url(#g)"/><circle cx="100.804" cy="310.102" r="9.488" style="fill:url(#h)"/><circle cx="100.804" cy="161.703" r="9.488" style="fill:url(#i)"/><circle cx="249.203" cy="310.102" r="9.488" style="fill:url(#j)"/></svg>