<?xml version="1.0" encoding="utf-8"?>
<!-- Generator: Adobe Illustrator 16.0.0, SVG Export Plug-In . SVG Version: 6.00 Build 0)  -->
<!DOCTYPE svg PUBLIC "-//W3C//DTD SVG 1.1//EN" "http://www.w3.org/Graphics/SVG/1.1/DTD/svg11.dtd">
<svg version="1.1" xmlns="http://www.w3.org/2000/svg" xmlns:xlink="http://www.w3.org/1999/xlink" x="0px" y="0px" width="64px"
	 height="64px" viewBox="0 0 64 64" enable-background="new 0 0 64 64" xml:space="preserve">
<g id="_x32_5_planet_x2C__earth_x2C__global_x2C__mass_x2C__bulb_x2C__idea_x2C__creative">
</g>
<g id="_x32_4_founder_x2C__business_x2C__startup_x2C__team_x2C__bulb_x2C__idea_x2C__brainstorm">
</g>
<g id="_x32_3_like_x2C__success_x2C__smm_x2C__network_x2C__social_x2C__bulb_x2C__idea">
</g>
<g id="_x32_2_diamond_x2C__good_x2C__great_x2C__smart_x2C__bulb_x2C__idea_x2C__creative">
</g>
<g id="_x32_1_presentation_x2C__business_x2C__training_x2C__description_x2C__bulb_x2C__idea_x2C__plan">
</g>
<g id="_x32_0_fire_x2C__hot_x2C__bonfire_x2C__bulb_x2C__idea_x2C__light_x2C__creative">
</g>
<g id="_x31_9_presentation_x2C__business_x2C__tablet_x2C__description_x2C__bulb_x2C__idea_x2C__plan">
</g>
<g id="_x31_8_laboratory_x2C__lab_x2C__flask_x2C__experiment_x2C__bulb_x2C__idea_x2C__creative">
</g>
<g id="_x31_7_sprout_x2C__leaf_x2C__startup_x2C__water_x2C__bulb_x2C__idea_x2C__watering">
</g>
<g id="_x31_6_machine_x2C__generator_x2C__paper_x2C__bulb_x2C__idea_x2C__creative_x2C__computer">
</g>
<g id="_x31_5_portfolio_x2C__case_x2C__presentation_x2C__work_x2C__bulb_x2C__idea_x2C__creative">
</g>
<g id="_x31_4_optimization_x2C__cogwheel_x2C__setting_x2C__mechanism_x2C__bulb_x2C__idea_x2C__light">
</g>
<g id="_x31_3_air_x2C__cloud_x2C__brainstorm_x2C__storm_x2C__bulb_x2C__idea_x2C__light">
</g>
<g id="_x31_2_planet_x2C__space_x2C__flag_x2C__discovery_x2C__bulb_x2C__idea">
</g>
<g id="_x31_1_target_x2C__focus_x2C__arrow_x2C__bulb_x2C__idea_x2C__light_x2C__creative">
</g>
<g id="_x31_0_bulb_x2C__idea_x2C__light_x2C__coin_x2C__investment_x2C__money_x2C__creative">
</g>
<g id="_x39__brain_x2C__smart_x2C__bulb_x2C__idea_x2C__light_x2C__science_x2C__creative">
	<g>
		<g>
			<path fill="#FFE6A9" d="M63,32c0,17.126-13.873,31-31,31S1,49.126,1,32C1,14.873,14.873,1,32,1S63,14.873,63,32z"/>
			<path fill="#FFDA7E" d="M58,32c0,14.353-11.638,26-26,26S6,46.353,6,32C6,17.648,17.638,6,32,6S58,17.648,58,32z"/>
			<path fill="#FFCE54" d="M53,32c0,11.589-9.397,21-21,21s-21-9.411-21-21c0-11.588,9.397-21,21-21S53,20.412,53,32z"/>
			<polygon fill="#CCD1D9" points="40.5,56.5 38.5,58.5 25.5,58.5 23.5,56.5 23.5,49.5 40.5,49.5 			"/>
			<path fill="#E6E9ED" d="M48.5,32c0-9.113-7.388-16.5-16.5-16.5S15.5,22.887,15.5,32c0,6,3.212,11.234,8,14.123V49.5h17v-3.377
				C45.288,43.234,48.5,38,48.5,32z"/>
			<path fill="#656D78" d="M27.5,58.5c0,0,1,2,4.5,2s4.5-2,4.5-2H27.5z"/>
			<g>
				<path fill="#E6E9ED" d="M23,53c-0.264,0-0.484-0.207-0.499-0.473c-0.016-0.275,0.195-0.512,0.472-0.527l17.999-1
					c0.266-0.025,0.511,0.197,0.526,0.473s-0.195,0.512-0.472,0.525l-17.999,1C23.019,53,23.009,53,23,53z"/>
			</g>
			<g>
				<path fill="#E6E9ED" d="M23,56c-0.264,0-0.484-0.207-0.499-0.473c-0.016-0.275,0.195-0.512,0.472-0.527l17.999-1
					c0.266-0.029,0.511,0.197,0.526,0.473s-0.195,0.512-0.472,0.525l-17.999,1C23.019,56,23.009,56,23,56z"/>
			</g>
		</g>
		<path fill="#EC87C0" d="M40,27.5c1.11,0,2,0.891,2,2s-0.89,2-2,2c0.83,0,1.5,0.67,1.5,1.5c0,0.62-0.37,1.141-0.9,1.38
			c0.7,1.33,0.49,2.99-0.619,4.101c-0.83,0.819-1.95,1.149-3.021,0.979h-0.01c-0.08,0.479-0.311,0.94-0.681,1.31
			c-0.979,0.98-2.56,0.98-3.539,0C32.26,40.29,32.01,39.67,32,39.04V34.5v-7v-4c0-1.109,0.89-2,2-2s2,0.891,2,2
			c0,0.279-0.06,0.54-0.16,0.779c0.44-0.389,1.021-0.619,1.66-0.619c1.39,0,2.5,1.109,2.5,2.5c0,0.51-0.15,0.99-0.42,1.38
			C39.72,27.52,39.86,27.5,40,27.5z"/>
		<path fill="#EC87C0" d="M32,34.5v4.54c-0.01,0.63-0.25,1.25-0.73,1.729c-0.979,0.98-2.56,0.98-3.539,0
			c-0.37-0.369-0.601-0.83-0.681-1.31h-0.01c-1.06,0.17-2.19-0.16-3.01-0.979c-1.11-1.11-1.32-2.771-0.63-4.101
			c-0.53-0.239-0.9-0.76-0.9-1.38c0-0.83,0.67-1.5,1.5-1.5c-1.11,0-2-0.891-2-2s0.89-2,2-2c0.15,0,0.29,0.02,0.42,0.04
			C24.15,27.15,24,26.67,24,26.16c0-1.391,1.12-2.5,2.5-2.5c0.64,0,1.22,0.23,1.66,0.619C28.06,24.04,28,23.779,28,23.5
			c0-1.109,0.89-2,2-2s2,0.891,2,2v4V34.5z"/>
		<path fill="#D770AD" d="M42,33c0-0.559-0.232-1.064-0.604-1.428c0.665-0.449,1.104-1.21,1.104-2.072
			c0-1.252-0.927-2.281-2.129-2.463c0.085-0.279,0.129-0.574,0.129-0.877c0-1.654-1.346-3-3-3c-0.352,0-0.693,0.063-1.017,0.178
			C36.398,22.036,35.323,21,34,21c-0.821,0-1.544,0.402-2,1.015C31.544,21.402,30.821,21,30,21c-1.323,0-2.398,1.036-2.483,2.338
			c-0.323-0.114-0.665-0.178-1.017-0.178c-1.654,0-3,1.346-3,3c0,0.304,0.044,0.599,0.129,0.877
			C22.427,27.219,21.5,28.248,21.5,29.5c0,0.862,0.438,1.623,1.104,2.072C22.232,31.936,22,32.441,22,33
			c0,0.622,0.299,1.193,0.779,1.571c-0.563,1.469-0.234,3.131,0.897,4.263c0.753,0.753,1.774,1.169,2.82,1.169
			c0.058,0,0.115-0.011,0.172-0.014c0.144,0.423,0.383,0.81,0.708,1.134c0.568,0.568,1.322,0.882,2.123,0.882
			s1.555-0.313,2.123-0.882c0.144-0.143,0.269-0.3,0.378-0.465c0.109,0.164,0.234,0.32,0.376,0.465
			c0.568,0.568,1.322,0.882,2.123,0.882s1.555-0.313,2.123-0.881c0.327-0.327,0.568-0.716,0.71-1.135
			c0.062,0.003,0.124,0.015,0.185,0.015c1.046,0,2.046-0.409,2.816-1.17c1.138-1.139,1.462-2.808,0.89-4.265
			C41.702,34.191,42,33.621,42,33z M28.084,40.415c-0.289-0.287-0.476-0.646-0.544-1.056c-0.132-0.64,0.071-1.304,0.544-1.775
			c0.195-0.194,0.195-0.512,0-0.707s-0.512-0.195-0.707,0c-0.572,0.572-0.866,1.334-0.863,2.106
			c-0.793,0.006-1.561-0.287-2.13-0.856c-0.932-0.932-1.148-2.345-0.539-3.519c0.14-0.271,0.32-0.518,0.539-0.735
			c1.168-1.165,3.071-1.163,4.243,0.01c0.195,0.195,0.512,0.195,0.707,0s0.195-0.512,0-0.707c-1.562-1.56-4.099-1.565-5.656-0.011
			c-0.154,0.153-0.292,0.319-0.418,0.494C23.1,33.479,23,33.252,23,33c0-0.552,0.448-1,1-1c0.276,0,0.5-0.224,0.5-0.5
			S24.276,31,24,31c-0.827,0-1.5-0.673-1.5-1.5S23.173,28,24,28c0.063,0,0.116,0.011,0.175,0.018
			c0.564,0.71,1.406,1.143,2.325,1.143c0.276,0,0.5-0.224,0.5-0.5s-0.224-0.5-0.5-0.5c-0.673,0-1.294-0.335-1.669-0.904
			c-0.217-0.313-0.331-0.692-0.331-1.096c0-1.103,0.897-2,2-2c0.48,0,0.937,0.168,1.292,0.467C28.213,25.46,29.051,26,30,26
			c0.276,0,0.5-0.224,0.5-0.5S30.276,25,30,25c-0.606,0-1.147-0.358-1.379-0.914c-0.08-0.191-0.121-0.389-0.121-0.586
			c0-0.827,0.673-1.5,1.5-1.5s1.5,0.673,1.5,1.5v4c0,0.062-0.022,1.5-2,1.5c-0.276,0-0.5,0.224-0.5,0.5s0.224,0.5,0.5,0.5
			c0.896,0,1.542-0.233,2-0.57v4.934C31.375,34.555,31.03,35,30.5,35c-0.276,0-0.5,0.224-0.5,0.5s0.224,0.5,0.5,0.5
			c0.398,0,0.727-0.122,1-0.284v3.316c-0.008,0.524-0.216,1.016-0.584,1.384C30.156,41.176,28.844,41.177,28.084,40.415z
			 M39.629,38.125c-0.586,0.577-1.352,0.867-2.144,0.859c0.003-0.779-0.292-1.538-0.862-2.107c-0.195-0.195-0.512-0.195-0.707,0
			s-0.195,0.513,0,0.707c0.473,0.472,0.676,1.136,0.541,1.794c-0.065,0.392-0.252,0.75-0.541,1.038
			c-0.76,0.76-2.075,0.757-2.829,0.003c-0.37-0.377-0.579-0.87-0.587-1.387v-3.316c0.273,0.162,0.602,0.284,1,0.284
			c0.276,0,0.5-0.224,0.5-0.5S33.776,35,33.5,35c-0.532,0-0.877-0.447-1-0.639V29.43c0.458,0.337,1.104,0.57,2,0.57
			c0.276,0,0.5-0.224,0.5-0.5S34.776,29,34.5,29c-1.913,0-1.997-1.345-2-1.504V23.5c0-0.827,0.673-1.5,1.5-1.5s1.5,0.673,1.5,1.5
			c0,0.197-0.041,0.395-0.122,0.587C35.147,24.642,34.606,25,34,25c-0.276,0-0.5,0.224-0.5,0.5S33.724,26,34,26
			c0.949,0,1.787-0.54,2.207-1.372c0.356-0.3,0.813-0.468,1.293-0.468c1.121,0,2,0.879,2,2c0,0.403-0.114,0.782-0.338,1.105
			c-0.368,0.56-0.989,0.895-1.662,0.895c-0.276,0-0.5,0.224-0.5,0.5s0.224,0.5,0.5,0.5c0.923,0,1.768-0.435,2.326-1.143
			C39.884,28.011,39.942,28,40,28c0.827,0,1.5,0.673,1.5,1.5S40.827,31,40,31c-0.276,0-0.5,0.224-0.5,0.5S39.724,32,40,32
			c0.552,0,1,0.448,1,1c0,0.248-0.098,0.473-0.254,0.652c-0.121-0.17-0.258-0.333-0.412-0.486c-1.557-1.557-4.095-1.551-5.657,0.01
			c-0.195,0.195-0.195,0.512,0,0.707s0.512,0.195,0.707,0c1.171-1.172,3.074-1.177,4.243-0.01c0.222,0.222,0.397,0.466,0.53,0.74
			C40.772,35.781,40.56,37.193,39.629,38.125z"/>
	</g>
</g>
<g id="_x38__bulb_x2C__idea_x2C__people_x2C__team_x2C__brainstorm_x2C__creative">
</g>
<g id="_x37__rocket_x2C__space_x2C__business_x2C__startup_x2C__bulb_x2C__idea_x2C__planet">
</g>
<g id="_x36__balloon_x2C__business_x2C__startup_x2C__bulb_x2C__idea_x2C__light_x2C__basket">
</g>
<g id="_x35__coin_x2C__investment_x2C__money_x2C__bulb_x2C__idea_x2C__light">
</g>
<g id="_x34__sprout_x2C__hand_x2C__leaf_x2C__startup_x2C__earth_x2C__bulb_x2C__idea">
</g>
<g id="_x33__head_x2C__brain_x2C__storm_x2C__lightning_x2C__cloud_x2C__idea_x2C__creative">
</g>
<g id="_x32__man_x2C__suit_x2C__job_x2C__bulb_x2C__idea_x2C__creative_x2C__director">
</g>
<g id="_x31__skull_x2C__bulb_x2C__idea_x2C__light_x2C__death_x2C__creative">
</g>
</svg>
