<svg xmlns="http://www.w3.org/2000/svg" height="2080" width="3120" xml:space="preserve">
    <path style="fill:#f6f0f0;fill-opacity:1;fill-rule:nonzero;stroke:none"
          d="M16300 6391.35c0-144.1-116.8-260.91-260.9-260.91-144.1 0-260.9 116.81-260.9 260.91 0 144.09 116.8 260.91 260.9 260.91 144.1 0 260.9-116.82 260.9-260.91"
          transform="matrix(.17136 0 0 -.17136 0 2080)"/>
    <path style="fill:#f6f0f0;fill-opacity:1;fill-rule:nonzero;stroke:none"
          d="M11437 13024.9c0-109.2-88.5-197.7-197.7-197.7-109.2 0-197.7 88.5-197.7 197.7 0 109.2 88.5 197.7 197.7 197.7 109.2 0 197.7-88.5 197.7-197.7M6329.39 11047c0-66.2-53.67-119.8-119.88-119.8-66.2 0-119.88 53.6-119.88 119.8 0 66.2 53.68 119.9 119.88 119.9 66.21 0 119.88-53.7 119.88-119.9M10453.3 13565.3c0-66.3-53.6-119.9-119.8-119.9-66.3 0-119.9 53.6-119.9 119.9 0 66.2 53.6 119.8 119.9 119.8 66.2 0 119.8-53.6 119.8-119.8"
          transform="matrix(.13333 0 0 -.13333 0 2080)"/>
    <path style="fill:#f6f0f0;fill-opacity:1;fill-rule:nonzero;stroke:none"
          d="M15576.4 868.119H2841.43c-282.67 368.841-74.03 946.101 190.49 1328.211 264.53 382.03 674.76 633.32 1074.64 870.03 399.87 236.8 813.02 480.26 1089.81 853.55 457.34 616.72 450.61 1445.59 576.07 2203.06 109.47 660.89 339.16 1312.47 746.9 1843.98 407.74 531.51 1006.04 934.01 1669.84 1023.82 663.92 89.81 1384.11-165.11 1779.64-705.76 238.18-325.54 347.98-724.2 505.88-1095.37 157.9-371.17 392.6-743.28 765.9-896.05 432-176.79 919.5-14.66 1362.7 131.94 443.2 146.59 953.4 271.19 1355.9 34.69 444.9-261.46 561.9-849.93 562.2-1365.99.1-516.07-64.5-1064.13 177.1-1520.23 183.5-346.53 516.3-583.32 822.1-828.86 305.8-245.46 610.5-537.31 695-920.26 84.4-382.95-247-956.761-639.2-956.761"
          transform="matrix(.17388 0 0 -.17388 0 2080)"/>
    <path style="fill:#5f5c31;fill-opacity:1;fill-rule:nonzero;stroke:none"
          d="M4048.7 3235.7c-.51 0-1.01 0-1.52.1-6.99.8-11.98 7.1-11.15 14.1 125.23 1055.6-249.43 1878.7-253.23 1886.9-2.96 6.4-.18 13.9 6.2 16.9 6.38 3 13.95.2 16.92-6.2 3.83-8.2 381.54-837.6 255.41-1900.6-.77-6.5-6.27-11.2-12.63-11.2"
          transform="matrix(.13333 0 0 -.13333 0 2080)"/>
    <path style="fill:#8c8e45;fill-opacity:1;fill-rule:nonzero;stroke:none"
          d="M3907.92 3272c-.6 0-1.2 0-1.81.1-6.97 1-11.82 7.5-10.83 14.4 57.94 407.9-42.42 659.1-136.81 798-102.13 150.4-219.52 205.4-220.69 205.9-6.39 2.9-9.21 10.5-6.29 16.9 2.92 6.4 10.47 9.2 16.87 6.3 5.01-2.3 124.04-57.8 230.23-213.3 97.43-142.8 201.15-400.4 141.93-817.4-.91-6.3-6.36-10.9-12.6-10.9M4881.25 3235.7c-6.48 0-12.03 4.9-12.67 11.5-54.35 555.5 175.88 875.1 178.21 878.3 4.18 5.6 12.14 6.9 17.81 2.7 5.66-4.2 6.87-12.2 2.71-17.8-2.28-3.1-226.7-315.6-173.37-860.7.68-7.1-4.44-13.3-11.44-14h-1.25"
          transform="matrix(.13333 0 0 -.13333 0 2080)"/>
    <path style="fill:#5f5c31;fill-opacity:1;fill-rule:nonzero;stroke:none"
          d="M4620.87 3235.7c-6.49 0-12.04 4.9-12.67 11.5-152.95 1601.5 136.6 2281.4 139.54 2288.1 2.83 6.4 10.32 9.4 16.79 6.5 6.44-2.8 9.37-10.3 6.54-16.8-2.92-6.6-289.71-681.7-137.5-2275.4.67-7-4.47-13.2-11.47-13.9h-1.23"
          transform="matrix(.13333 0 0 -.13333 0 2080)"/>
    <path style="fill:#8c8e45;fill-opacity:1;fill-rule:nonzero;stroke:none"
          d="M4348.4 3272c-6.43 0-11.95 4.8-12.66 11.4-143.76 1338.7-73.72 3288.37-73 3307.9.27 7.02 5.84 13.04 13.21 12.26 7.03-.26 12.52-6.17 12.26-13.2-.72-19.53-70.69-1967.36 72.87-3304.26.75-7-4.32-13.3-11.31-14-.46-.1-.92-.1-1.37-.1"
          transform="matrix(.13333 0 0 -.13333 0 2080)"/>
    <path style="fill:#fba223;fill-opacity:1;fill-rule:nonzero;stroke:none"
          d="m5501.88 3352.1-32.74-408-17.2-213.4-12.87-159-17.08-213.4-30.19-375.1c-38.61-480.7-439.95-851.1-922.07-851.1h-42.81c-482.12 0-883.46 370.4-922.19 851.1l-30.07 375.1-17.2 213.4-12.74 159-17.2 213.4-32.75 408h2107.11"
          transform="matrix(.13333 0 0 -.13333 0 2080)"/>
    <path style="fill:#fb8c2b;fill-opacity:1;fill-rule:nonzero;stroke:none"
          d="m5469.14 2944.1-17.2-213.4H3444.72l-17.2 213.4h2041.62M5439.07 2571.7l-17.08-213.4H3474.66l-17.2 213.4h1981.61"
          transform="matrix(.13333 0 0 -.13333 0 2080)"/>
    <path style="fill:#8c8e45;fill-opacity:1;fill-rule:nonzero;stroke:none"
          d="M3585.46 4302s-817.44 932.5-1628.83 502.6c0 0-60.55-611.6 520.74-835.6 581.3-224.1 1108.09 333 1108.09 333M5050.86 4096.8s323.9 1197 1241.68 1167.8c0 0 323.41-522.5-100.06-979.5-423.47-456.9-1141.62-188.3-1141.62-188.3"
          transform="matrix(.13333 0 0 -.13333 0 2080)"/>
    <path style="fill:#5f5c31;fill-opacity:1;fill-rule:nonzero;stroke:none"
          d="M3830.69 5064.9s-299.72 1934.65-1725.71 2288.88c0 0-390.55-544.96 0-1380.57 390.56-835.61 1235.25-281.56 1725.71-908.31M4706.04 5401s299.73 1934.61 1725.71 2288.84c0 0 390.56-544.96 0-1380.57C6041.2 5473.7 5196.51 6027.71 4706.04 5401"
          transform="matrix(.13333 0 0 -.13333 0 2080)"/>
    <path style="fill:#8c8e45;fill-opacity:1;fill-rule:nonzero;stroke:none"
          d="M4248.5 6545.42S2972.38 8875.13 5615.44 10033.2c0 0 99.91-2779.33-1366.94-3487.78M3761.06 5203.6c-5.22 0-10.12 3.2-11.99 8.4-4.17 11.6-427.21 1165.79-1345.34 1773.9-5.87 3.89-7.47 11.8-3.59 17.66 3.89 5.88 11.79 7.49 17.66 3.59 925.31-612.87 1351.06-1774.85 1355.25-1786.55 2.38-6.6-1.06-13.9-7.68-16.3-1.42-.5-2.88-.7-4.31-.7"
          transform="matrix(.13333 0 0 -.13333 0 2080)"/>
    <path style="fill:#5f5c31;fill-opacity:1;fill-rule:nonzero;stroke:none"
          d="M3494.62 4289.3c-2.55 0-5.12.7-7.36 2.3-5.18 3.7-525.98 367.6-1210.37 403.4-7.02.3-12.42 6.3-12.06 13.3.37 7.1 6.21 12.4 13.39 12.1 692.02-36.1 1218.55-404.3 1223.78-408 5.74-4.1 7.1-12 3.03-17.8-2.49-3.5-6.42-5.3-10.41-5.3"
          transform="matrix(.13333 0 0 -.13333 0 2080)"/>
    <path style="fill:#8c8e45;fill-opacity:1;fill-rule:nonzero;stroke:none"
          d="M4778.7 5566.9c-1.66 0-3.35.3-4.98 1-6.48 2.8-9.49 10.2-6.74 16.7 1.7 4 172.91 403.97 438.22 827.56 245.54 392.03 624.38 885.19 1034.81 1008.32 6.73 1.95 13.83-1.81 15.86-8.55 2.02-6.73-1.8-13.84-8.55-15.87-772.41-231.71-1450.14-1805.56-1456.89-1821.46-2.06-4.8-6.78-7.7-11.73-7.7"
          transform="matrix(.13333 0 0 -.13333 0 2080)"/>
    <path style="fill:#5f5c31;fill-opacity:1;fill-rule:nonzero;stroke:none"
          d="M4275.74 6632.59c-6.91 0-12.58 5.52-12.73 12.45-.11 4.83-9.34 489.47 102.4 1071.42 103.29 537.88 334.01 1271.48 846.64 1711.78 5.33 4.59 13.38 3.97 17.96-1.37 4.59-5.34 3.97-13.37-1.36-17.96-507.06-435.51-735.7-1163.36-838.21-1697.26-111.23-579.31-102.06-1061.25-101.95-1066.04.15-7.04-5.43-12.86-12.46-13.02h-.29M5111.35 4113.7c-1.64 0-3.31.3-4.92.9-6.49 2.8-9.55 10.2-6.83 16.7 2.81 6.7 289.93 674.2 1062.26 867.3 6.82 1.7 13.74-2.5 15.45-9.3 1.7-6.8-2.45-13.7-9.27-15.4-759.58-189.9-1042.17-845.8-1044.94-852.4-2.04-4.9-6.77-7.8-11.75-7.8"
          transform="matrix(.13333 0 0 -.13333 0 2080)"/>
    <path style="fill:#e2dcdc;fill-opacity:1;fill-rule:nonzero;stroke:none"
          d="M14966.2 5224.1h-4200.5v346.3h4200.5v-346.3M13026.9 1719.8v3504.3H12705V1719.8l-981.4-323.3v-228.2h2284.6v228.2l-981.3 323.3"
          transform="matrix(.13333 0 0 -.13333 0 2080)"/>
    <path style="fill:#b9b4b4;fill-opacity:1;fill-rule:nonzero;stroke:none"
          d="m7069.15 5421.8 2435.65-293.4c191.75-20.8 357.77-142.9 434.18-320 169.42-392.8 435.02-1114.7 389.22-1694.4-66.3-841.2-1472.76-541.8-1567.95-513.3-95.18 28.5-1372.68 696.2-1325.61 875.6 47.06 179.4-67 484.1-52.74 681.1 14.26 196.9-312.75 1264.4-312.75 1264.4"
          transform="matrix(.13333 0 0 -.13333 0 2080)"/>
    <path style="fill:#7b7878;fill-opacity:1;fill-rule:nonzero;stroke:none"
          d="m7262.92 5181.2 2070.17-224.5c191.75-20.8 357.77-142.9 434.18-320 169.46-392.8 435.03-1114.7 389.23-1694.5-66.3-841.1-1472.77-541.7-1567.96-513.2-95.18 28.5-1372.68 696.2-1325.62 875.6 47.07 179.4-66.99 484.1-52.73 681 14.26 197 52.73 1195.6 52.73 1195.6"
          transform="matrix(.13333 0 0 -.13333 0 2080)"/>
    <path style="fill:#7b7878;fill-opacity:1;fill-rule:nonzero;stroke:none"
          d="m2935.4 8549.02 1606.76 28.43c229.54 4.06 431.81-149.98 488.82-372.37 175.06-683.04 624.66-2109.12 1453.62-2763.68 1111.68-877.8 417.03-983 267.33-1075.7-149.71-92.7-1487.76-153.5-1559.37-149.8-71.61 3.6-891.03 859-900.88 923.2-9.85 64.2-918.76 1067.78-940.15 1261.02-21.39 193.25-171.09 1079.43-171.09 1229.8 0 150.38-245.04 919.1-245.04 919.1"
          transform="matrix(.13333 0 0 -.13333 0 2080)"/>
    <path style="fill:#4e4b28;fill-opacity:1;fill-rule:nonzero;stroke:none"
          d="m15652.5 1997.94-682.7 460.77s-88.1 399.29-24.8 964.37l271.3-93.96-237.8 326.21c50.1 282.51 140.1 594.54 294.5 912.14l166.8-99.92-82.4 262.48c155.5 280.43 364 562.19 642.1 828.98 0 0 68.5-146.24 131.8-408.18l-136.4-331.73 184.8 96.18c108.7-633.54 120.3-1683.55-527.2-2917.34"
          transform="matrix(.17114 0 0 -.17114 0 2080)"/>
    <path style="fill:#5f5c31;fill-opacity:1;fill-rule:nonzero;stroke:none"
          d="m16173.6 1677.51-837.9 150.33s-244 478.2-409.5 1284.77l297.3 60.5-358.1 276.03c-65 416-103.7 899.39-82.9 1434.7l199.7-19.64-183.9 297.38c36.7 486 123.6 1010.32 283.2 1562.54 0 0 124.1-150.09 289.4-459.94l2.2-541.98 138.4 257.47c357.4-780.17 788.5-2189.53 662.1-4302.16"
          transform="matrix(.16462 0 0 -.16462 0 2080)"/>
    <path style="fill:#8c8e45;fill-opacity:1;fill-rule:nonzero;stroke:none"
          d="m14971.1 1684.58 655.4 36.05s223.7 240.58 411.9 659.28l-224 47.51 296.2 127.65c81.3 216.97 147.6 471.06 172.1 755.73h-155l163.8 147.99c8.5 259.4-18.7 541.64-99.6 842.54 0 0-106.7-73.06-257.2-228.57l-42.6-287.02-86.9 143.58c-333.7-394.71-771.6-1118.88-834.1-2244.74"
          transform="matrix(.17569 0 0 -.17569 0 2080)"/>
    <path style="fill:#8c8e45;fill-opacity:1;fill-rule:nonzero;stroke:none"
          d="m16300 1905.05-654.2 41.71s-223.4 278.42-411.2 762.81l223.5 55.02-295.5 147.61c-81.3 251.13-147.5 545.08-171.9 874.47h154.7l-163.5 171.14c-8.5 300.13 18.6 626.78 99.4 974.89 0 0 106.5-84.52 256.8-264.52l42.5-332.06 86.8 166.16c333.1-456.67 770.2-1294.58 832.6-2597.23"
          transform="matrix(.15536 0 0 -.15536 0 2080)"/>
    <path style="fill:#5f5c31;fill-opacity:1;fill-rule:nonzero;stroke:none"
          d="M16293.4 1960.73c-3 0-5.6 2.28-6 5.26-148.2 1069.68-613.1 2139.63-617.9 2150.32-1.3 3.15.1 6.74 3.2 8.06 3.1 1.4 6.7 0 8-3.15 4.8-10.69 470.4-1082.13 618.9-2153.48.4-3.42-2-6.49-5.3-6.93-.3-.08-.5-.08-.9-.08"
          transform="matrix(.15218 0 0 -.15218 0 2080)"/>
    <path style="fill:#8c8e45;fill-opacity:1;fill-rule:nonzero;stroke:none"
          d="M16294.1 1898.22c-3.2 0-5.9 2.52-5.9 5.71-.4 19.97-41.2 2012.46-351.1 3119.83-.8 3.12.9 6.36 4.1 7.23 3 .87 6.3-.95 7.2-4.07 310.4-1108.85 351.2-3102.77 351.5-3122.74.1-3.28-2.4-5.96-5.7-5.96h-.1"
          transform="matrix(.15884 0 0 -.15884 0 2080)"/>
    <path style="fill:#796b38;fill-opacity:1;fill-rule:nonzero;stroke:none"
          d="M15660 1766.52h-.8c-3 .39-5.1 3.13-4.7 6.17.3 2.58 34.9 263.5 130 615.9 87.8 325.37 246.6 797.52 504.6 1199.22 1.7 2.57 5 3.28 7.6 1.64 2.5-1.64 3.3-5 1.7-7.5-257.4-400.52-415.7-871.43-503.3-1196.02-95-351.77-129.4-612.07-129.7-614.64-.4-2.81-2.8-4.77-5.4-4.77"
          transform="matrix(.17068 0 0 -.17068 0 2080)"/>
    <path style="fill:#fba223;fill-opacity:1;fill-rule:nonzero;stroke:none"
          d="m16300 1612.24-130.2-698.41h-1973.9l-107.7 577.72 2211.8 120.69"
          transform="matrix(.17046 0 0 -.17046 0 2080)"/>
    <path style="fill:#fb8c2b;fill-opacity:1;fill-rule:nonzero;stroke:none"
          d="m16300 1687.96-14.4-77.14-2209.8-120.58-36.9 197.72H16300" transform="matrix(.17061 0 0 -.17061 0 2080)"/>
    <path style="fill:#fba223;fill-opacity:1;fill-rule:nonzero;stroke:none"
          d="M16300 1679.27h-2417.2v168.48H16300v-168.48" transform="matrix(.1715 0 0 -.1715 0 2080)"/>
    <path style="fill:#ef8e6b;fill-opacity:1;fill-rule:nonzero;stroke:none"
          d="M15645 7878.85s290.1 15.64 287.8-237.67l303.1-172.2s12.7-313.17-232.7-473.64c0 0-335.5 235.89-492.4 313.54-156.8 77.65-93.8 262.15-95 270.08-1.1 7.94 85.9 140.67 99 155.14 13 14.48 130.2 144.75 130.2 144.75"
          transform="matrix(.13333 0 0 -.13333 0 2080)"/>
    <path style="fill:#ef6e58;fill-opacity:1;fill-rule:nonzero;stroke:none"
          d="m15740.6 7945.67 46.4 161.4c14 48.68-37.9 89.58-82.2 65.01-43.1-23.91-86-67.39-101.4-146.4-34.8-178.88 137.2-80.01 137.2-80.01"
          transform="matrix(.13333 0 0 -.13333 0 2080)"/>
    <path style="fill:#d35d39;fill-opacity:1;fill-rule:nonzero;stroke:none"
          d="m15343 8104.79-91.5 34.36c-30.2 11.36-64-3.94-75.3-34.19l-.7-1.92c-11.4-30.25 3.9-63.98 34.2-75.34l91.4-34.36 41.9 111.45"
          transform="matrix(.13333 0 0 -.13333 0 2080)"/>
    <path style="fill:#8c8e45;fill-opacity:1;fill-rule:nonzero;stroke:none"
          d="m16078.3 7828.6-709.7 266.59-41.9-111.45 709.7-266.59 41.9 111.45"
          transform="matrix(.13333 0 0 -.13333 0 2080)"/>
    <path style="fill:#f49650;fill-opacity:1;fill-rule:nonzero;stroke:none"
          d="m16078.3 7828.6-41.9-111.45 120.8-3.88 14.6 38.72-93.5 76.61"
          transform="matrix(.13333 0 0 -.13333 0 2080)"/>
    <path style="fill:#1f1d2b;fill-opacity:1;fill-rule:nonzero;stroke:none" d="m16171.8 7751.99-14.6-38.72 64.3-2.07z"
          transform="matrix(.13333 0 0 -.13333 0 2080)"/>
    <path style="fill:#333;fill-opacity:1;fill-rule:nonzero;stroke:none"
          d="m15368.6 8095.19-25.6 9.6-41.9-111.45 25.6-9.6 41.9 111.45" transform="matrix(.13333 0 0 -.13333 0 2080)"/>
    <path style="fill:#1f1d2b;fill-opacity:1;fill-rule:nonzero;stroke:none"
          d="m15336.1 8008.73-3.5-9.18 709.8-266.59 3.4 9.18-709.7 266.59M15349.4 8044.05l-3.5-9.18 709.7-266.59 3.5 9.18-709.7 266.59M15362.6 8079.37l-3.4-9.18 709.7-266.59 3.4 9.18-709.7 266.59"
          transform="matrix(.13333 0 0 -.13333 0 2080)"/>
    <path style="fill:#ef8e6b;fill-opacity:1;fill-rule:nonzero;stroke:none"
          d="m15343.2 7981.55 281.7 14.15s96.6-2.74 87.3-96.6c0 0-15.6-42.12-89.7-55.76 0 0 55.9-31.54 60.2-72.19 4.3-40.64-57.5-79.37-57.5-79.37s76-3.83 81.6-61.56c5.6-57.73-74-61.87-74-61.87s88.5-9.07 76.6-76.92c-11.9-67.84-92.9-56.66-92.9-56.66l-50.2 4.65-55.5-130.54s-94 11.25-156.8 77.65c-59.1 62.43-209.9 292.37-87.3 544.23 14.4 29.59 43.7 49.14 76.5 50.79"
          transform="matrix(.13333 0 0 -.13333 0 2080)"/>
    <path style="fill:#ef6e58;fill-opacity:1;fill-rule:nonzero;stroke:none"
          d="M15491.5 7381.56c1 27 18.4 52.18 43.8 61.86 30.2 11.48 63.9-2.27 95-.85 30.1 1.38 64.4 15.78 70.4 48.82 7.2 39.89-39.8 56.39-69.4 65.28-.1.05-.2.15-.4.2-21.4-4.77-43.4-7.59-65-9.76-36.9-3.69-74-4.58-111-5.46-11-.26-9 16.98 1.2 17.22 33.8.8 67.6 1.61 101.3 4.56 33.5 2.92 68.5 6.95 100.4 18.22 29.3 10.36 56 40.1 32.6 69.86-21.1 26.76-57.9 26.72-89 26.55-1.9-.01-3.2.58-4.4 1.39-13.5-1.99-27.3-2.5-40.7-2.15-40.7 1.08-81.9 9.26-122.1-.61-11-2.69-13.1 14.11-3 16.58 38.1 9.35 76.6 3.72 115.2 1.7 37.3-1.95 79.2-.11 107.4 27.78 28.1 27.76 24.7 67.25-5.9 91.31-16.4 12.86-35.6 18.6-55.7 20.91-13.3.14-26.7.7-39.9 1.17-6.3-.2-12.5-.48-18.7-.77-2.1-.1-3.7.44-4.8 1.37-52.2.71-104.4 1.43-156.7 2.15-11 .15-9 17.36 1.2 17.22 60-.83 120-2.17 180-2.81 9.5.29 19.1.3 28.6-.19 8.3-.05 16.7-.16 25-.17 28-.05 61.8 1.04 82.9 22.19 21.2 21.24 19.3 57.58 2.1 80.68-21.6 29.12-62.3 35.97-95.5 26.56-10.9-3.08-13 13.76-3.1 16.58 32.8 9.27 70.3 5.06 97.3-16.78 24.8-20.03 36-53.38 28.9-84.43-7.4-32.79-35.9-52.33-67.5-58.42-2.9-.56-5.9-.93-8.8-1.37 23.5-12.59 43.6-34.83 46.7-61.99 3.5-30.86-14.4-58.98-38.8-76.37-3-2.15-6.2-4.04-9.4-5.81 16.4-1.89 32.3-6.08 45.8-15.67 18.8-13.27 32.1-35.28 27.7-58.8-5.1-27.74-29.1-45.12-54.2-54.12 24.8-9.66 48.2-24.26 55.1-51.56 7.4-28.72-10.2-58.35-34.1-73.43-28.4-17.93-63.4-16.35-95.3-12.03-18.2 2.47-38.2 5.48-54.7-4.62-14.7-8.95-23.4-24.64-24.1-41.68-.4-10.6-16.8-11.75-16.4-.31"
          transform="matrix(.13333 0 0 -.13333 0 2080)"/>
    <path style="fill:#1f1d2b;fill-opacity:1;fill-rule:nonzero;stroke:none"
          d="M15213.9 7090.1s-497.5 369.43-608.9 1109.12c0 0 548.7 307.93 854.7 32.25 38.9-35.08 65.6-81.96 76.5-133.23 10.3-48.87 50.5-90.82 91.6-125.45 53.1-44.71 114.4-90.52 128.2-158.52 15.1-74.2-32.2-153.95-5.4-224.76 18.8-49.45 69.2-79.68 119.4-96.28 50.3-16.59 103.7-23.57 151.7-46 91.5-42.84 152-144.35 146.3-245.23-3-52.88-21.4-110.72 6.8-155.56 14.1-22.35 37.4-36.82 59.4-51.35 22-14.53 44.6-31.05 55.1-55.2 10.7-24.15 4.3-57.75-20-68.34-55.6 72.83-164.6 82.74-255.2 69.39-90.8-13.34-176-51.45-266-68.64-210.6-40.2-402.1 49-534.2 217.8"
          transform="matrix(.16135 0 0 -.16135 0 2080)"/>
    <path style="fill:#1f1d2b;fill-opacity:1;fill-rule:nonzero;stroke:none"
          d="M15209.8 2204.6s98-73.6 98-219.7 54.5-655.1 54.5-655.1-110.5-35.6-167.5-21.4l7.3 217.9s-265.6-363.8-982-278.3l-28.5 57.1 322.4 293.6 695.8 605.9"
          transform="matrix(.13333 0 0 -.13333 0 2080)"/>
    <path style="fill:#f67b5e;fill-opacity:1;fill-rule:nonzero;stroke:none"
          d="M16043.1 4351.4h-466.7s219.1-637.2-416.5-1869.9c-53.2-103.1-49.6-176.5 49.9-276.9 0 0 66.9-661.7-695.8-605.9 0 0 204.9 397.1 237.8 856.7 55.6 777.7-49.3 1841.2-59 2238.5-15.3 632 1230.5 539.3 1230.5 539.3l119.8-881.8"
          transform="matrix(.13333 0 0 -.13333 0 2080)"/>
    <path style="fill:#666363;fill-opacity:1;fill-rule:nonzero;stroke:none"
          d="M16300 6668.72V3315.94h-720.4v3589.15h484.1c130.5 0 236.3-105.86 236.3-236.37"
          transform="matrix(.15794 0 0 -.15794 0 2080)"/>
    <path style="fill:#1f1d2b;fill-opacity:1;fill-rule:nonzero;stroke:none"
          d="M16300 6507.41V3570.79c0-184.87-149.9-334.73-334.8-334.73h-57.9v3272.01c0 127.37-103.2 230.68-230.6 230.68h-162l-320.2 103.4h770.7c184.9 0 334.8-149.86 334.8-334.74"
          transform="matrix(.16184 0 0 -.16184 0 2080)"/>
    <path style="fill:#7b7878;fill-opacity:1;fill-rule:nonzero;stroke:none"
          d="m16300 2862.48-145.8-1725.68h-337.5v1725.68h483.3" transform="matrix(.13703 0 0 -.13703 0 2080)"/>
    <path style="fill:#1f1d2b;fill-opacity:1;fill-rule:nonzero;stroke:none"
          d="m16300 3425.7-48.3-571.71h-481.9v571.71h530.2" transform="matrix(.13744 0 0 -.13744 0 2080)"/>
    <path style="fill:#7b7878;fill-opacity:1;fill-rule:nonzero;stroke:none"
          d="m15866.5 2567.35 130.8-1547.76h302.7v1547.76h-433.5" transform="matrix(.15278 0 0 -.15278 0 2080)"/>
    <path style="fill:#1f1d2b;fill-opacity:1;fill-rule:nonzero;stroke:none"
          d="m15823.1 3081.64 43.4-514.29h433.5v514.29h-476.9" transform="matrix(.15278 0 0 -.15278 0 2080)"/>
    <path style="fill:#7b7878;fill-opacity:1;fill-rule:nonzero;stroke:none"
          d="M16087.6 3870.45H13738v-872.72h2349.6c117.3 0 212.4 95.16 212.4 212.49v447.73c0 117.33-95.1 212.5-212.4 212.5"
          transform="matrix(.15706 0 0 -.15706 0 2080)"/>
    <path style="fill:#1f1d2b;fill-opacity:1;fill-rule:nonzero;stroke:none"
          d="M15669.3 2067.9s98.1-73.6 98.1-219.7c0-146.2 54.4-655.1 54.4-655.1s-110.4-35.7-167.5-21.4l7.3 217.9s-265.5-363.8-982-278.3l-28.5 57 322.5 293.7 695.7 605.9"
          transform="matrix(.13333 0 0 -.13333 0 2080)"/>
    <path style="fill:#ef8e6b;fill-opacity:1;fill-rule:nonzero;stroke:none"
          d="M16300 4162.96h-461s216.4-629.38-411.4-1846.95c-52.5-101.83-48.9-174.33 49.3-273.5 0 0 66.1-653.57-687.1-598.46 0 0 202.3 392.13 234.8 846.18 55 768.16-48.7 1818.6-58.2 2211.02-15.2 624.24 1215.4 532.68 1215.4 532.68l118.2-870.97"
          transform="matrix(.135 0 0 -.135 0 2080)"/>
    <path style="fill:#1f1d2b;fill-opacity:1;fill-rule:nonzero;stroke:none"
          d="M13142.3 4432.5c-367.6 21.44 682.7 349.03 1048.3 391.64 365.7 42.62 765.3 6.65 1122 97.68l725.4-448.35s194.2-43.22 228.1-258.88c33.9-215.65 9.3-449.81-358.3-628.47-367.7-178.66-1643.7 56.88-1643.7 56.88s-444.4 750-1121.8 789.5"
          transform="matrix(.15426 0 0 -.15426 0 2080)"/>
    <path style="fill:#fba223;fill-opacity:1;fill-rule:nonzero;stroke:none"
          d="M15228.9 5029.39s-193.6-169.12-149.6-339.16c73.4-283.42 482.8-612.34 1171.5-479.61 0 0 49.2 719.1 43.1 925.91-6.2 206.82-1065-107.14-1065-107.14"
          transform="matrix(.1544 0 0 -.1544 0 2080)"/>
    <path style="fill:#1f1d2b;fill-opacity:1;fill-rule:nonzero;stroke:none"
          d="M15577.3 7549.44c150.7-108.36 334.2-171.91 519.8-179.37 78.7 83.23 133.1 190.41 163.6 300.89 30.3 110.48 39.3 225.96 37.9 340.56-4.1 342.78-103.8 687.21-280.4 981.08-115.4-61.69-231.2-142.57-278.1-264.68-41.8-29.67-34.9-85.3-34-136.55.9-51.25 1.1-109.27-35.9-144.74-29.8-28.59-74.4-33-113.7-45.94-91.4-30.2-161.1-117.56-170.4-213.43-4.1-43.27 3.1-86.76 4-130.22.9-43.46-5.4-89.53-32.5-123.57-16.5-20.75-39.4-35.32-59.5-52.54-60.2-51.51-96.8-129.78-97.5-209.06 102.6-100.85 233.8-139 376.7-122.43"
          transform="matrix(.14711 0 0 -.14711 0 2080)"/>
    <path style="fill:#fba223;fill-opacity:1;fill-rule:nonzero;stroke:none"
          d="m15218.6 6598.65 238 635.51s697.5-353.55 843.4-465.73l-114-812.18s-807.5 442.03-967.4 642.4"
          transform="matrix(.1398 0 0 -.1398 0 2080)"/>
    <path style="fill:#fba223;fill-opacity:1;fill-rule:nonzero;stroke:none"
          d="M16233.3 7599.72s-242-122.07-433.7-462.3-408.2-1072.39-403-1403.42c5.2-331.03 386.8-463.56 386.8-463.56l213 392.8 162.6 990.81 118.2 585.02 22.8 216.96-66.7 143.69"
          transform="matrix(.14627 0 0 -.14627 0 2080)"/>
    <path style="fill:#8c8e45;fill-opacity:1;fill-rule:nonzero;stroke:none"
          d="m16300 7261.27-537.5-44.62s-109.8-145.58-202.6-445.12c-92.8-299.56-328.7-1360.79-328.7-1360.79l127.6-412.76 171.6 10.06 157.1 231.06 358.1 430.6 140.3 641.95 114.1 607.53v342.09"
          transform="matrix(.1502 0 0 -.1502 0 2080)"/>
    <path style="fill:#ef8e6b;fill-opacity:1;fill-rule:nonzero;stroke:none"
          d="M16297.8 7956.8c-2.9-41.09-17.9-81.75-44.6-113.06-26.6-31.41-75.2-69.8-116.4-69.8l-10.4-451.99-163.8-281.87c-288.1-126.5-472.6 51.82-472.6 51.82v232.14s-265.4 22.86-288.2 319.3c0 .35-.1.79-.1 1.14-4.9 64.82-9.4 135.31-11.3 206.76-7.2 255.26 17.6 523.62 164.8 596.37-1.8-61.68 38.5-110.27 90.5-143.6 52-33.32 113.7-47.45 174.2-60.28 60.4-12.74 122.2-25.12 175.9-55.57 86-48.59 143.5-143.86 146.4-242.53 29.1 0 53.6 2.01 82.6 2.01 3.5 59.67 39.9 117.33 94.3 142.11 54.3 24.78 126.7 8.46 158.9-41.96 17-26.61 22-59.5 19.8-90.99"
          transform="matrix(.15283 0 0 -.15283 0 2080)"/>
    <path style="fill:#1f1d2b;fill-opacity:1;fill-rule:nonzero;stroke:none"
          d="M16287 8527.03c-6 4.58-13.8 6.42-21 4.83-2.1.59-4.3.84-6.7.25-10.9-2.65-12.5-16.62-13.6-25.94-.9-6.37-1.3-12.78-1.4-19.2-.1-6.81-.2-14.37 2-20.86 3.7-10.56 12.3-18.25 23.7-19.09 9.4-.7 18.5 5.08 22.8 13.25 4 7.36 5.3 15.68 5.9 23.93 1.1 15.04 1.3 32.76-11.7 42.83"
          transform="matrix(.14333 0 0 -.14333 0 2080)"/>
    <path style="fill:#1f1d2b;fill-opacity:1;fill-rule:nonzero;stroke:none"
          d="M16287.3 8313.33c-5.9 4.47-13.6 6.27-20.5 4.71-2.1.59-4.3.82-6.7.26-10.6-2.6-12.2-16.27-13.4-25.39-.7-6.24-1.1-12.5-1.2-18.79-.1-6.67-.2-14.07 2-20.42 3.6-10.34 12-17.86 23.2-18.68 9.2-.68 17.9 4.97 22.3 12.97 3.9 7.2 5.2 15.35 5.7 23.42 1.1 14.72 1.3 32.05-11.4 41.92"
          transform="matrix(.14646 0 0 -.14646 0 2080)"/>
    <path style="fill:#f67b5e;fill-opacity:1;fill-rule:nonzero;stroke:none"
          d="M16270.1 8009.66c2.8 1.48 5.6 2.89 8.5 4.2.5.2 2.2.96 2.7 1.19 1.1.43 2.1.86 3.2 1.27 8.7 3.31 15.5 12.08 12.4 21.79-2.7 8.27-12.6 16.08-21.8 12.37-26-10.51-49.7-25.67-68.9-46.36-9.3-10.06-17.8-21.13-24.6-33.07-3.1-5.49-5.9-11.15-8.4-16.94-1.5-3.63-2.9-7.31-4-11.12-.4-1.79-.8-3.56-1-5.39-.3-1.46-.5-2.94-.7-4.41.7-3.83.7-4.81.4-2.96.8-10.03 13-16.83 20.8-8.65 8.7 9.05 13.3 21.32 20.1 31.73 1.8 2.63 3.6 5.21 5.4 7.76.8 1.07 1.6 2.12 2.4 3.18.3.42.6.84.9 1.25.1.11.1.1.3.35 3.7 4.59 7.6 8.97 11.7 13.18 2.1-2.42 4.2-4.8 6.2-7.2 4.1-4.79 8.1-9.6 12.1-14.55 2.5-3.47 5-7.05 8-10.18 2.5-2.73 6.2-4.23 9.8-4.72 4-.53 7.2.26 10.9 2.04.5.21 3.2 2.34 3.5 2.68 5.3 5.57 6.6 14.09 2.7 20.8-2.8 4.8-6.8 9.14-10.5 13.33-2.9 3.33-5.8 6.59-8.9 9.74-3.1 3.06-6.3 5.89-9.6 8.69.6.36 1.1.75 1.6 1.11 4.7 3.21 9.7 6.19 14.8 8.89"
          transform="matrix(.1522 0 0 -.1522 0 2080)"/>
    <path style="fill:#f67b5e;fill-opacity:1;fill-rule:nonzero;stroke:none"
          d="M16300 7646.13s-46.4-289.84-426.4-265.25v124.53s294.2-37.73 426.4 140.72"
          transform="matrix(.14914 0 0 -.14914 0 2080)"/>
    <path style="fill:#fba223;fill-opacity:1;fill-rule:nonzero;stroke:none"
          d="m15414.3 6998.65-156.5-269.43s-245.7-476.58-388.4-1475.25l-194.3-24.66s37.8-436.05 103.1-500.44c0 0 705.4-164.94 1113.6 174.63 408.2 339.57 400.3 1251.06 360.7 1425.43-39.6 174.38-665.8 673.65-838.2 669.72"
          transform="matrix(.1599 0 0 -.1599 0 2080)"/>
    <path style="fill:#fb8c2b;fill-opacity:1;fill-rule:nonzero;stroke:none"
          d="M16285.9 5591.31c-16.6 1.01-33 2.24-49.6 1.61-17.9-.68-35.8-2.61-53.6-4.31-33.1-3.15-66.1-7.14-99-11.22-31.6-3.9-63-7.96-94.5-12.21 12.4 34.24 21.7 70.14 32.2 104.62 14.2 46.28 28.1 92.62 41.8 139.02 27.4 92.8 53.5 185.96 78.7 279.4 6.9 25.73 13.7 51.49 20.4 77.29 6.9 27.17 11.4 53.75 15 81.54 1.5 12.16-16.1 12.35-19.8 2.69-8.9-22.47-17-44.45-23.3-67.79-6.1-23.04-12.2-46.07-18.4-69.1-12.3-46.07-24.7-92.09-37.5-138.03-25.6-92.57-51.8-184.99-79.1-277.05-7.7-25.53-15.3-51.06-23-76.56-6-19.96-12.9-40-17.9-60.33-23.9-3.35-47.9-6.8-71.7-10.47a5211.84 5211.84 0 0 1-394.8-76.38c-36.3-8.5-72.6-17.39-108.7-26.76-37.3-9.68-75.5-18.39-111.7-31.71-13.4-4.92-8.2-23.97 5.9-21.31 33.8 6.41 67.2 16.41 100.7 24.77 32.1 8.04 64.5 15.81 96.8 23.33 64.6 15.03 129.5 28.85 194.7 41.44 95.4 18.44 191.4 34.82 287.7 47.92 5.2-5.99 14.9-7.84 19 1.24.2.44.4.9.6 1.35 28.7 3.77 57.5 7.3 86.2 10.43 37.1 4.04 74.2 7.5 111.3 10.95 19.3 1.78 38.7 3.12 57.9 5.62 19.1 2.49 37.5 6.4 56.4 10.47 11.4 2.47 8.1 18.88-2.7 19.54"
          transform="matrix(.15556 0 0 -.15556 0 2080)"/>
    <path style="fill:#fb8c2b;fill-opacity:1;fill-rule:nonzero;stroke:none"
          d="M16283.5 4973.7c-33.1-2.99-65.3-15.02-97.4-23.28-33.2-8.56-66.5-16.34-100.1-23.38-66.3-13.92-133.3-25.03-200.7-32.93-134.7-15.82-271.1-19.94-406.5-11.97-72.7 4.29-144.3 14.02-216.4 23.55-4.7 19.49-9.3 38.98-14.1 58.47-3.7 15.82-26.8 8.93-24-6.63 4.1-22.94 8-45.86 12.1-68.8.8-4.61 5.7-9.33 10.2-10.21 67-13.06 136.1-19.46 204-24.59 68.4-5.17 137-7.19 205.5-6.32 137.8 1.75 275.5 16.73 410.7 43.33 37.6 7.4 74.9 15.78 112.1 25.09 36.8 9.23 77.3 16.43 110.8 34.72 10.3 5.6 6.2 24.07-6.2 22.95"
          transform="matrix(.15477 0 0 -.15477 0 2080)"/>
    <path style="fill:#f67b5e;fill-opacity:1;fill-rule:nonzero;stroke:none"
          d="M16171.3 8269.3c16 27.46 37.7 50.24 50.8 79.55 13.1 29.13 21 60.22 23.2 92.07 2.5 35.73-2.3 70.86-13.8 104.75-8.9 26.1 35.9 34.14 44.4 9.2 24.1-70.57 20.2-150.73-10.2-218.79-7.7-17.26-16.9-34.01-27.8-49.5-10.2-14.66-22.9-28.35-30.6-44.61-6.4-13.73-8-29.65 1.6-42.45 9.2-12.33 24.9-15.14 38.5-8.78 24.7 11.61 48.5-24.01 21.6-36.6-32.6-15.29-72.8-8.33-95.8 20.2-23.3 28.89-19.6 64.39-1.9 94.96"
          transform="matrix(.145 0 0 -.145 0 2080)"/>
    <path style="fill:#f67b5e;fill-opacity:1;fill-rule:nonzero;stroke:none"
          d="M16259.1 8018.26c-36.1-78.3-103.7-139.92-185.9-166.79-22-7.18-10.4-37.76 10.8-30.85 90.2 29.47 166.9 96.22 206.7 182.54 9.3 20.24-22.9 33.91-31.6 15.1"
          transform="matrix(.14786 0 0 -.14786 0 2080)"/>
    <path style="fill:#1f1d2b;fill-opacity:1;fill-rule:nonzero;stroke:none"
          d="M16132.4 8625.24c2.6-17.13 41.7-25.38 87.2-18.44 45.5 6.95 80.4 26.47 77.8 43.61-2.7 17.13-41.7 25.39-87.2 18.44-45.5-6.95-80.4-26.47-77.8-43.61"
          transform="matrix(.14386 0 0 -.14386 0 2080)"/>
    <path style="fill:#1f1d2b;fill-opacity:1;fill-rule:nonzero;stroke:none"
          d="M16142.8 8420.72c-6.3-15.66 22.3-42.03 64-58.86 41.7-16.84 80.5-17.78 86.9-2.1 6.3 15.67-22.4 42.02-63.9 58.86-41.7 16.84-80.7 17.78-87 2.1"
          transform="matrix(.14749 0 0 -.14749 0 2080)"/>
    <path style="fill:#7b7878;fill-opacity:1;fill-rule:nonzero;stroke:none"
          d="m16232 5165.22-887.5-123.62c-40.2-5.55-77.2 22.39-82.8 62.56L15086 6365.84c-5.6 40.1 22.3 77.14 62.5 82.72l887.5 123.62c40.1 5.58 77.2-22.39 82.7-62.5L16294.5 5248c5.5-40.16-22.4-77.14-62.5-82.78"
          transform="matrix(.14173 0 0 -.14173 0 2080)"/>
    <path style="fill:#1f1d2b;fill-opacity:1;fill-rule:nonzero;stroke:none"
          d="m16300 6666.89-501.1-69.8-16.9 120.58 501.2 69.8 16.8-120.58"
          transform="matrix(.13777 0 0 -.13777 0 2080)"/>
    <path style="fill:#1f1d2b;fill-opacity:1;fill-rule:nonzero;stroke:none"
          d="m16300 6780.79-274.4-38.22-8.3 59.94c-4.8 34.01 18.9 65.41 52.9 70.15l151.3 21.07c33.9 4.73 65.3-19 70.1-53l8.4-59.94"
          transform="matrix(.13671 0 0 -.13671 0 2080)"/>
    <path style="fill:#ef8e6b;fill-opacity:1;fill-rule:nonzero;stroke:none"
          d="m16300 5341.37-64.6 396.13c-191.7-21.59-470.7-64.78-658-111.16-14.2-3.51-31.4-10.49-32.1-25.09-.5-8.55 5.5-16.39 13-20.57 7.5-4.19 16.2-5.45 24.7-6.63-67.7-37.05-130.8-78.44-196-119.77-16.7-10.55-35.5-26.06-31.8-45.44 2.7-14.42 17.8-23.79 32.5-24.78 14.5-1 28.7 4.4 42.4 9.73-15.7-11.03-25.3-25.43-33.7-42.72-3.1-6.4-5.6-13.64-3.8-20.49 2.7-9.78 13.1-15.13 22.9-17.88 21.4-6.03 44.6-5.15 65.5 2.27-8.9-6.4-14.9-21.32-11.9-30.73 3.8-12.07 16.1-19.81 28.7-21.9 12.4-2.09 25.2.4 37.6 2.78 14.8 2.84 29.6 5.43 44.5 8-2.9-5.4-3.1-11.76 1.3-19.11 6.4-11.05 21.7-12.34 34.6-11.77 18.8.84 37.6 2.93 56.3 5.01 52.6 5.82 105.1 11.64 157.5 17.46 63.5 7.03 126.8 14.06 190.2 21.8 62.2 7.59 125.6 16.5 181.7 44.05 4.7 1.07 93.7 9.62 98.5 10.81"
          transform="matrix(.14457 0 0 -.14457 0 2080)"/>
    <path style="fill:#f67b5e;fill-opacity:1;fill-rule:nonzero;stroke:none"
          d="M16285.9 5767.24c-51.3.11-102.1-7.57-152.9-14.67-25.2-3.52-50.3-7.48-75.4-11.62-25.7-4.25-51.8-8.02-76.6-16.24-9.6-3.16-8.4-18.47 2.5-18.18 24.8.67 49.4 5.2 74 8.79 26.4 3.83 52.7 7.44 79.1 10.93 50.8 6.73 101.7 11 152 21.07 11.4 2.28 8.5 19.9-2.7 19.92"
          transform="matrix(.14098 0 0 -.14098 0 2080)"/>
    <path style="fill:#f67b5e;fill-opacity:1;fill-rule:nonzero;stroke:none"
          d="M16285.8 5684.95c-29.5 1.06-58.1-5.11-86.8-11.13-29.6-6.21-59-13.68-88.1-22.1-28.4-8.22-56.4-17.42-84.1-27.94-27.6-10.53-56.1-21.11-81.3-36.84-8.9-5.52-3.3-19.92 7.1-17.05 28.4 7.81 55.5 19.57 83.4 29.04 27.2 9.29 54.7 17.98 82.4 25.72 27.8 7.73 55.7 14.47 84 20.36 28.9 6.04 58.1 9.77 86.3 18.98 11.3 3.74 9.3 20.52-2.9 20.96"
          transform="matrix(.13983 0 0 -.13983 0 2080)"/>
    <path style="fill:#f67b5e;fill-opacity:1;fill-rule:nonzero;stroke:none"
          d="M16285.7 5576.13c-55 1.32-110.3-12.09-163.4-25.52-26.6-6.71-53-14.32-79.1-22.8-25.4-8.25-54.9-16.14-76.9-31.6-10.4-7.29-3.7-21.36 8.2-19.67 25.9 3.67 51.6 15.64 76.3 23.59 26.2 8.38 52.6 15.88 79.2 22.51 52.4 13.05 106.3 19.32 158.5 33.01 11.5 3.02 8.8 20.19-2.8 20.48"
          transform="matrix(.14015 0 0 -.14015 0 2080)"/>
    <path style="fill:#f67b5e;fill-opacity:1;fill-rule:nonzero;stroke:none"
          d="M16288 5490.94c-19.1 3.26-41.8-3.34-60.9-6.37-20.9-3.34-41.8-7.26-62.8-10.9-21-3.62-41.9-8.08-62.6-12.85-20.5-4.71-42.1-8.73-61.9-15.99-16.3-6-9.9-29.04 7.2-25.98 20.9 3.73 41.4 10.39 62 15.27 19.9 4.72 40.1 8.99 60.1 13.35 20.1 4.36 40.3 7.77 60.6 10.96 19.6 3.07 43 2.69 61.2 10.74 9.1 4.03 6.9 20.11-2.9 21.77"
          transform="matrix(.14037 0 0 -.14037 0 2080)"/>
    <path style="fill:#1f1d2b;fill-opacity:1;fill-rule:nonzero;stroke:none"
          d="M14317.3 4651.45s-402.6-19.64-448.4-438.36c-45.8-418.72-85-2139.59-85-2139.59s340.3-215.87 824.4 0c0 0 307.5 1118.86 157.1 1747.03l1534.6-82.15s-867.1 737.12-955.5 743.27c-88.5 6.24-1027.2 169.8-1027.2 169.8"
          transform="matrix(.14527 0 0 -.14527 0 2080)"/>
    <path style="fill:#1f1d2b;fill-opacity:1;fill-rule:nonzero;stroke:none"
          d="M15242.9 5248.7s-710-131-653-829.6c57.1-698.6-3.2-1939-3.2-1939s263.6-178.2 529.1-42.8c265.4 135.5 111.4 2017.5 120.7 2031.7 9.3 14.3 501.6 574.7 501.6 574.7l-495.2 205"
          transform="matrix(.13333 0 0 -.13333 0 2080)"/>
    <path style="fill:#b9b4b4;fill-opacity:1;fill-rule:nonzero;stroke:none"
          d="M8526.98 3460.3c37.98 10.7 531.8 420.8 1395.99 39.3 864.23-381.5 842.73-2367.5 842.73-2367.5H8802.37l-275.39 2328.2"
          transform="matrix(.13333 0 0 -.13333 0 2080)"/>
    <path style="fill:#1f1d2b;fill-opacity:1;fill-rule:nonzero;stroke:none"
          d="M9623.27 1771.8s-98.04-73.6-98.04-219.7c0-146.2-54.49-655.1-54.49-655.1s110.49-35.699 167.52-21.398l-7.28 217.798s265.54-363.798 982.02-278.201l28.5 57L10319 1165.9l-695.73 605.9"
          transform="matrix(.13333 0 0 -.13333 0 2080)"/>
    <path style="fill:#ef8e6b;fill-opacity:1;fill-rule:nonzero;stroke:none"
          d="M9673.2 2048.7c53.17-103.1 49.59-176.5-49.93-276.9 0 0-66.93-661.7 695.73-605.9 0 0-258.4 400.4-291.3 860.1l-354.5 22.7"
          transform="matrix(.13333 0 0 -.13333 0 2080)"/>
    <path style="fill:#1f1d2b;fill-opacity:1;fill-rule:nonzero;stroke:none"
          d="M10892.3 1755.6s-34.1-117.7 53.7-234.5c87.9-116.8 350.3-556.299 350.3-556.299s109.7 37.999 146.7 83.599l-136.8 169.8s430.9-131.1 952 367.9l-11.5 62.7-434.2 40.9-920.2 65.9"
          transform="matrix(.13333 0 0 -.13333 0 2080)"/>
    <path style="fill:#ef8e6b;fill-opacity:1;fill-rule:nonzero;stroke:none"
          d="M10765.7 2006.9c104.5-50.4 145.7-111.2 126.6-251.3 0 0 344.3-569 920.2-65.9 0 0-447.2 164.6-749.8 512.2l-297-195"
          transform="matrix(.13333 0 0 -.13333 0 2080)"/>
    <path style="fill:#7b7878;fill-opacity:1;fill-rule:nonzero;stroke:none"
          d="M5463.66 3263.4s-360.13 285.1-506.2 449c-146.07 164 124.98 417 124.98 417s691.32-431.2 705.58-433c14.26-1.8-324.36-433-324.36-433"
          transform="matrix(.13333 0 0 -.13333 0 2080)"/>
    <path style="fill:#1f1d2b;fill-opacity:1;fill-rule:nonzero;stroke:none"
          d="M11275.3 2221.3S9719.86 4388 9485.46 4494.2c-168.39 76.3-2290.3 687-2290.3 687l-653.53-336s-111.26-834.2-115.73-865.1c-4.46-30.9 185.99-432.6 185.99-432.6s531.1-630.8 2629.47 38.6c0 0 797.64-1077.2 1320.84-1807.4l713.1 442.6"
          transform="matrix(.13333 0 0 -.13333 0 2080)"/>
    <path style="fill:#1f1d2b;fill-opacity:1;fill-rule:nonzero;stroke:none"
          d="M6439.52 3822.1s206.6-925 2338.09-370.1c0 0 137.88-1335.5 743.82-1977.1l640.27 179.4s-703.79 2469-961.06 2475.1c-257.27 6.2-2090.39 1292.4-2090.39 1292.4l-670.73-300.1s-156.2-826.9-162.32-857.6c-6.13-30.6 162.32-442 162.32-442"
          transform="matrix(.13333 0 0 -.13333 0 2080)"/>
    <path style="fill:#8c8e45;fill-opacity:1;fill-rule:nonzero;stroke:none"
          d="M5219.54 6816.39c-318.52-44.92-542.65.08-899.92-161.35-453.27-188.64-207.76-1456.74 836.62-1952.94 1044.39-496.2 1283.28-880 1283.28-880s-39.82 1017.8 670.73 1599.7c0 0-743.22 336.94-1274.08 945.4 0 0-298.11 494.11-616.63 449.19"
          transform="matrix(.13333 0 0 -.13333 0 2080)"/>
    <path style="fill:#5f5c31;fill-opacity:1;fill-rule:nonzero;stroke:none"
          d="M5224.08 5062.4s-557.31 295.8-790.35 450.7c0 0 556.99-473 934.25-546.3l-143.9 95.6"
          transform="matrix(.13333 0 0 -.13333 0 2080)"/>
    <path style="fill:#aaa5a5;fill-opacity:1;fill-rule:nonzero;stroke:none"
          d="M5211.87 3412.7s601.22 880.7 105.65 1149.2C3859.75 5351.7 3361.7 8503.92 3044.05 8541.59c-192.98 22.88-473.93-7.14-664.75-34.24-113.93-16.18-185.85-130.86-151.24-240.61 165.61-525.08 1022.22-4256.14 2983.81-4854.04"
          transform="matrix(.13333 0 0 -.13333 0 2080)"/>
    <path style="fill:#7b7878;fill-opacity:1;fill-rule:nonzero;stroke:none"
          d="m8611.12 4110.1 347.74-2978H6189.01c-428.45 0-775.78 347.3-775.78 775.8v3158.2c18.13 95.6 108.96 159.3 204.97 143.9 444.88-71.6 1646.58-261.1 2357.91-335.3 885.34-92.4 650.6-709.4 650.6-709.4l-15.59-55.2"
          transform="matrix(.13333 0 0 -.13333 0 2080)"/>
    <path style="fill:#b9b4b4;fill-opacity:1;fill-rule:nonzero;stroke:none"
          d="m8318.84 4110.1 347.75-2978H5896.73c-428.45 0-775.78 347.3-775.78 775.8v3158.2c18.14 95.6 108.97 159.3 204.98 143.9 444.88-71.6 1646.57-261.1 2357.9-335.3 885.34-92.4 646.05-728.1 646.05-728.1l-11.04-36.5"
          transform="matrix(.13333 0 0 -.13333 0 2080)"/>
    <path style="fill:#ef8e6b;fill-opacity:1;fill-rule:nonzero;stroke:none"
          d="m4603.88 5405.8 407.46-270.9c63.26-42.1 134.05-71.5 208.49-86.7l1549.16-315.7s177.91-226.3 481.13-249.7c0 0 112.38-92.9 95.97-201.4-16.42-108.6-3.88-212.9-3.88-212.9s79.28-87.1 256.24 5.7c0 0 125.61 286.8 50.63 400.3l56.81-277.3c6.05-29.5 39.01-46.5 65.37-31.9 6.52 3.6 11.2 7.8 12.11 12.8 24.95 136.6-70.83 343-247.65 472.9 0 0-745.93 434.6-1081.36 542.5-335.44 107.8-1035.72 273.8-1523.45 663.04 0 0-356.88-268.64-327.03-450.74"
          transform="matrix(.13333 0 0 -.13333 0 2080)"/>
    <path style="fill:#f67b5e;fill-opacity:1;fill-rule:nonzero;stroke:none"
          d="M7542.05 4049.6c.4-1.5 1.7-2.8 3.41-3.1 2.33-.4 4.57 1.1 4.98 3.5l58.78 330.2c.41 2.4-1.14 4.6-3.48 5-2.33.4-4.56-1.1-4.98-3.5l-58.78-330.2c-.11-.7-.08-1.3.07-1.9M7449.42 4030.5c.43-1.7 1.85-3 3.67-3.2 2.36-.3 4.49 1.4 4.76 3.7l37.97 329.9c.27 2.3-1.42 4.5-3.77 4.7-2.36.3-4.49-1.4-4.76-3.7l-37.97-329.9c-.07-.5-.03-1.1.1-1.5M7595.57 4565.1c.13-.5.37-1 .71-1.5 28.29-38 48.58-90.1 48.79-90.6.85-2.2 3.34-3.3 5.55-2.5 2.22.9 3.32 3.4 2.46 5.6-.84 2.1-20.92 53.7-49.9 92.7a4.223 4.223 0 0 1-6.02.8c-1.44-1-2.01-2.8-1.59-4.5"
          transform="matrix(.13333 0 0 -.13333 0 2080)"/>
    <path style="fill:#381819;fill-opacity:1;fill-rule:nonzero;stroke:none"
          d="M5404.74 7148.73c81.89 1.4 156.48 79.33 161 168.23 3.72 73.15-33.89 146.37-17.38 217.41 14.42 62.07 65.86 104.29 98.61 157.5 68.78 111.75 49.09 263.2-.4 386.43-64.67 161.03-176.03 299.46-314.22 390.61-138.18 91.15-302.56 134.6-463.82 122.6-55.14 3.16-98.95-17.15-154.09-13.99-182.16 10.45-380.42 16.02-528.03-100.47-92.33-72.86-153.74-190.23-164.15-313.73-9.17-108.68 19.17-216.55 27.53-325.3 8.75-113.68-4.4-227.79-11.99-341.57-7.6-113.77-9.38-230.31 21.15-339.46 30.52-109.14 98.03-211.08 195.3-253.87 92.36-40.64 197.65-23.55 292.95 8.04 95.31 31.6 187.39 77.17 285.93 93.2 107.81 17.55 218.14-1.17 326.54 11.4 108.39 12.56 206.33 22.21 245.07 132.97"
          transform="matrix(.13333 0 0 -.13333 0 2080)"/>
    <path style="fill:#ef8e6b;fill-opacity:1;fill-rule:nonzero;stroke:none"
          d="M5077.86 8302.48s308.06-127.55 362.93-529.58c4.75-34.83 9.14-68.51 13-101.09 7.67-64.31 13.21-124.25 15.26-179.92 8.93-241.44-47.86-402.58-284.94-493.49l31.28-192.17s35.74-156.19-290.07-188.12c-325.79-31.88-362.19 77.03-362.19 77.03l-100.41 673.61s-158.16-30.92-170.46 145.56c-12.29 176.49 173.16 191.39 203.9 161.18 0 0 393.44 244.87 473.42 640.69 0 0 84.44-1.98 108.28-13.7"
          transform="matrix(.13333 0 0 -.13333 0 2080)"/>
    <path style="fill:#040404;fill-opacity:1;fill-rule:nonzero;stroke:none"
          d="M4886.78 7668c5.1-31.32 34.63-52.58 65.95-47.48 31.31 5.1 52.57 34.62 47.47 65.94-5.1 31.32-34.62 52.58-65.94 47.48-31.32-5.1-52.57-34.62-47.48-65.94M5283.4 7754.94c5.1-31.32 34.62-52.57 65.94-47.47 31.32 5.09 52.58 34.62 47.48 65.94-5.1 31.32-34.62 52.57-65.94 47.47-31.32-5.1-52.58-34.62-47.48-65.94"
          transform="matrix(.13333 0 0 -.13333 0 2080)"/>
    <path style="fill:#000;fill-opacity:1;fill-rule:nonzero;stroke:none"
          d="M5215.31 7278.42c-5.13-38.88-24.88-113.25-100.49-141.11-59.13 114.93-186.49 157.22-237.62 170.4.58 16.47 2.39 31.85 4.48 44.91 0 0 223.88-98.95 333.63-74.2"
          transform="matrix(.13333 0 0 -.13333 0 2080)"/>
    <path style="fill:#f0f0ef;fill-opacity:1;fill-rule:nonzero;stroke:none"
          d="M5217.14 7302.83s.15-9.62-1.83-24.41c-109.75-24.75-333.63 74.2-333.63 74.2 3.98 24.7 9.09 41.11 9.09 41.11l326.37-90.9"
          transform="matrix(.13333 0 0 -.13333 0 2080)"/>
    <path style="fill:#c04838;fill-opacity:1;fill-rule:nonzero;stroke:none"
          d="M5114.82 7137.31c-23.94-8.81-53.44-12.95-89.89-9.82-128.29 11-150.29 106.67-147.73 180.22 51.13-13.18 178.49-55.47 237.62-170.4"
          transform="matrix(.13333 0 0 -.13333 0 2080)"/>
    <path style="fill:#ef6e58;fill-opacity:1;fill-rule:nonzero;stroke:none"
          d="m4512.11 7478.13-110.53 94.73a4.87 4.87 0 0 1-6.88-.53 4.867 4.867 0 0 1 .53-6.87l56.06-48.04-29.01-35.79a4.897 4.897 0 0 1 .72-6.87 4.85 4.85 0 0 1 3.86-1.02c1.14.19 2.22.77 3 1.74l28.84 35.58 47.06-40.33a4.823 4.823 0 0 1 3.96-1.11c1.1.18 2.14.73 2.92 1.64a4.867 4.867 0 0 1-.53 6.87M5184.1 6998.41s-254.08-76.58-451.78 41.53c0 0 99.17-210.09 469.41-149.81l-17.63 108.28M5108.68 7460.1c15.32-19.98 43.47-28.02 66.58-17.26 11.1 5.18 20.28 14.62 25.83 25.46 6.57 12.84 7.17 26.79 4.36 40.77-3.44 17.12-10.73 33.53-16.8 49.84-6.31 16.95-12.61 33.91-18.92 50.86-12.62 33.92-25.23 67.83-37.85 101.74-14.21 38.21-28.43 76.43-42.64 114.64-3.41 9.16 11.74 14.51 15 5.73 26.93-72.37 53.85-144.75 80.78-217.13 6.68-17.97 13.36-35.94 20.05-53.9 6.41-17.23 13.89-34.58 16.98-52.8 2.68-15.87.86-32.13-6.76-46.42-6.79-12.74-17.3-23.44-30.05-30.22-29.84-15.89-68.97-7.13-89.53 19.69-6.13 8 7.28 16.42 12.97 9"
          transform="matrix(.13333 0 0 -.13333 0 2080)"/>
    <path style="fill:#381819;fill-opacity:1;fill-rule:nonzero;stroke:none"
          d="M5242.18 7987.56c-4.77-18.08 44.75-46.84 110.62-64.23 65.87-17.4 123.13-16.84 127.91 1.24 4.77 18.08-44.75 46.84-110.62 64.24-65.87 17.39-123.13 16.83-127.91-1.25M4723.39 7824.97c8.62-16.6 64.62-4.62 125.09 26.76 60.47 31.37 102.51 70.27 93.89 86.87-8.61 16.6-64.61 4.61-125.08-26.76-60.47-31.38-102.51-70.27-93.9-86.87"
          transform="matrix(.13333 0 0 -.13333 0 2080)"/>
    <path style="fill:#ef8e6b;fill-opacity:1;fill-rule:nonzero;stroke:none"
          d="M6893.77 6396.61c162.62 130.27 927.43 635.21 952.41 674.38 106.12 37.81 217.25 149.31 295.96 229.91 78.7 80.6 142.11 175.1 195.73 274.18 9.49 17.55 18.83 35.64 22.04 55.33 3.22 19.69-.61 41.54-14.56 55.81 20 30.37 28.17 66.87 34.5 102.68 2.46 13.88 2.37 31.14-9.64 38.5-8.27 5.07-19.39 2.98-27.38-2.51-7.98-5.49-11.68-14.72-17.03-22.8 15.96 21.5 25.86 47.46 28.29 74.13.76 8.4.77 17.04-1.96 25.02-2.72 7.98-8.56 15.24-16.54 17.94-14.45 4.9-29.06-5.95-40.48-16.07-14.36-12.73-31.88-26.08-46.24-38.82 10.29 15.71 20.93 32.38 21.97 51.13 1.04 18.75-11.53 39.65-30.28 40.61-11.39.58-21.82-6.01-30.8-13.04-21.32-16.69-39.34-37.18-56.48-58.15-84.68-103.63-154.14-224.01-259.58-306.43.71 45.43-5 90.97-16.9 134.83-3.59 13.2-9.48 28.09-22.55 32.12-14.13 4.36-28.88-7.25-34.56-20.9-5.67-13.65-5.17-28.94-7.14-43.59-8.45-62.81-60.89-109.68-87.27-167.31-28.01-61.2-88.61-121.21-54.94-179.47-37.09-17.41-805.64-488.15-967.48-565.93l190.91-371.55"
          transform="matrix(.13333 0 0 -.13333 0 2080)"/>
    <path style="fill:#f67b5e;fill-opacity:1;fill-rule:nonzero;stroke:none"
          d="M7953.95 7491.95c-4.79 19.18-12.28 37.64-22.29 54.71-4.87 8.3-10.3 16.22-16.49 23.59-5.84 6.97-13.54 16.85-22.88 18.74-6.07 1.23-10.27-3.49-9.34-9.34 1.23-7.81 8.02-14.72 12.32-21.17 5.01-7.51 9.8-15.25 14.04-23.23 8.21-15.43 14.39-32.04 18.56-49.01 4.05-16.5 5.91-33.41 5.73-50.4-.1-8.84-.83-17.61-2.07-26.36-.64-4.47-1.37-8.92-1.94-13.4-.65-5 .34-8.97.81-13.88.62-6.39 9.57-12.56 14.63-6.06 2.92 3.75 6.22 6.67 8.13 11.08 2.07 4.78 3.26 10.04 4.21 15.14 1.85 10.06 2.84 20.39 3.15 30.62.59 19.79-1.77 39.77-6.57 58.97M8240.39 7869.69c-10.61-6.45-16.04-16.56-22.86-26.62-6.99-10.3-13.81-20.7-20.79-31-13.96-20.6-28.83-40.62-43.7-60.57-14.68-19.69-29.59-39.23-44.83-58.49-15.53-19.64-32.16-38.7-46.3-59.4-5.46-7.99 6.35-16.19 12.97-10.01 18.13 16.91 33.79 36.62 49.5 55.74 15.65 19.06 30.99 38.36 45.96 57.96 14.77 19.34 28.95 39.08 43.27 58.74 7.35 10.09 14.82 20.07 21.87 30.36 7.17 10.46 15.98 20.5 17.89 33.31 1.07 7.13-5.77 14.36-12.98 9.98M8325.31 7824.61c-10.98-4.72-16.73-19.16-22.8-28.76-6.63-10.48-13.43-20.86-20.38-31.12-14.31-21.12-28.91-42.08-44.53-62.25-15.19-19.6-31.14-38.65-47.6-57.2-8.23-9.28-16.64-18.39-25.11-27.46-8.86-9.49-19.56-18.51-25.39-30.27-3.84-7.76 3.87-15.39 11.61-11.6 11.36 5.56 19.81 15.82 28.47 24.79 9 9.33 17.74 18.93 26.35 28.61 17.24 19.39 33.76 39.37 49.76 59.79 15.91 20.3 31.53 40.84 46.06 62.16a1163.77 1163.77 0 0 1 20.46 31.08c6.39 10.03 17.14 22.27 16 34.83-.63 6.93-6.7 10.06-12.9 7.4M8334.62 7695.87c-8.36-3.59-12.5-13.68-17.67-20.81a3446.44 3446.44 0 0 0-16.75-22.92c-11.68-15.8-23.48-31.51-35.66-46.94-11.74-14.87-23.65-29.6-35.64-44.28-11.71-14.33-27.18-28.78-34.8-45.81-3-6.72 3.57-15.74 11-11 15.77 10.07 27.38 27.17 39.25 41.36 12.87 15.38 25.48 30.97 37.93 46.69 12.02 15.17 24.05 30.32 35.88 45.64 5.8 7.5 11.58 15.03 17.29 22.6 6.3 8.34 14.36 15.42 15.34 26.2.82 9.04-9.53 12.13-16.17 9.27"
          transform="matrix(.13333 0 0 -.13333 0 2080)"/>
    <path style="fill:#8c8e45;fill-opacity:1;fill-rule:nonzero;stroke:none"
          d="M5340.11 6809.31s406.67-137.53 745.28-112.58l46.34-545.34-153.27-28.52-638.35 686.44"
          transform="matrix(.13333 0 0 -.13333 0 2080)"/>
    <path style="fill:#ef8e6b;fill-opacity:1;fill-rule:nonzero;stroke:none"
          d="m6131.73 6151.39 426.21 60.75a428.911 428.911 0 0 1 194.38 79.68l270.56 199.98-225.81 327.48-301.78-136.81-405.66-35.66 42.1-495.42"
          transform="matrix(.13333 0 0 -.13333 0 2080)"/>
    <path style="fill:#e2dcdc;fill-opacity:1;fill-rule:nonzero;stroke:none"
          d="M7653.37 10979.5c-742.75 0-1344.87-602.1-1344.87-1344.87 0-337.84 124.61-646.57 330.33-882.79l-183.9-462.08 718.96 88.1c148.95-56.87 310.56-88.1 479.48-88.1 742.76 0 1344.88 602.12 1344.88 1344.87 0 742.77-602.12 1344.87-1344.88 1344.87"
          transform="matrix(.13333 0 0 -.13333 0 2080)"/>
    <path style="fill:#aaa5a5;fill-opacity:1;fill-rule:nonzero;stroke:none"
          d="m8451.79 9472.45-107.78 281.83c.5 11.15.85 22.34.85 33.62 0 411.4-333.53 745-744.95 745-411.42 0-744.95-333.6-744.95-745 0-111.42 24.63-217.02 68.47-311.94l-.15-.02s.26-.43.67-1.12a740.05 740.05 0 0 1 31.75-60.84c52.1-109.01 148.76-354.65 148.76-677.57h748.52l-68.23 329.66s360.51-73.02 431.79 69.55c46.88 93.76 71.41 251.31 82.72 348.21 71.12-8.23 152.53-11.38 152.53-11.38"
          transform="matrix(.13333 0 0 -.13333 0 2080)"/>
    <path style="fill:#e2dcdc;fill-opacity:1;fill-rule:nonzero;stroke:none"
          d="M7536.04 9778.8c-86.31 0-156.34 69.87-156.34 156.33 0 86.27 70.03 156.37 156.34 156.37 86.46 0 156.49-70.1 156.49-156.37 0-86.46-70.03-156.33-156.49-156.33zm459.27 56.79v199.11h-162.88c-4.62 13.5-10.21 26.8-16.59 39.5l115.34 115.2-140.7 140.7-115.34-115.2c-12.76 6.3-25.84 11.8-39.56 16.5v162.8h-198.93v-162.8c-13.72-4.7-26.96-10.2-39.56-16.5l-115.34 115.2-140.69-140.7 115.17-115.2c-6.22-12.7-11.8-26-16.43-39.5h-162.87v-199.11h162.87c4.63-13.72 10.21-26.8 16.43-39.56l-115.17-115.18 140.69-140.86 115.34 115.34c12.6-6.39 25.84-11.97 39.56-16.6v-162.71h198.93v162.71c13.72 4.63 26.8 10.21 39.56 16.6l115.34-115.34 140.7 140.86-115.34 115.18c6.38 12.76 11.97 25.84 16.59 39.56h162.88M3281.98 12072.9c541.94 0 981.28-439.3 981.28-981.2 0-246.5-90.92-471.8-241.02-644.2l134.18-337.1-524.59 64.3c-108.68-41.5-226.6-64.3-349.85-64.3-541.95 0-981.28 439.3-981.28 981.3 0 541.9 439.33 981.2 981.28 981.2"
          transform="matrix(.13333 0 0 -.13333 0 2080)"/>
    <path style="fill:#aaa5a5;fill-opacity:1;fill-rule:nonzero;stroke:none"
          d="M3110.77 11244.9c-10.7 22.9-146.23 316.5-153.43 331.7l-29.51-32.4-77.33-85.1-111.23 215.3-78.41-44.1c17.85-29.4 164.65-268.7 178.28-291.3l29.83 38 78.5 100.1 154.57-237.1 8.73 4.9M3480.52 11244.9c10.7 22.9 146.23 316.5 153.43 331.7l29.51-32.4 77.33-85.1 111.23 215.3 78.41-44.1c-17.85-29.4-164.65-268.7-178.28-291.3l-29.83 38-78.5 100.1-154.56-237.1-8.74 4.9M3234.28 11457.5c-.88 22.3-13.52 308.3-14.05 323.2l36.39-13.5 95.36-35.5.04 214.5 79.6-2.9c-2.11-30.4-20.39-278.2-21.95-301.5l-38.89 17.8-102.35 46.8-25.31-249.2-8.84.3M3746.11 10848.6s-47.32 1.9-88.71 6.7c-6.56-56.4-20.81-148-48.07-202.4-41.44-82.9-251-40.5-251-40.5l39.7-191.6h-435.15c0 187.7-56.16 330.5-86.44 393.8-6.69 11.5-12.85 23.3-18.49 35.4-.23.4-.34.7-.34.7h.05c-25.46 55.1-39.81 116.5-39.81 181.3 0 9.4.29 83.6.93 92.8h864.2c.64-9.2.93-83.4.93-92.8 0-6.5-.17-13.1-.46-19.6l62.66-163.8"
          transform="matrix(.13333 0 0 -.13333 0 2080)"/>
    <path style="fill:#5f5c31;fill-opacity:1;fill-rule:nonzero;stroke:none"
          d="M12842.4 6589.68c0-268.62-129.8-491.06-129.8-491.06s-129.7 222.44-129.7 491.06 129.7 491.06 129.7 491.06 129.8-222.44 129.8-491.06M13181.3 6558.79c-24.2-267.53-173.4-477.39-173.4-477.39s-109.2 233.21-85 500.75c24.2 267.53 173.4 477.39 173.4 477.39s109.1-233.21 85-500.75"
          transform="matrix(.13333 0 0 -.13333 0 2080)"/>
    <path style="fill:#8c8e45;fill-opacity:1;fill-rule:nonzero;stroke:none"
          d="M12664.4 6533.93c49.4-222.87-23.4-432.58-23.4-432.58s-154.4 159.4-203.8 382.27c-49.3 222.87 23.4 432.57 23.4 432.57s154.5-159.39 203.8-382.26M12989.5 6491.06c-34.7-225.6-178.5-394.71-178.5-394.71s-86.2 204.52-51.5 430.13c34.8 225.61 178.5 394.72 178.5 394.72s86.3-204.53 51.5-430.14M13303.6 6486.06c-34.8-225.61-178.5-394.72-178.5-394.72s-86.3 204.53-51.5 430.14c34.7 225.6 178.5 394.71 178.5 394.71s86.2-204.52 51.5-430.13"
          transform="matrix(.13333 0 0 -.13333 0 2080)"/>
    <path style="fill:#fba223;fill-opacity:1;fill-rule:nonzero;stroke:none"
          d="M13287.2 6311.23V5570.4h-840.8v740.83h840.8" transform="matrix(.13333 0 0 -.13333 0 2080)"/>
    <path style="fill:#fb8c2b;fill-opacity:1;fill-rule:nonzero;stroke:none"
          d="M13287.2 6155.81v-57.19h-840.8v57.19h840.8M13287.2 6061.13v-28.62h-840.8v28.62h840.8"
          transform="matrix(.13333 0 0 -.13333 0 2080)"/>
    <path style="fill:#aaa5a5;fill-opacity:1;fill-rule:nonzero;stroke:none"
          d="M11292.9 5940.81h634.5s39.2-370.41-317.3-370.41c-356.4 0-317.2 370.41-317.2 370.41"
          transform="matrix(.13333 0 0 -.13333 0 2080)"/>
    <path style="fill:#aaa5a5;fill-opacity:1;fill-rule:nonzero;stroke:none"
          d="M11231.4 5841.58c-32.1 0-58.2-26.12-58.2-58.22 0-32.1 26.1-58.21 58.2-58.21h145.6v116.43zm205.6-176.43h-205.6c-65.2 0-118.2 53.03-118.2 118.21 0 65.19 53 118.22 118.2 118.22h205.6v-236.43M14450.7 5940.81h-634.4s-39.2-370.41 317.2-370.41 317.2 370.41 317.2 370.41"
          transform="matrix(.13333 0 0 -.13333 0 2080)"/>
    <path style="fill:#aaa5a5;fill-opacity:1;fill-rule:nonzero;stroke:none"
          d="M14366.7 5841.58v-116.43h145.5c32.1 0 58.2 26.11 58.2 58.21s-26.1 58.22-58.2 58.22zm-60 60h205.5c65.2 0 118.2-53.03 118.2-118.22 0-65.18-53-118.21-118.2-118.21h-205.5v236.43"
          transform="matrix(.13333 0 0 -.13333 0 2080)"/>
    <path style="fill:#e2dcdc;fill-opacity:1;fill-rule:nonzero;stroke:none"
          d="M15220 11754.1c542 0 981.3-439.3 981.3-981.3 0-246.5-90.9-471.8-241-644.1l134.2-337.17-524.6 64.28c-108.7-41.49-226.6-64.28-349.9-64.28-541.9 0-981.3 439.37-981.3 981.27 0 542 439.4 981.3 981.3 981.3"
          transform="matrix(.13333 0 0 -.13333 0 2080)"/>
    <path style="fill:#fff;fill-opacity:1;fill-rule:nonzero;stroke:none"
          d="M14772.9 10772.8c0-73.5-59.6-133.1-133.1-133.1-73.4 0-133 59.6-133 133.1s59.6 133.1 133 133.1c73.5 0 133.1-59.6 133.1-133.1M15353.1 10772.8c0-73.5-59.6-133.1-133.1-133.1s-133.1 59.6-133.1 133.1 59.6 133.1 133.1 133.1 133.1-59.6 133.1-133.1M15933.2 10772.8c0-73.5-59.5-133.1-133-133.1s-133.1 59.6-133.1 133.1 59.6 133.1 133.1 133.1 133-59.6 133-133.1"
          transform="matrix(.13333 0 0 -.13333 0 2080)"/>
    <path style="fill:#fba223;fill-opacity:1;fill-rule:nonzero;stroke:none"
          d="M8801.94 2016.5v-871.6c0-135.3-109.63-244.9-244.82-244.9h-901.55c-135.27 0-244.82 109.6-244.82 244.9v871.6h1391.19"
          transform="matrix(.13333 0 0 -.13333 0 2080)"/>
    <path style="fill:#fb8c2b;fill-opacity:1;fill-rule:nonzero;stroke:none"
          d="M8801.94 1829.5V1728H7410.75v101.5h1391.19M8801.94 1665.2v-101.4H7410.75v101.4h1391.19"
          transform="matrix(.13333 0 0 -.13333 0 2080)"/>
    <path style="fill:#8c8e45;fill-opacity:1;fill-rule:nonzero;stroke:none"
          d="M7450.54 2016.5s-354.26 451.8-131.36 1108.6c0 0 620.96-314.5 609.02-1108.6h-477.66"
          transform="matrix(.13333 0 0 -.13333 0 2080)"/>
    <path style="fill:#5f5c31;fill-opacity:1;fill-rule:nonzero;stroke:none"
          d="M7699.32 2012.3c-2.08 0-3.89 1.6-4.15 3.7-.62 4.9-64.19 499.3-288.05 888.1-1.16 2-.47 4.6 1.54 5.7 2.01 1.2 4.56.5 5.72-1.5 224.72-390.3 288.48-886.3 289.1-891.3.28-2.3-1.34-4.4-3.64-4.6-.17-.1-.35-.1-.52-.1"
          transform="matrix(.13333 0 0 -.13333 0 2080)"/>
    <path style="fill:#8c8e45;fill-opacity:1;fill-rule:nonzero;stroke:none"
          d="M8769.14 2016.5s354.26 451.8 131.35 1108.6c0 0-620.95-314.5-609.01-1108.6h477.66"
          transform="matrix(.13333 0 0 -.13333 0 2080)"/>
    <path style="fill:#5f5c31;fill-opacity:1;fill-rule:nonzero;stroke:none"
          d="M8520.36 2012.3c2.08 0 3.89 1.6 4.15 3.7.62 4.9 64.19 499.3 288.05 888.1 1.16 2 .47 4.6-1.54 5.7-2.01 1.2-4.56.5-5.72-1.5-224.72-390.3-288.48-886.3-289.1-891.3-.29-2.3 1.34-4.4 3.64-4.6.17-.1.35-.1.52-.1M8106.35 4617.8c-652.9-1086.7-271.28-2601.3-271.28-2601.3h542.55s381.63 1514.6-271.27 2601.3"
          transform="matrix(.13333 0 0 -.13333 0 2080)"/>
    <path style="fill:#8c8e45;fill-opacity:1;fill-rule:nonzero;stroke:none"
          d="M8106.35 2012.3c-2.32 0-4.19 1.9-4.19 4.2v2310.7c0 2.3 1.87 4.2 4.19 4.2 2.31 0 4.19-1.9 4.19-4.2V2016.5c0-2.3-1.88-4.2-4.19-4.2"
          transform="matrix(.13333 0 0 -.13333 0 2080)"/></svg>