<svg xmlns="http://www.w3.org/2000/svg" viewBox="125 0 500 500" style="enable-background:new 0 0 500 500"
     xml:space="preserve"><style>.st0{fill:#d84444}.st1{fill:#c2efe8}.st2{fill:#d8687b}.st3{fill:#ffb24d}.st4{fill:#a03048}.st5{fill:#76b762}.st6{fill:#fff}.st7{fill:#f9df95}.st8{fill:#ffb19c}.st9{fill:#f98275}.st13{fill:#0e4447}.st15{fill:#f46a60}.st16{fill:#093030}</style>
    <g id="Background"><path class="st0" d="M531.11 89.79c3.67 3.67 5.51 8.49 5.51 13.3 0 4.81-1.84 9.63-5.51 13.31l-29.62 29.62-29.62-29.62c-7.35-7.35-7.35-19.26 0-26.62 3.67-3.67 8.49-5.51 13.3-5.51 4.81 0 9.63 1.84 13.31 5.51l3.01 3.01 3.01-3.01c7.35-7.34 19.26-7.34 26.61.01zM319.16 43.68a8.027 8.027 0 0 1 2.36 5.69c0 2.06-.79 4.12-2.36 5.69l-12.67 12.67-12.67-12.67a8.051 8.051 0 0 1 5.69-13.74c2.06 0 4.12.79 5.69 2.36l1.29 1.29 1.29-1.29c3.14-3.15 8.23-3.15 11.38 0zM323.75 89.48c.6.6.9 1.39.9 2.18 0 .79-.3 1.58-.9 2.18l-4.85 4.85-4.85-4.85a3.09 3.09 0 0 1 0-4.36c.6-.6 1.39-.9 2.18-.9.79 0 1.58.3 2.18.9l.49.49.49-.49a3.09 3.09 0 0 1 4.36 0zM343.64 66.99a5.287 5.287 0 0 1 0 7.48l-8.32 8.32-8.32-8.32a5.281 5.281 0 0 1 0-7.48 5.287 5.287 0 0 1 7.48 0l.84.84.84-.84a5.281 5.281 0 0 1 7.48 0z"/>
        <path class="st1"
              d="m460.31 171.59 4.23-14.63-4.61 2.46-3.81-1.69 3.1-13.66-13.61 18.27.84-9.26-6.57-2.83a.485.485 0 0 1-.25-.63c.1-.24.39-.35.63-.25l7.2 3.11-.6 6.58 14.28-19.17-3.92 17.3 2.67 1.19 6.19-3.3-3.68 12.73 17.26-19.47-6.19 16.1 6.09 3.05c.24.12.33.41.21.64a.47.47 0 0 1-.64.21l-6.87-3.43 4.61-11.98-16.56 18.66zM248.88 385.36l-2.44-15.03-3.11 4.19-4.17.1-3.05-13.67-4.48 22.34-3.2-8.73-7.15.25c-.26.01-.48-.2-.49-.46-.01-.26.2-.48.46-.49l7.84-.28 2.28 6.2 4.7-23.44 3.86 17.31 2.92-.07 4.18-5.64 2.12 13.08 7.27-24.98 1.3 17.2 6.81.14c.26.01.47.22.47.49a.48.48 0 0 1-.49.47l-7.68-.16-.97-12.8-6.98 23.98z"/>
        <path class="st2"
              d="M263.63 82.95c2.83 2.06 5.1 4.99.98 9.48-5.57 5.86-9.1.32-11.35-3.06-1.81 3.64-4.62 8.85-10.61 3.97-5.04-4.25-2.44-7.66.4-10.11-3.79-1.1-8.22-3.09-4.93-9.33 2.83-5.12 6.17-4.23 8.95-2.35-.65-3.68-.52-7.94 6.06-8.05 6.54 0 6.76 4.16 6.12 7.84 2.76-1.82 6.04-2.6 8.81 2.46 3.1 5.96-.78 8.03-4.43 9.15z"/>
        <path class="st3"
              d="M253.16 78.28s-2.39-6.9-.38-12.15c2.63 5 .38 12.15.38 12.15zM254.1 79.94s5.53-4.77 11.15-4.82c-3.68 4.29-11.15 4.82-11.15 4.82zM252.49 81.39s-7.63-.97-11.14-5.87c6.05-.27 11.14 5.87 11.14 5.87z"/>
        <path class="st3"
              d="M261.57 89.52s-6.64-3.89-7.95-9.77c5.68 2.14 7.95 9.77 7.95 9.77zM244.3 90.45s2.56-6.84 7.46-9.59c-1.16 5.53-7.46 9.59-7.46 9.59z"/>
        <path class="st4"
              d="M258.34 79.79c0 2.88-2.34 5.22-5.22 5.22s-5.22-2.34-5.22-5.22 2.34-5.22 5.22-5.22c2.89 0 5.22 2.33 5.22 5.22z"/>
        <g><path class="st2" d="M592.66 231.32c3.27 1.24 6.22 3.49 3.42 8.9-3.85 7.11-8.7 2.68-11.75.01-.79 3.99-2.14 9.75-9.21 6.6-5.98-2.79-4.35-6.76-2.25-9.86-3.94-.07-8.74-.83-7.2-7.72 1.39-5.69 4.85-5.69 8.02-4.61-1.59-3.38-2.57-7.53 3.75-9.35 6.31-1.71 7.61 2.25 7.96 5.97 2.19-2.48 5.15-4.09 9.14.07 4.55 4.94 1.35 7.96-1.88 9.99z"/>
            <path class="st3"
                  d="M581.33 229.55s-4.11-6.04-3.54-11.63c3.85 4.14 3.54 11.63 3.54 11.63zM582.67 230.91s4.1-6.05 9.5-7.57c-2.42 5.1-9.5 7.57-9.5 7.57zM581.49 232.73s-7.62 1.05-12.29-2.76c5.78-1.84 12.29 2.76 12.29 2.76z"/>
            <path class="st3"
                  d="M592.38 238.2s-7.42-2.02-10.22-7.35c6.04.58 10.22 7.35 10.22 7.35zM575.96 243.61s.69-7.27 4.7-11.21c.32 5.64-4.7 11.21-4.7 11.21z"/>
            <path class="st4"
                  d="M586.73 229.65c.75 2.78-.89 5.65-3.67 6.4s-5.65-.89-6.4-3.67.89-5.65 3.67-6.4c2.78-.76 5.64.89 6.4 3.67z"/></g>
        <g><path class="st5" d="m213.13 324.35 1.9-1.35c-25.79-36.33-15.86-76.92-15.75-77.33l-2.26-.58c-.11.42-10.33 42.03 16.11 79.26z"/>
            <path class="st5"
                  d="M199.77 291.91s-2.57-17.72 21.86-23.06c-.17 28.36-21.86 23.06-21.86 23.06zM203.69 305.79s-14.96 9.84-30.15-10.02c25.75-11.87 30.15 10.02 30.15 10.02z"/>
            <path class="st1"
                  d="M171.93 242.25c-5.43 5.53-9.3 12.77 1.34 21.07 14.32 10.76 19.99-2.64 23.67-10.84 5.28 7.29 13.33 17.64 24.63 4.78 9.45-11.14 2.52-17.62-4.58-21.92 7.87-3.79 16.83-9.76 7.36-22.19-8.06-10.16-15.02-6.97-20.41-1.86.07-8.28-1.78-17.52-16.19-15.36-14.28 2.4-13.24 11.56-10.49 19.36-6.7-2.96-14.15-3.47-18.33 8.59-4.62 14.15 4.61 17.26 13 18.37z"/>
            <path class="st6"
                  d="M193.09 228.21s2.7-15.95-3.63-26.66c-3.91 11.88 3.63 26.66 3.63 26.66zM191.65 232.19s-13.83-8.39-26.12-6.45c9.59 8.01 26.12 6.45 26.12 6.45zM195.69 234.75s16.3-4.92 22.18-16.9c-13.33 1.64-22.18 16.9-22.18 16.9z"/>
            <path class="st6"
                  d="M178.84 255.84s13.07-10.92 13.78-24.24c-11.62 6.73-13.78 24.24-13.78 24.24zM216.88 251.55s-8.1-14-19.81-18.21c4.57 11.64 19.81 18.21 19.81 18.21z"/>
            <circle transform="rotate(-53.991 193.702 231.489)" class="st5" cx="193.71" cy="231.49" r="11.56"/>
            <path class="st1"
                  d="M452.24 200.82c1.55 2.33 2.43 5.17-1.91 7.39-5.82 2.84-6.92-2.3-7.66-5.46-2.37 2.23-5.94 5.36-9.07.02-2.59-4.6.31-6.43 3.12-7.47-2.54-1.88-5.31-4.61-1.1-8.38 3.55-3.06 5.81-1.45 7.37.73.54-2.94 1.83-6.1 6.8-4.35 4.91 1.82 3.91 5.01 2.41 7.59 2.58-.59 5.26-.27 5.92 4.3.67 5.34-2.82 5.81-5.88 5.63z"/>
            <path class="st6"
                  d="M445.68 194.39s.13-5.85 3.11-9.22c.58 4.49-3.11 9.22-3.11 9.22zM445.93 195.9s5.48-2.04 9.72-.51c-3.96 2.2-9.72.51-9.72.51zM444.32 196.54s-5.45-2.86-6.72-7.51c4.61 1.49 6.72 7.51 6.72 7.51z"/>
            <path class="st6"
                  d="M448.86 205.18s-3.9-4.77-3.24-9.55c3.67 3.18 3.24 9.55 3.24 9.55zM435.65 201.06s3.83-4.42 8.28-5.11c-2.42 3.82-8.28 5.11-8.28 5.11z"/>
            <path class="st5"
                  d="M449.16 196.97a4.173 4.173 0 0 1-5.37 2.46 4.173 4.173 0 0 1-2.46-5.37c.8-2.16 3.21-3.27 5.37-2.46a4.18 4.18 0 0 1 2.46 5.37z"/></g>
        <g><path class="st5" d="M560.24 356.88v15.23c0 1-.81 1.82-1.82 1.82h-7.98c-1 0-1.82.81-1.82 1.82v7.98c0 1-.81 1.82-1.82 1.82h-15.24c-1 0-1.82-.81-1.82-1.82v-7.98c0-1-.81-1.82-1.82-1.82h-7.98c-1 0-1.82-.81-1.82-1.82v-15.23c0-1 .81-1.82 1.82-1.82h7.98c1 0 1.82-.81 1.82-1.82v-7.98c0-1 .81-1.82 1.82-1.82h15.24c1 0 1.82.81 1.82 1.82v7.98c0 1 .81 1.82 1.82 1.82h7.98c1.01 0 1.82.81 1.82 1.82zM452.81 45.33v6.83c0 .45-.37.82-.82.82h-3.58c-.45 0-.82.37-.82.82v3.58c0 .45-.37.82-.82.82h-6.83c-.45 0-.82-.37-.82-.82V53.8c0-.45-.37-.82-.82-.82h-3.58c-.45 0-.82-.37-.82-.82v-6.83c0-.45.37-.82.82-.82h3.58c.45 0 .82-.37.82-.82v-3.58c0-.45.37-.82.82-.82h6.83c.45 0 .82.37.82.82v3.58c0 .45.37.82.82.82h3.58c.45 0 .82.37.82.82zM211.72 370.01v6.83c0 .45-.37.82-.82.82h-3.58c-.45 0-.82.37-.82.82v3.58c0 .45-.37.82-.82.82h-6.83c-.45 0-.82-.37-.82-.82v-3.58c0-.45-.37-.82-.82-.82h-3.58c-.45 0-.82-.37-.82-.82v-6.83c0-.45.37-.82.82-.82h3.58c.45 0 .82-.37.82-.82v-3.58c0-.45.37-.82.82-.82h6.83c.45 0 .82.37.82.82v3.58c0 .45.37.82.82.82h3.58c.45 0 .82.37.82.82z"/></g>
        <g><path class="st0" d="M548.68 172.34v7.37c0 .49-.39.88-.88.88h-3.86c-.49 0-.88.39-.88.88v3.86c0 .49-.39.88-.88.88h-7.37c-.49 0-.88-.39-.88-.88v-3.86c0-.49-.39-.88-.88-.88h-3.86c-.49 0-.88-.39-.88-.88v-7.37c0-.49.39-.88.88-.88h3.86c.49 0 .88-.39.88-.88v-3.86c0-.49.39-.88.88-.88h7.37c.49 0 .88.39.88.88v3.86c0 .49.39.88.88.88h3.86c.49 0 .88.4.88.88zM583.58 324.43v4.23c0 .28-.23.51-.51.51h-2.21c-.28 0-.51.23-.51.51v2.21c0 .28-.23.51-.51.51h-4.23c-.28 0-.51-.23-.51-.51v-2.21c0-.28-.23-.51-.51-.51h-2.21c-.28 0-.51-.23-.51-.51v-4.23c0-.28.23-.51.51-.51h2.21c.28 0 .51-.23.51-.5v-2.21c0-.28.23-.51.51-.51h4.23c.28 0 .51.23.51.51v2.21c0 .28.23.5.51.5h2.21c.28 0 .51.23.51.51zM174.12 183.47v4.23c0 .28-.23.51-.51.51h-2.21a.51.51 0 0 0-.51.5v2.21c0 .28-.23.51-.51.51h-4.23c-.28 0-.5-.23-.5-.51v-2.21c0-.28-.23-.5-.51-.5h-2.21c-.28 0-.51-.23-.51-.51v-4.23c0-.28.23-.51.51-.51h2.21c.28 0 .51-.23.51-.51v-2.21c0-.28.23-.51.5-.51h4.23c.28 0 .51.23.51.51v2.21c0 .28.23.51.51.51h2.21c.29.01.51.23.51.51z"/></g>
        <ellipse class="st7" cx="375.11" cy="413.55" rx="169.54" ry="31.32"/>
        <g><path class="st1" d="M243.49 146.46c0 4.25-3.44 7.69-7.69 7.69-1.09 0-2.13-.23-3.07-.63-2.44 6.8-8.95 11.66-16.6 11.66-4.2 0-8.05-1.46-11.07-3.9-1.53.82-3.27 1.28-5.12 1.28-5.47 0-9.99-4.03-10.77-9.28-.78.28-1.63.42-2.5.42-4.25 0-7.69-3.44-7.69-7.69s3.44-7.69 7.69-7.69c1.2 0 2.34.28 3.36.76.76-9.03 8.34-16.11 17.56-16.11 4.2 0 8.05 1.46 11.07 3.9 1.48-.76 3.16-1.19 4.94-1.19 6.01 0 10.88 4.87 10.88 10.87 0 .81-.09 1.61-.26 2.37.51-.11 1.03-.16 1.58-.16 4.25.01 7.69 3.46 7.69 7.7zM524.9 316.31c0 19.36-15.7 35.06-35.06 35.06-4.97 0-9.72-1.05-14-2.88-11.12 31-40.81 53.2-75.69 53.2-19.14 0-36.71-6.67-50.49-17.79-6.98 3.75-14.91 5.84-23.37 5.84-24.94 0-45.56-18.4-49.1-42.34-3.58 1.26-7.41 1.92-11.42 1.92-19.36 0-35.06-15.7-35.06-35.06 0-19.36 15.7-35.06 35.06-35.06 5.49 0 10.68 1.26 15.3 3.49 3.49-41.16 38.02-73.47 80.1-73.47 19.14 0 36.71 6.67 50.49 17.79a49.609 49.609 0 0 1 22.54-5.41c27.43 0 49.62 22.19 49.62 49.58 0 3.71-.39 7.33-1.18 10.81 2.31-.48 4.71-.74 7.19-.74 19.37.01 35.07 15.7 35.07 35.06zM594.44 283.87c0 4.25-3.44 7.69-7.69 7.69-1.09 0-2.13-.23-3.07-.63-2.44 6.8-8.95 11.66-16.6 11.66-4.2 0-8.05-1.46-11.07-3.9-1.53.82-3.27 1.28-5.12 1.28-5.47 0-9.99-4.03-10.77-9.28-.78.28-1.63.42-2.51.42-4.25 0-7.69-3.44-7.69-7.69s3.44-7.69 7.69-7.69c1.2 0 2.34.28 3.36.76.76-9.03 8.34-16.11 17.56-16.11 4.2 0 8.05 1.46 11.07 3.9 1.48-.76 3.16-1.19 4.94-1.19 6.01 0 10.88 4.87 10.88 10.87 0 .81-.09 1.61-.26 2.37.51-.11 1.03-.16 1.58-.16 4.26.01 7.7 3.46 7.7 7.7z"/></g>
        <g><path class="st5" d="m336.63 231.62-.53.94c-4.47-2.51-8.41-5.23-11.88-8.06-3.82 2.54-8.6 4.65-8.8.54-.18-3.36 5.75-1.84 8.14-1.09-3.75-3.15-6.95-6.44-9.64-9.73-4.17 2.06-9.66 1.56-8.51-1.92.84-2.59 5.06-.72 7.45.6a69.817 69.817 0 0 1-9.06-15.28c-1.43.83-9.57 5.32-9.88-.51-.3-5.69 7.91-.95 9.72.16a70.476 70.476 0 0 1-4.25-13.99c-4.6-.2-9.06-3.14-6.46-5.65 1.87-1.8 4.55 1.39 6.11 3.66-.31-1.9-.5-3.61-.63-5.07-.7-1.66-4.45-11.08 1.13-10.28 4.67.68 1.6 6.48-.1 9.17.21 3.17.8 7.82 2.31 13.24.43-3.43 1.73-9.18 5.38-6.66 4.24 2.91-2.47 7.21-4.83 8.55 1.42 4.61 3.5 9.69 6.58 14.86-.42-3.16-.72-8.51 2.26-7.53 3.42 1.13-.03 6.89-1.39 8.96 2.41 3.86 5.38 7.75 9.05 11.52.02-2.69.38-9.76 3.68-8.09 3.42 1.72-1.55 7.02-3.18 8.62 4.65 4.67 10.34 9.12 17.33 13.04zM349.2 40.82l-.43-.99c4.7-2.05 9.24-3.55 13.59-4.62.27-4.58 1.48-9.66 4.87-7.35 2.79 1.89-2 5.7-4.04 7.15 4.77-1.09 9.32-1.66 13.57-1.82.87-4.57 4.59-8.65 6.67-5.63 1.55 2.23-2.47 4.47-4.97 5.58 6.68-.1 12.63.76 17.66 1.99.2-1.64 1.52-10.84 6.37-7.57 4.72 3.19-4.01 6.88-5.99 7.66 1.52.38 2.96.8 4.31 1.24 3.56 1.15 6.71 2.48 9.41 3.81 2.93-3.55 7.97-5.34 8.4-1.74.31 2.58-3.85 2.8-6.61 2.67 1.7.9 3.18 1.77 4.43 2.56 1.75.44 11.52 3.13 7.52 7.1-3.36 3.32-6.13-2.63-7.25-5.61-2.66-1.74-6.72-4.08-11.96-6.14 2.47 2.41 6.28 6.91 2.06 8.31-4.88 1.62-4.26-6.32-3.91-9.01a68.008 68.008 0 0 0-15.82-3.71c2.77 1.57 7.23 4.56 4.64 6.35-2.96 2.04-5.48-4.18-6.31-6.52-4.54-.41-9.43-.38-14.65.28 2.13 1.64 7.56 6.19 4.24 7.81-3.44 1.69-4.67-5.47-4.95-7.74-6.52.88-13.5 2.73-20.85 5.94zM539.21 125.81l.57-.91c4.34 2.73 8.13 5.64 11.46 8.64 3.94-2.35 8.82-4.21 8.81-.1.01 3.36-5.83 1.55-8.19.68 3.59 3.33 6.61 6.78 9.14 10.2 4.27-1.85 9.73-1.07 8.41 2.35-.97 2.54-5.09.47-7.41-.97a69.824 69.824 0 0 1 8.28 15.72c1.47-.76 9.82-4.83 9.84 1.01.02 5.7-7.95.55-9.7-.65.54 1.47 1 2.9 1.4 4.26 1.05 3.59 1.72 6.95 2.14 9.92 4.58.43 8.89 3.59 6.17 5.97-1.96 1.71-4.48-1.62-5.92-3.96.22 1.91.32 3.63.37 5.1.62 1.69 3.89 11.29-1.65 10.21-4.63-.92-1.27-6.55.56-9.15-.05-3.18-.41-7.85-1.64-13.34-.6 3.4-2.19 9.08-5.71 6.38-4.08-3.12 2.83-7.08 5.25-8.3a68.372 68.372 0 0 0-5.83-15.17c.26 3.17.3 8.54-2.64 7.41-3.36-1.3.37-6.88 1.84-8.88a68.58 68.58 0 0 0-8.47-11.96c-.16 2.68-.87 9.73-4.08 7.9-3.33-1.89 1.9-6.93 3.61-8.45-4.36-4.91-9.82-9.65-16.61-13.91zM383.1 343.33l.3 2.53c12.04-1.48 23.09-3.89 33.23-6.96 6.07 9 14.63 17.89 18.76 9.09 3.4-7.2-10.92-9.2-16.84-9.7 11.03-3.52 20.98-7.85 29.83-12.64 7.28 8.26 19.75 12.09 20.36 3.44.48-6.42-10.42-6.13-16.85-5.38a165.179 165.179 0 0 0 33.56-25.3c2.38 3.11 16.15 20.23 22.07 7.74 5.78-12.18-16.46-9.19-21.42-8.37 2.64-2.61 5.06-5.2 7.29-7.71 5.87-6.62 10.69-13.13 14.58-19.08 10.24 3.69 22.65 1.27 19.21-6.56-2.47-5.63-11.22-1.05-16.67 2.52 2.39-3.88 4.34-7.44 5.93-10.54 3.03-2.99 19.69-20.26 6.76-23.52-10.84-2.7-9.31 12.74-8.01 20.16-3.32 6.75-8.78 16.39-16.95 26.91 2.13-7.89 4.46-21.64-5.8-19.4-11.88 2.57-1.06 18 2.88 23.05a162.135 162.135 0 0 1-27.74 26.61c3.76-6.53 9.23-17.98 1.82-18.51-8.5-.6-6.13 15.11-5 20.87a160.482 160.482 0 0 1-30.16 17.07c2.37-5.9 7.94-21.7-.78-21.01-9.04.7-2.92 16.76-.77 21.71-14.31 6.04-30.76 10.67-49.59 12.98z"/></g>
        <g><path class="st5" d="M298.21 150.88s1.08-30.24-28.08-34.56c-2.97 26.46 28.08 34.56 28.08 34.56zM422.82 105.7s22.54 1 25.95-20.72c-19.71-2.38-25.95 20.72-25.95 20.72zM173.68 324.09s-7.65 21.23 12.07 30.93c8.13-18.11-12.07-30.93-12.07-30.93z"/></g>
        <ellipse class="st7" cx="375.11" cy="413.55" rx="169.54" ry="31.32"/>
        <g><path class="st7" d="M279.85 163.57a2.97 2.97 0 1 1-5.94 0 2.97 2.97 0 0 1 5.94 0zM295.24 95.53a2.97 2.97 0 1 1-2.97-2.97c1.64.01 2.97 1.33 2.97 2.97z"/>
            <circle class="st7" cx="451.82" cy="122.8" r="2.97"/>
            <circle class="st7" cx="541.17" cy="319.06" r="2.97"/>
            <circle class="st7" cx="496.63" cy="366.04" r="2.97"/>
            <path class="st7"
                  d="M546.03 215.4a2.97 2.97 0 1 1-5.94 0 2.97 2.97 0 0 1 5.94 0zM246.92 120.64a2.97 2.97 0 1 1-5.94 0 2.97 2.97 0 0 1 5.94 0z"/>
            <circle class="st7" cx="241.52" cy="255.89" r="2.97"/>
            <path class="st7" d="M212.36 336.61a2.97 2.97 0 1 1-5.94 0 2.97 2.97 0 0 1 5.94 0z"/>
            <circle class="st7" cx="415.91" cy="62.6" r="2.97"/>
            <circle class="st7" cx="482.32" cy="63.14" r="2.97"/></g></g>
    <g id="Object"><path class="st8" d="M461.35 425.37c-14.64 1.86-26.25 1.41-34.8.23-12.08-1.65-18.11-4.73-18.11-4.73s-3.39-6.79.31-13c1.76-2.95 5.12-5.78 11.21-7.7 3.39-1.06 6.27-1.37 8.82-1.13.52.06 1.01.12 1.5.23 10.5 2.01 15.07 13.63 27.48 16.74 7.36 1.98 13.48 8.1 3.59 9.36z"/>
        <path class="st9"
              d="M430.26 399.27c-1.68 4.24-7.42 19.77-3.72 26.33-12.08-1.65-18.11-4.73-18.11-4.73s-3.39-6.79.31-13l20.02-8.82 1.94-.85c0-.01-.16.38-.44 1.07z"/>
        <path d="M345.53 317.75s-3.51 14.58-14.31 24.57c-4.59 15.66 3.51 56.42 48.32 54.53 44.81-1.89 54.26-52.91 54.26-52.91s-8.64-17.28-13.77-32.13c-8.36 3.24-74.5 5.94-74.5 5.94z"
              style="fill:#062322"/>
        <path class="st9"
              d="M350.6 234.77s2.64-14.35-6.82-20.64c-14.79-9.84-41.55 58.6-45.48 72.49-3.93 13.89 1.02 30.43 15.39 27.34 14.37-3.09 36.91-79.19 36.91-79.19z"/>
        <path class="st8"
              d="M308.82 418.71c-6.84 2.94-21.98 4.17-35.64 3.99-13.85-.18-26.19-1.81-26.72-4.52-1.07-5.4 29.16-7.56 34.56-17.55 7.02-14.57 18.89-11.61 18.89-11.61s2.48 2.59 5.3 6.28c.15.2.31.4.46.61 5.61 7.49 12.12 18.93 3.15 22.8z"/>
        <path class="st9"
              d="M308.82 418.71c-6.84 2.94-21.98 4.17-35.64 3.99 19.7-7.36 30.2-24.25 32.03-27.4.19-.33.29-.52.29-.52l.17 1.13c.49 3.32 1.98 13.46 3.15 22.8z"/>
        <path d="M428.44 263.17c-3.04 23.24-7.31 46.74-5.97 51.33-46.16 16.74-80.45 4.5-80.45 4.5s2.83-12.27-7.97-27.24c-.76-1.05-1.58-2.1-2.47-3.17-13.68-16.38-6.12-40.85-1.08-50.4 5.04-9.53 6.8-20.87 8.01-24.38 1.21-3.51 10.13-4.59 15.38-4.87 5.27-.27 5.4 2.97 5.4 2.97 11.69 5.22 28.8 0 44.55-7.96 1.53-3.29 7.06.22 23.12 9.41 6.31 3.6 4.51 26.58 1.48 49.81z"
              style="fill:#2e756f"/>
        <path d="M422.47 314.5c-46.16 16.74-80.45 4.5-80.45 4.5s2.83-12.27-7.97-27.24c45.41-1.24 75.7-15.29 94.39-28.6-3.04 23.25-7.32 46.75-5.97 51.34z"
              style="fill:#26615b"/>
        <path class="st8"
              d="M475.84 194.07s1.52 5.94 8.18-.35c.17 7.25-2.43 11.56-2.43 11.56s1.6 4.69 8.69.83c2.5-12.63.79-22.61-1.17-23.47-1.95-.86-3.8-1.42-4.33-1.31-.53.11-6.98 7.96-8.94 12.74z"/>
        <path class="st9"
              d="M488.76 204.9s9.87-20.67 12.35-24.22c2.29-3.29 5.89-3.16 6.76-1.04.87 2.12-12.47 27.36-13.61 32.34-5.33-2.44-5.5-7.08-5.5-7.08z"/>
        <path class="st9"
              d="M492.52 213.84s13.15-17.54 16.14-20.41c2.77-2.65 6.13-1.86 6.55.3.42 2.16-16.85 23.34-18.86 27.8-4.54-3.3-3.83-7.69-3.83-7.69z"/>
        <path class="st9"
              d="M496.95 220.62s14.39-11.18 17.42-12.82c2.81-1.52 5.32-.14 5.18 1.68s-17.33 14.78-19.92 17.93c-2.91-3.65-2.68-6.79-2.68-6.79zM412.21 230.28s-2.97-16.02 9.72-19.44c17.15-4.62 32.67 63.98 34.56 78.29 1.89 14.31-5.4 29.97-19.17 24.84-13.77-5.13-25.11-83.69-25.11-83.69z"/>
        <path class="st8"
              d="m499.63 227.4-14.07 11.12s-1.02 2.85-2.54 7.5c-3.32 10.09-9.09 28.69-12.22 44.87-4.28 22.12-24.52 34.63-35.64 24.16-10.33-9.73-3.94-27.84 3.66-35.91 7.6-8.08 21.49-30.95 30.63-49.95 0 0 7.85-22.61 17.05-29.07 14.32 14.26 13.13 27.28 13.13 27.28z"/>
        <path class="st9"
              d="M469.46 229.18s6.23-2.63 9.28-9.55c1.98-3.96-3.12-9.71-3.12-9.71s6.63-11.19-.45-14.35c0 0-5.29 13.82-7.82 16.37-2.53 2.56-1.79 14.2 2.11 17.24z"/>
        <path class="st8"
              d="M273.61 193.95s-1.24 6-8.19.03c.17 7.25 2.97 11.44 2.97 11.44s-1.37 4.76-8.64 1.24c-3.09-12.5-1.85-22.55.06-23.5 1.91-.95 3.73-1.59 4.27-1.52.54.09 7.35 7.63 9.53 12.31z"/>
        <path class="st9"
              d="M261.22 205.38s-10.83-20.18-13.48-23.61c-2.45-3.18-6.04-2.88-6.81-.72-.77 2.16 13.75 26.74 15.12 31.67 5.22-2.69 5.17-7.34 5.17-7.34z"/>
        <path class="st9"
              d="M257.88 214.49s-13.96-16.9-17.09-19.63c-2.89-2.52-6.21-1.57-6.52.61-.32 2.17 17.93 22.51 20.15 26.88 4.38-3.51 3.46-7.86 3.46-7.86z"/>
        <path class="st9"
              d="M253.77 221.46s-14.9-10.48-18.01-11.98c-2.87-1.38-5.32.11-5.1 1.92.22 1.81 18.01 13.95 20.74 16.97 2.76-3.78 2.37-6.91 2.37-6.91z"/>
        <path class="st8"
              d="M319.95 312.88c-10.61 10.99-31.42-.56-36.74-22.45-3.88-15.95-10.47-34.14-14.27-44.11-1.78-4.65-2.94-7.51-2.94-7.51l-14.57-10.45s-1.8-12.95 11.84-27.87c9.48 6.01 18.4 28.23 18.4 28.23 10.02 18.55 24.98 40.74 32.95 48.45 7.95 7.71 15.17 25.5 5.33 35.71z"/>
        <path class="st9"
              d="M281.64 228.73s-6.34-2.33-9.72-9.1c-2.17-3.86 2.66-9.84 2.66-9.84s-7.15-10.86-.23-14.36c0 0 5.94 13.55 8.58 15.98 2.65 2.43 2.45 14.09-1.29 17.32z"/>
        <path class="st13"
              d="M428.05 398.37s-5.39 16.2-18.71 25.56c-24.12-3.96-91.43-28.8-91.43-28.8-1.12-.68-23.08-7.77-36.23-21.67-7.96-8.39-12.7-19.26-7.69-32.68 10.63-28.44 54.75-5.99 91.15 16.68 9.21 5.74 17.93 11.48 25.48 16.43l37.43 24.48z"/>
        <path d="M428.05 398.37s-5.39 16.2-18.71 25.56c-24.12-3.96-91.43-28.8-91.43-28.8-1.12-.68-23.08-7.77-36.23-21.67 34.33 3.6 67.29-8.62 83.46-16 9.21 5.74 17.93 11.48 25.48 16.43l37.43 24.48z"
              style="fill:#082b2a"/>
        <path class="st13"
              d="M299.91 389.02s-1.08 14.04 7.92 32.4c91.79-11.16 170.26-20.88 166.3-61.19-3.96-40.31-61.19-18-84.59-7.92-23.4 10.07-71.64 32.75-89.63 36.71z"/>
        <path class="st9"
              d="M276.33 236.58c-2.36 4.16-5.43 7.69-7.4 9.74-1.78-4.65-2.94-7.51-2.94-7.51s4.58 1.36 10.34-2.23zM485.57 238.52s-1.02 2.85-2.54 7.5c-2.68-1.65-5.52-4.21-6.32-7.79 6.45 2.04 8.86.29 8.86.29z"/>
        <g><path class="st9" d="M403.85 203.96c-3.92 5.12-26.73 28.88-39.96 26.72s-7.3-19.97-7.3-19.97 1.89-.54 5.13-1.48c.11-2.47.04-5.6-.08-8.48-.17-4.36-.47-8.13-.47-8.13 19.44-3.64 28.22-22.4 28.22-22.4s-.81 15.36 1 22.75c.14.56.31 1.09.48 1.55 2.44 6.46 3.25 6.06 12.98 9.44z"/>
            <path class="st15"
                  d="M390.4 192.96c-7.62 5.22-20.8 7.1-28.75 7.78-.17-4.36-.47-8.13-.47-8.13 19.44-3.64 28.22-22.4 28.22-22.4s-.81 15.36 1 22.75z"/>
            <path class="st16"
                  d="M378.02 93.05s-9.72-30.24 14.58-20.79 7.83 24.3-6.21 26.19c-14.04 1.89-8.37-5.4-8.37-5.4z"/>
            <path class="st8"
                  d="M410.68 152.71s-8.64 14.58-16.83 10.26c-1.25 6.34-4.03 14.71-12.14 21.9-6.38 5.66-16.08 10.58-30.96 13.2-18.63-6.21-28.35-20.8-23.49-41.04-2.7-6.48-6.47-22.14-6.47-22.14l9.98-25.1 18.09-12.15 55.34 29.15 3.07 12.29 3.41 13.63z"/>
            <path class="st9"
                  d="m333.2 138.49 3.02-1.22s-2.02-12.82 8.91-19.98c10.93-7.15-11.47 1.08-11.47 1.08l-3.1 13.36 2.64 6.76zM410.68 152.71s-8.64 14.58-16.83 10.26c-1.25 6.34-4.03 14.71-12.14 21.9 2.67-22.08-6.48-51.23-6.48-51.23l7.02-4.32 24.83 9.45.19.32 3.41 13.62z"/>
            <path class="st13"
                  d="M415.45 168.72c9.53 8.1 11.88 10.08 11.88 10.08l-.02.02c-.71.39-20.8 11.63-37.58 10.21-.64-6.31-.59-8.63-.53-13.32 3.47-5.87 4.66-12.74 4.66-12.74s10.99-1.4 11.32-13.97c.01-.2.02-.41.02-.61 0-13.14-13.14-7.55-15.12-.72-1.98 6.84-1.81 10.44-1.81 10.44s-7.55-2.71-5.04-18.18c-7.73 5.04-12.77-2.52-13.14-7.74-4.14 5.94-17.81 4.86-17.81 4.86s.72-18.89-11.34-19.44c0 0-11.16 5.4-7.74 20.88-16.38 4.68-21.24-1.44-21.24-1.44s1.26-28.97 20.52-32.93c0 0 4.5-20.16 32.04-20.16 18.08 0 29.07 9.23 35.21 17.35 3.2 4.25 5.1 8.19 5.99 10.36 3.42 8.28 6.85 33.47 24.84 32.94.01 0 .01 16.38-15.11 24.11z"/>
            <path class="st16"
                  d="M415.45 168.72c9.53 8.1 11.88 10.08 11.88 10.08l-.02.02c-.71.39-20.8 11.63-37.58 10.21-.64-6.31-.59-8.63-.53-13.32 3.47-5.87 4.66-12.74 4.66-12.74s10.99-1.4 11.32-13.97c.01-.2.02-.41.02-.61 0-13.14-13.14-7.55-15.12-.72-1.98 6.84-1.81 10.44-1.81 10.44s-7.55-2.71-5.04-18.18c-7.73 5.04-12.77-2.52-13.14-7.74 0 0 .41-11.52-9.04-20.15 10.64 7.88 34.51-.25 38.68-10.73 3.2 4.25 5.1 8.19 5.99 10.36 3.42 8.28 6.85 33.47 24.84 32.94.01 0 .01 16.38-15.11 24.11z"/></g>
        <g><path class="st16" d="M333.17 158.28c-.13 0-.27-.01-.4-.02-2.87-.21-4.53-2.66-4.6-2.77a.47.47 0 0 1 .13-.66.47.47 0 0 1 .66.13c.01.02 1.49 2.17 3.89 2.35 1.85.13 3.78-.9 5.76-3.08.18-.2.48-.21.68-.03.2.18.21.48.03.68-2.06 2.25-4.12 3.4-6.15 3.4zM356.49 156.4c-3.46 0-5.9-2.23-5.93-2.26a.474.474 0 0 1-.02-.67c.18-.19.48-.2.68-.02.22.21 5.47 4.96 11.4-.85.19-.18.49-.18.68.01.18.19.18.49-.01.68-2.44 2.36-4.79 3.11-6.8 3.11zM348.73 139.34l1.27 4.19s7.05-2.73 11.67-.53c-1.01-3.76-7.67-5.94-12.94-3.66zM337.62 140.68l-.43 4.29s-6.72-1.76-10.47 1.01c.26-3.83 5.83-6.86 10.9-5.3z"/>
            <path class="st9"
                  d="M334.33 164.32c-.66 2.35 3.6 4.68 5.67 4.68s6.12-2.97 6.12-4.86c0-1.89-10.62-3.96-11.79.18z"/>
            <path class="st15"
                  d="M343.47 179.08c-3.99 0-6.89-1.23-6.95-1.25a.958.958 0 0 1-.49-1.26c.21-.48.77-.71 1.26-.5.39.17 9.63 4.03 17.35-3.47a.95.95 0 0 1 1.35.02c.37.38.36.98-.02 1.35-4.16 4.06-8.8 5.11-12.5 5.11z"/></g>
        </g></svg>