<svg width="56" height="56" viewBox="0 0 56 56" fill="none" xmlns="http://www.w3.org/2000/svg">
<g clip-path="url(#clip0_194_1782)">
<path d="M48.2732 40.9925H2.54077V9.19153C2.54077 8.48989 3.10952 7.92114 3.81116 7.92114H47.0029C47.7046 7.92114 48.2733 8.48989 48.2733 9.19153V40.9925H48.2732Z" fill="#F2F2F2"/>
<path d="M48.2731 9.192V40.9927H31.0247V14.5878C31.0247 11.3744 33.6387 8.76029 36.8522 8.76029L42.2546 7.92139L48.1987 8.76029C48.2465 8.89559 48.2731 9.04106 48.2731 9.192Z" fill="#E2E8F5"/>
<path d="M48.2731 41.825H2.54071C2.08089 41.825 1.70825 41.4523 1.70825 40.9925V9.19147C1.70825 8.03198 2.6515 7.08862 3.8111 7.08862H47.0028C48.1624 7.08862 49.1057 8.03198 49.1057 9.19147V40.9925C49.1056 41.4523 48.7329 41.825 48.2731 41.825ZM3.37316 40.16H47.4406V9.19147C47.4406 8.95008 47.2441 8.75364 47.0027 8.75364H3.81099C3.5696 8.75364 3.37316 8.95008 3.37316 9.19147V40.16Z" fill="#5E6577"/>
<path d="M49.1057 9.19188V40.9926C49.1057 41.4521 48.7328 41.8251 48.2733 41.8251H33.7998V40.1601H47.4407V9.19188C47.4407 8.97543 47.2831 8.79561 47.0766 8.76007C47.0522 8.75558 47.0278 8.75339 47.0022 8.75339H36.8524V7.08838H47.0022C48.0146 7.08838 48.8615 7.80654 49.0602 8.76007C49.0902 8.89886 49.1057 9.04422 49.1057 9.19188Z" fill="#4D5263"/>
<path d="M48.2731 43.0098H2.54067C1.1375 43.0098 0 41.8723 0 40.469V39.8339C0 39.4831 0.284375 39.1987 0.635141 39.1987H50.1786C50.5294 39.1987 50.8138 39.4831 50.8138 39.8339V40.469C50.8138 41.8723 49.6763 43.0098 48.2731 43.0098Z" fill="#5E6577"/>
<path d="M50.8139 39.8337V40.4686C50.8139 41.8727 49.6762 43.0094 48.2731 43.0094H31.0247V39.1987H50.179C50.5297 39.1987 50.8139 39.4829 50.8139 39.8337Z" fill="#4D5263"/>
<path d="M43.6048 25.8603H7.20885C7.08624 25.8603 6.98682 25.7608 6.98682 25.6382V12.5895C6.98682 12.4669 7.08624 12.3674 7.20885 12.3674H43.6048C43.7274 12.3674 43.8268 12.4669 43.8268 12.5895V25.6382C43.8268 25.7608 43.7274 25.8603 43.6048 25.8603Z" fill="#FCE698"/>
<path d="M43.8265 12.5896V25.6378C43.8265 25.761 43.7277 25.8598 43.6044 25.8598H31.0247V14.5877C31.0247 13.8018 31.1812 13.0514 31.4642 12.3677H43.6044C43.7276 12.3676 43.8265 12.4664 43.8265 12.5896Z" fill="#FBD166"/>
<path d="M21.9806 34.7527H7.20885C7.08624 34.7527 6.98682 34.6533 6.98682 34.5307V30.5284C6.98682 30.4058 7.08624 30.3064 7.20885 30.3064H21.9806C22.1032 30.3064 22.2026 30.4058 22.2026 30.5284V34.5307C22.2026 34.6533 22.1032 34.7527 21.9806 34.7527Z" fill="#B7E261"/>
<path d="M38.7456 17.64H27.9476C27.4877 17.64 27.115 17.2673 27.115 16.8076C27.115 16.3477 27.4876 15.9751 27.9476 15.9751H38.7455C39.2053 15.9751 39.5779 16.3478 39.5779 16.8076C39.5781 17.2674 39.2054 17.64 38.7456 17.64Z" fill="#FBD166"/>
<path d="M38.7455 22.2989H30.1415C29.6817 22.2989 29.3091 21.9262 29.3091 21.4665C29.3091 21.0067 29.6817 20.634 30.1415 20.634H38.7455C39.2053 20.634 39.578 21.0068 39.578 21.4665C39.578 21.9263 39.2053 22.2989 38.7455 22.2989Z" fill="#FBD166"/>
<path d="M38.7459 17.6401H31.0247V15.9751H38.7459C39.2054 15.9751 39.5783 16.3481 39.5783 16.8076C39.5784 17.2671 39.2055 17.6401 38.7459 17.6401Z" fill="#F5B742"/>
<path d="M39.5783 21.4664C39.5783 21.9259 39.2054 22.2988 38.7459 22.2988H31.0247V20.6338H38.7459C39.2054 20.6338 39.5783 21.0068 39.5783 21.4664Z" fill="#F5B742"/>
<path d="M18.3584 14.7698L17.416 16.2151C17.3838 16.265 17.3649 16.3216 17.3627 16.3804L17.275 18.1043C17.2683 18.2364 17.1851 18.3518 17.0618 18.3984L15.4479 19.0133C15.3925 19.0344 15.3447 19.07 15.3069 19.1155L14.2258 20.4597C14.1425 20.5629 14.006 20.6073 13.8784 20.5729L12.2134 20.12C12.1556 20.1044 12.0957 20.1044 12.0379 20.12L10.3729 20.5729C10.2453 20.6073 10.1088 20.5629 10.0255 20.4597L8.94436 19.1155C8.90663 19.0689 8.85894 19.0344 8.80337 19.0133L6.98633 18.3206V12.5897C6.98633 12.4664 7.0863 12.3677 7.20836 12.3677H17.0208L18.3584 14.4057C18.4305 14.5156 18.4305 14.6588 18.3584 14.7698Z" fill="#FF976E"/>
<path d="M26.5192 25.8598H16.7988C17.2728 23.6098 19.2686 21.9226 21.6596 21.9226C24.0494 21.9226 26.0452 23.6098 26.5192 25.8598Z" fill="#FF976E"/>
<path d="M31.1266 31.1389H26.6428C26.1829 31.1389 25.8103 30.7661 25.8103 30.3063C25.8103 29.8465 26.1829 29.4739 26.6428 29.4739H31.1266C31.5864 29.4739 31.9591 29.8466 31.9591 30.3063C31.9591 30.766 31.5864 31.1389 31.1266 31.1389Z" fill="#E2E8F5"/>
<path d="M43.8269 35.5852H26.6428C26.1829 35.5852 25.8103 35.2124 25.8103 34.7527C25.8103 34.2929 26.1829 33.9202 26.6428 33.9202H43.8269C44.2867 33.9202 44.6594 34.2929 44.6594 34.7527C44.6593 35.2124 44.2867 35.5852 43.8269 35.5852Z" fill="#E2E8F5"/>
<path d="M44.6589 34.7519C44.6589 35.2126 44.287 35.5845 43.8265 35.5845H31.0247V33.9194H43.8265C44.287 33.9194 44.6589 34.2924 44.6589 34.7519Z" fill="#D4DAF9"/>
<path d="M31.1268 31.1389H31.0247V29.4739H31.1268C31.5864 29.4739 31.9593 29.8468 31.9593 30.3064C31.9593 30.7659 31.5863 31.1389 31.1268 31.1389Z" fill="#D4DAF9"/>
<path d="M52.9474 48.0788H36.8523C35.6262 48.0788 34.6323 47.0849 34.6323 45.8588V14.5874C34.6323 13.3613 35.6262 12.3674 36.8523 12.3674H52.9475C54.1736 12.3674 55.1675 13.3613 55.1675 14.5874V45.8588C55.1674 47.0849 54.1735 48.0788 52.9474 48.0788Z" fill="#F2F2F2"/>
<path d="M52.9474 12.3677H48.7849V12.8782H49.9504C50.8695 12.8782 51.6154 13.6242 51.6154 14.5433V45.9022C51.6154 46.8223 50.8695 47.5672 49.9504 47.5672H48.3884V48.0789H52.9475C54.174 48.0789 55.1675 47.0855 55.1675 45.859V14.5878C55.1674 13.3611 54.174 12.3677 52.9474 12.3677Z" fill="#E2E8F5"/>
<path d="M46.9594 16.5299H42.8406C42.3808 16.5299 42.0081 16.1571 42.0081 15.6974C42.0081 15.2376 42.3807 14.865 42.8406 14.865H46.9594C47.4192 14.865 47.7919 15.2377 47.7919 15.6974C47.7918 16.1571 47.4192 16.5299 46.9594 16.5299Z" fill="#E2E8F5"/>
<path d="M55.1675 19.0273H34.6323V39.1987H45.9578L55.1675 37.7009V19.0273Z" fill="#FCE698"/>
<path d="M51.6155 19.0276H55.1675V25.86H51.6155V19.0276Z" fill="#FBD166"/>
<path d="M55.1676 24.2169V38.7875L46.32 38.5159L45.3424 36.1686L45.243 35.6791C45.2186 35.5614 45.1486 35.4593 45.0487 35.3938L42.458 33.7155C42.2504 33.5823 42.1926 33.3048 42.3281 33.0994L44.032 30.5119C44.0975 30.4131 44.1208 30.2909 44.0953 30.1745L43.4481 27.1452C43.3971 26.9044 43.5514 26.6679 43.7933 26.6179L46.817 25.9952C46.9336 25.9719 47.0356 25.902 47.1001 25.801L48.7761 23.1992C48.9104 22.9916 49.1879 22.9327 49.3944 23.0693L51.6157 24.541L52.0825 25.8233C52.1825 25.8899 52.3046 25.9121 52.421 25.8877L55.1676 24.2169Z" fill="#FF976E"/>
<path d="M52.3047 24.8375C52.1881 24.8619 52.0661 24.8397 51.9662 24.7731L51.6154 24.5411V31.6094C51.6154 34.1833 49.5509 36.3064 46.9769 36.3227C46.9594 36.3228 46.9421 36.3228 46.9246 36.3228C46.3828 36.3228 45.8545 36.2695 45.3428 36.1684L45.9577 39.1988H55.1674V24.217L52.3047 24.8375Z" fill="#FF825C"/>
<path d="M52.9474 48.9114H36.8524C35.1693 48.9114 33.7998 47.542 33.7998 45.8589V14.5875C33.7998 12.9043 35.1692 11.5349 36.8524 11.5349H52.9475C54.6306 11.5349 56.0001 12.9043 56.0001 14.5875V45.8589C56 47.542 54.6306 48.9114 52.9474 48.9114ZM36.8524 13.1999C36.0873 13.1999 35.4648 13.8224 35.4648 14.5875V45.8589C35.4648 46.6239 36.0873 47.2464 36.8524 47.2464H52.9475C53.7126 47.2464 54.3351 46.6239 54.3351 45.8589V14.5875C54.3351 13.8224 53.7126 13.1999 52.9475 13.1999H36.8524Z" fill="#73788C"/>
<path d="M39.0723 32.8471C38.6125 32.8471 38.2397 32.4744 38.2397 32.0147V27.9076C38.2397 27.4478 38.6124 27.0752 39.0723 27.0752C39.5322 27.0752 39.9048 27.4479 39.9048 27.9076V32.0147C39.9048 32.4744 39.5321 32.8471 39.0723 32.8471Z" fill="#FF825C"/>
<path d="M39.0722 35.7128C39.5319 35.7128 39.9047 35.3401 39.9047 34.8803C39.9047 34.4206 39.5319 34.0479 39.0722 34.0479C38.6124 34.0479 38.2397 34.4206 38.2397 34.8803C38.2397 35.3401 38.6124 35.7128 39.0722 35.7128Z" fill="#FF825C"/>
</g>
<defs>
<clipPath id="clip0_194_1782">
<rect width="56" height="56" fill="white"/>
</clipPath>
</defs>
</svg>
