<svg width="56" height="56" viewBox="0 0 56 56" fill="none" xmlns="http://www.w3.org/2000/svg">
<g clip-path="url(#clip0_194_1831)">
<path d="M28.2728 49.3365C27.8059 49.3365 27.4276 48.9581 27.4276 48.4914V31.1545C27.4276 30.6877 27.806 30.3093 28.2728 30.3093C28.7395 30.3093 29.1179 30.6878 29.1179 31.1545V48.4914C29.118 48.9582 28.7396 49.3365 28.2728 49.3365Z" fill="#9FC9FF"/>
<path d="M44.2278 44.973H37.5916C37.1248 44.973 36.7465 44.5946 36.7465 44.1279V31.1545C36.7465 30.6877 37.1249 30.3093 37.5916 30.3093C38.0583 30.3093 38.4367 30.6878 38.4367 31.1545V43.2826H44.2278C44.6946 43.2826 45.073 43.6611 45.073 44.1278C45.073 44.5946 44.6945 44.973 44.2278 44.973Z" fill="#9FC9FF"/>
<path d="M18.954 44.973H12.3178C11.851 44.973 11.4727 44.5946 11.4727 44.1279C11.4727 43.6611 11.8511 43.2827 12.3178 43.2827H18.1089V31.1545C18.1089 30.6877 18.4873 30.3093 18.954 30.3093C19.4207 30.3093 19.7992 30.6878 19.7992 31.1545V44.1278C19.7993 44.5946 19.4208 44.973 18.954 44.973Z" fill="#9FC9FF"/>
<path d="M50.9994 36.7452H46.9767C46.5099 36.7452 46.1316 36.3667 46.1316 35.9V31.1545C46.1316 30.6877 46.51 30.3093 46.9767 30.3093C47.4435 30.3093 47.8219 30.6878 47.8219 31.1545V35.0549H50.9993C51.4661 35.0549 51.8445 35.4333 51.8445 35.9C51.8445 36.3667 51.4662 36.7452 50.9994 36.7452Z" fill="#9FC9FF"/>
<path d="M9.62383 36.7452H5.60112C5.13431 36.7452 4.75598 36.3667 4.75598 35.9C4.75598 35.4333 5.13442 35.0549 5.60112 35.0549H8.77857V31.1545C8.77857 30.6877 9.15701 30.3093 9.62372 30.3093C10.0905 30.3093 10.4689 30.6878 10.4689 31.1545V35.9C10.469 36.3668 10.0906 36.7452 9.62383 36.7452Z" fill="#9FC9FF"/>
<path d="M55.9981 20.7538C55.8893 15.0668 51.132 10.5538 45.4447 10.7595C44.6117 10.7894 43.8268 10.3371 43.4272 9.60561C40.9548 5.08011 36.1517 2.0105 30.6315 2.0105C24.9706 2.0105 20.0663 5.24012 17.6545 9.95637C16.952 11.3301 15.5519 11.1486 14.9541 11.1486C10.5653 11.1486 6.83862 13.9761 5.49188 17.9084C5.2681 18.5617 4.73304 19.0528 4.0816 19.2817C1.63269 20.1425 -0.102103 22.5197 0.00453747 25.2866C0.131741 28.5869 2.94115 31.1525 6.24383 31.1525H45.5988C51.3181 31.1525 56.1076 26.472 55.9981 20.7538Z" fill="#9DC6FB"/>
<path d="M12.9338 25.2866C12.8271 22.5196 14.5618 20.1424 17.0108 19.2817C17.6623 19.0527 18.1973 18.5616 18.4211 17.9084C19.7678 13.9761 23.4945 11.1486 27.8834 11.1486C28.4811 11.1486 29.8811 11.3301 30.5836 9.95637C32.006 7.17497 34.2958 4.91145 37.0959 3.52162C35.1477 2.5554 32.9535 2.0105 30.6315 2.0105C24.9706 2.0105 20.0663 5.24012 17.6545 9.95637C16.952 11.3301 15.5519 11.1486 14.9541 11.1486C10.5653 11.1486 6.83862 13.9761 5.49188 17.9084C5.2681 18.5617 4.73304 19.0528 4.0816 19.2817C1.63269 20.1425 -0.102103 22.5197 0.00453747 25.2866C0.131741 28.5869 2.94115 31.1524 6.24383 31.1524H19.1731C15.8704 31.1524 13.0611 28.5868 12.9338 25.2866Z" fill="#80B4FB"/>
<path d="M28.2727 53.9895C29.791 53.9895 31.0217 52.7587 31.0217 51.2405C31.0217 49.7222 29.791 48.4915 28.2727 48.4915C26.7545 48.4915 25.5237 49.7222 25.5237 51.2405C25.5237 52.7587 26.7545 53.9895 28.2727 53.9895Z" fill="#FFE181"/>
<path d="M46.4078 46.3079C47.6119 46.3079 48.588 45.3318 48.588 44.1277C48.588 42.9236 47.6119 41.9475 46.4078 41.9475C45.2038 41.9475 44.2277 42.9236 44.2277 44.1277C44.2277 45.3318 45.2038 46.3079 46.4078 46.3079Z" fill="#FFE181"/>
<path d="M10.1377 46.3079C11.3418 46.3079 12.3179 45.3318 12.3179 44.1277C12.3179 42.9236 11.3418 41.9475 10.1377 41.9475C8.93362 41.9475 7.95752 42.9236 7.95752 44.1277C7.95752 45.3318 8.93362 46.3079 10.1377 46.3079Z" fill="#FFE181"/>
<path d="M52.7935 37.6941C53.7843 37.6941 54.5875 36.8909 54.5875 35.9C54.5875 34.9092 53.7843 34.106 52.7935 34.106C51.8026 34.106 50.9994 34.9092 50.9994 35.9C50.9994 36.8909 51.8026 37.6941 52.7935 37.6941Z" fill="#FFE181"/>
<path d="M3.80702 37.6941C4.79786 37.6941 5.6011 36.8909 5.6011 35.9C5.6011 34.9092 4.79786 34.106 3.80702 34.106C2.81618 34.106 2.01294 34.9092 2.01294 35.9C2.01294 36.8909 2.81618 37.6941 3.80702 37.6941Z" fill="#FFE181"/>
<path d="M27.994 51.2405C27.994 50.1665 28.6101 49.2372 29.5079 48.7847C29.1364 48.5975 28.7171 48.4915 28.2727 48.4915C26.7545 48.4915 25.5237 49.7223 25.5237 51.2405C25.5237 52.7587 26.7545 53.9895 28.2727 53.9895C28.7171 53.9895 29.1364 53.8834 29.5079 53.6963C28.6101 53.2438 27.994 52.3144 27.994 51.2405Z" fill="#FEC458"/>
<path d="M46.3599 44.1277C46.3599 43.3112 46.8096 42.6006 47.474 42.227C47.1587 42.0497 46.7955 41.9475 46.408 41.9475C45.204 41.9475 44.2278 42.9236 44.2278 44.1277C44.2278 45.3318 45.2038 46.3079 46.408 46.3079C46.7955 46.3079 47.1587 46.2057 47.474 46.0284C46.8095 45.6549 46.3599 44.9443 46.3599 44.1277Z" fill="#FEC458"/>
<path d="M10.0897 44.1277C10.0897 43.3112 10.5393 42.6006 11.2038 42.227C10.8884 42.0497 10.5252 41.9475 10.1377 41.9475C8.93358 41.9475 7.95752 42.9236 7.95752 44.1277C7.95752 45.3317 8.93358 46.3079 10.1377 46.3079C10.5252 46.3079 10.8884 46.2057 11.2038 46.0284C10.5393 45.6549 10.0897 44.9443 10.0897 44.1277Z" fill="#FEC458"/>
<path d="M52.7935 35.9C52.7935 35.2363 53.1547 34.6583 53.6905 34.3479C53.4263 34.1949 53.1206 34.106 52.7935 34.106C51.8026 34.106 50.9994 34.9092 50.9994 35.9C50.9994 36.8909 51.8026 37.6941 52.7935 37.6941C53.1206 37.6941 53.4264 37.6051 53.6905 37.4522C53.1548 37.1419 52.7935 36.5637 52.7935 35.9Z" fill="#FEC458"/>
<path d="M3.80702 35.9C3.80702 35.2363 4.16828 34.6583 4.70411 34.3479C4.43997 34.1949 4.13427 34.106 3.80702 34.106C2.81619 34.106 2.01294 34.9092 2.01294 35.9C2.01294 36.8909 2.81619 37.6941 3.80702 37.6941C4.13416 37.6941 4.43997 37.6051 4.70411 37.4522C4.16828 37.1419 3.80702 36.5637 3.80702 35.9Z" fill="#FEC458"/>
</g>
<defs>
<clipPath id="clip0_194_1831">
<rect width="56" height="56" fill="white"/>
</clipPath>
</defs>
</svg>
