<svg width="56" height="56" viewBox="0 0 56 56" fill="none" xmlns="http://www.w3.org/2000/svg">
<mask id="mask0_194_1653" style="mask-type:luminance" maskUnits="userSpaceOnUse" x="0" y="0" width="56" height="56">
<path d="M0 3.8147e-06H56V56H0V3.8147e-06Z" fill="white"/>
</mask>
<g mask="url(#mask0_194_1653)">
<path d="M54.449 34.3123C55.6173 32.9748 56.1719 31.1101 55.9532 29.255L55.2234 23.0667C54.4351 16.3818 49.755 10.7253 43.184 8.51564L36.4561 10.7782C34.0084 11.6012 32.2191 13.9557 31.8845 16.7939L30.4148 29.255C30.196 31.1101 30.7508 32.9748 31.9191 34.3123C32.9419 35.483 34.3425 36.1429 35.8049 36.1429H50.5632C52.0255 36.1429 53.4262 35.483 54.449 34.3123Z" fill="#C86D36"/>
<path d="M55.9532 29.255L55.2234 23.0667C54.4351 16.3817 49.755 10.7253 43.184 8.51553L41.6719 9.02401C47.5351 11.5144 51.6404 16.8446 52.3742 23.0667L53.1041 29.255C53.3228 31.1101 52.7682 32.9748 51.5998 34.3123C50.5771 35.4829 49.1763 36.1429 47.714 36.1429H50.5632C52.0255 36.1429 53.4262 35.4829 54.449 34.3123C55.6173 32.9748 56.1719 31.1101 55.9532 29.255Z" fill="#AC5E2E"/>
<path d="M36.6425 36.1429C33.8944 36.1429 31.6665 38.3707 31.6665 41.1189V49H54.7015V41.1189C54.7015 38.3707 52.4737 36.1429 49.7255 36.1429H36.6425Z" fill="#F58A97"/>
<path d="M49.7254 36.1429H47.1138C49.8619 36.1429 52.0898 38.3707 52.0898 41.1189V49H54.7014V41.1189C54.7014 38.3707 52.4736 36.1429 49.7254 36.1429Z" fill="#F07181"/>
<path d="M43.184 40.66C40.946 40.66 39.1318 38.8458 39.1318 36.6078V26.8562H47.2361V36.6078C47.2361 38.8458 45.4219 40.66 43.184 40.66Z" fill="#FFAF9E"/>
<path d="M39.1318 34.874C40.0134 35.2847 40.9685 35.5641 41.9723 35.6859C41.971 35.686 41.9698 35.6862 41.9686 35.6863C43.8568 35.9173 45.6633 35.5909 47.2361 34.8454V26.8563H39.1318V34.874Z" fill="#FFA78F"/>
<path d="M48.0459 19.9731H52.6608C54.435 19.9731 55.8733 21.4114 55.8733 23.1857V23.2055C55.8733 24.9796 54.435 26.418 52.6608 26.418H48.0459V19.9731Z" fill="#FFA78F"/>
<path d="M38.263 26.418H33.6481C31.8738 26.418 30.4355 24.9797 30.4355 23.2055V23.1857C30.4355 21.4115 31.8738 19.9731 33.6481 19.9731H38.263V26.418Z" fill="#FFAF9E"/>
<path d="M43.0369 12.0569C37.8515 12.1034 33.6621 16.3207 33.6621 21.5171V24.8708C33.6621 30.0672 37.8515 34.2845 43.0369 34.331C48.2223 34.2845 52.4116 30.0672 52.4116 24.8708V21.5171C52.4116 16.3207 48.2223 12.1034 43.0369 12.0569Z" fill="#FFCEBF"/>
<path d="M43.169 30.1617C41.6774 30.1617 40.4639 28.9482 40.4639 27.4565C40.4639 27.1096 40.7451 26.8283 41.092 26.8283C41.4391 26.8283 41.7203 27.1096 41.7203 27.4565C41.7203 28.2554 42.3702 28.9053 43.169 28.9053C43.9679 28.9053 44.6178 28.2554 44.6178 27.4565C44.6178 27.1096 44.899 26.8283 45.246 26.8283C45.593 26.8283 45.8742 27.1096 45.8742 27.4565C45.8742 28.9482 44.6607 30.1617 43.169 30.1617Z" fill="#FFA799"/>
<path d="M37.7822 26.4375H36.3852C36.0383 26.4375 35.7571 26.7188 35.7571 27.0657C35.7571 27.4126 36.0383 27.6938 36.3852 27.6938H37.7822C38.1291 27.6938 38.4103 27.4126 38.4103 27.0657C38.4103 26.7188 38.1291 26.4375 37.7822 26.4375Z" fill="#FE8F83"/>
<path d="M47.9576 25.7399C47.6107 25.7399 47.3293 25.4587 47.3293 25.1117V23.3108C47.3293 22.9639 47.6107 22.6826 47.9576 22.6826H48.7319C49.0788 22.6826 49.3601 22.9639 49.3601 23.3108C49.3601 23.6578 49.0788 23.939 48.7319 23.939H48.5857V25.1117C48.5857 25.4587 48.3045 25.7399 47.9576 25.7399Z" fill="#5A5A5A"/>
<path d="M38.4103 25.7399C38.0634 25.7399 37.7821 25.4587 37.7821 25.1117V23.939H37.6361C37.2891 23.939 37.0078 23.6578 37.0078 23.3108C37.0078 22.9639 37.2891 22.6826 37.6361 22.6826H38.4103C38.7573 22.6826 39.0386 22.9639 39.0386 23.3108V25.1117C39.0386 25.4587 38.7573 25.7399 38.4103 25.7399Z" fill="#5A5A5A"/>
<path d="M43.1878 12.0557H43.1234C42.7324 12.0557 42.3471 12.08 41.9685 12.1261C46.649 12.6958 50.2748 16.6827 50.2748 21.517V24.8709C50.2748 29.7051 46.649 33.6921 41.9685 34.2618C42.3471 34.3079 42.7324 34.332 43.1234 34.332H43.1878C48.4131 34.332 52.6491 30.0962 52.6491 24.8709V21.517C52.6491 16.2917 48.4131 12.0557 43.1878 12.0557Z" fill="#FFAF9E"/>
<path d="M49.9826 26.4375H48.5858C48.2388 26.4375 47.9575 26.7188 47.9575 27.0657C47.9575 27.4126 48.2388 27.6938 48.5858 27.6938H49.9826C50.3295 27.6938 50.6108 27.4126 50.6108 27.0657C50.6108 26.7188 50.3295 26.4375 49.9826 26.4375Z" fill="#FE8F83"/>
<path d="M40.234 20.8077H42.1334L46.2263 14.3234L41.3682 12.2201C38.2991 12.796 35.7522 14.8527 34.4995 17.621C35.692 19.534 37.8138 20.8077 40.234 20.8077Z" fill="#FFAF9E"/>
<path d="M54.8207 20.8077H42.1333C38.403 20.8077 35.3792 17.7838 35.3792 14.0536V13.6082C35.3792 10.1637 38.1715 7.37135 41.616 7.37135H46.1245C50.9272 7.37135 54.8207 11.2648 54.8207 16.0676V20.8077Z" fill="#D77F4A"/>
<path d="M45.9189 7.37135H42.9897C47.906 7.37135 51.8916 11.1749 51.8916 15.8667V20.8077H54.8207V15.8667C54.8207 11.1749 50.8352 7.37135 45.9189 7.37135Z" fill="#C86D36"/>
<path d="M22.9225 36.2813H6.06998H5.5778H4.68464C2.09737 36.2813 0 38.3787 0 40.966V49H27.6071V40.966C27.6071 38.3787 25.5097 36.2813 22.9225 36.2813Z" fill="#3C87D0"/>
<path d="M23.4146 36.2813H20.4614C23.0487 36.2813 25.1461 38.3787 25.1461 40.966V49H28.0992V40.966C28.0992 38.3787 26.0018 36.2813 23.4146 36.2813Z" fill="#0078C8"/>
<path d="M14.0495 41.0853C11.7975 41.0853 9.97192 39.2597 9.97192 37.0077V27.1948H18.1271V37.0077C18.1271 39.2597 16.3016 41.0853 14.0495 41.0853Z" fill="#FFAF9E"/>
<path d="M9.97217 35.0262C11.1761 35.5697 12.5092 35.8777 13.9129 35.8903C15.4239 35.8767 16.8532 35.5216 18.1274 34.8982V27.6869H9.97217V35.0262Z" fill="#FFA78F"/>
<path d="M19.1045 19.2857H23.8878C25.7268 19.2857 27.2176 20.7765 27.2176 22.6155V22.636C27.2176 24.475 25.7268 25.9659 23.8878 25.9659H19.1045V19.2857Z" fill="#FFA78F"/>
<path d="M14.8678 8.88208H6.63527C3.72667 8.88208 1.46917 11.4195 1.80757 14.3083L2.86545 23.3385H14.8678V8.88208Z" fill="#AA6A51"/>
<path d="M8.96454 25.9658H4.18124C2.34221 25.9658 0.851318 24.475 0.851318 22.636V22.6156C0.851318 20.7765 2.34221 19.2856 4.18124 19.2856H8.96454V25.9658Z" fill="#FFAF9E"/>
<path d="M13.9129 11.0805C8.53823 11.1287 4.19604 15.4999 4.19604 20.886V24.3621C4.19604 29.7482 8.53823 34.1194 13.9129 34.1676C19.2876 34.1194 23.6299 29.7482 23.6299 24.3621V20.886C23.6299 15.4999 19.2876 11.1287 13.9129 11.0805Z" fill="#FFCEBF"/>
<path d="M14.0346 30.0621C12.5232 30.0621 11.2935 28.8324 11.2935 27.3209C11.2935 26.9613 11.5851 26.6698 11.9446 26.6698C12.3042 26.6698 12.5957 26.9613 12.5957 27.3209C12.5957 28.1143 13.2412 28.7599 14.0346 28.7599C14.828 28.7599 15.4736 28.1143 15.4736 27.3209C15.4736 26.9613 15.765 26.6698 16.1247 26.6698C16.4843 26.6698 16.7758 26.9613 16.7758 27.3209C16.7758 28.8324 15.5461 30.0621 14.0346 30.0621Z" fill="#FFA799"/>
<path d="M9.23094 24.8958C8.87132 24.8958 8.57983 24.6042 8.57983 24.2447V22.4325C8.57983 22.0727 8.87132 21.7813 9.23094 21.7813C9.59057 21.7813 9.88205 22.0727 9.88205 22.4325V24.2447C9.88205 24.6042 9.59057 24.8958 9.23094 24.8958Z" fill="#5A5A5A"/>
<path d="M18.8381 24.8958C18.4785 24.8958 18.187 24.6042 18.187 24.2447V22.4325C18.187 22.0727 18.4785 21.7813 18.8381 21.7813C19.1977 21.7813 19.4892 22.0727 19.4892 22.4325V24.2447C19.4892 24.6042 19.1977 24.8958 18.8381 24.8958Z" fill="#5A5A5A"/>
<path d="M8.57973 26.0187H7.13182C6.77231 26.0187 6.48071 26.3103 6.48071 26.6698C6.48071 27.0294 6.77231 27.3209 7.13182 27.3209H8.57973C8.93935 27.3209 9.23084 27.0294 9.23084 26.6698C9.23084 26.3103 8.93935 26.0187 8.57973 26.0187Z" fill="#FE8F83"/>
<path d="M14.0692 11.0794H14.0025C13.5547 11.0794 13.1142 11.11 12.6824 11.1682C17.474 11.813 21.1689 15.9177 21.1689 20.8859V24.3621C21.1689 29.3303 17.474 33.4352 12.6824 34.0801C13.1142 34.1381 13.5547 34.1688 14.0025 34.1688H14.0692C19.4853 34.1688 23.8759 29.7781 23.8759 24.3621V20.8859C23.8759 15.4699 19.4853 11.0794 14.0692 11.0794Z" fill="#FFAF9E"/>
<path d="M20.9372 26.0187H19.4892C19.1297 26.0187 18.8381 26.3103 18.8381 26.6698C18.8381 27.0294 19.1297 27.3209 19.4892 27.3209H20.9372C21.2968 27.3209 21.5883 27.0294 21.5883 26.6698C21.5883 26.3103 21.2968 26.0187 20.9372 26.0187Z" fill="#FE8F83"/>
<path d="M9.84805 19.2858H12.1976V11.2476C8.90064 11.8612 6.18333 14.1227 4.93481 17.1467C6.16102 18.4622 7.90785 19.2858 9.84805 19.2858Z" fill="#FFAF9E"/>
<path d="M26.0184 19.2857H12.555C8.8454 19.2857 5.83813 16.2784 5.83813 12.5689V10.7608C5.83813 8.04972 8.03581 5.85205 10.7469 5.85205H19.3826C23.0474 5.85205 26.0184 8.823 26.0184 12.4879V19.2857Z" fill="#AA6A51"/>
<path d="M19.3826 5.852H16.4294C20.0943 5.852 23.0652 8.82306 23.0652 12.4879V19.2858H26.0185V12.4879C26.0185 8.82306 23.0475 5.852 19.3826 5.852Z" fill="#935B44"/>
</g>
</svg>
