<svg width="56" height="56" viewBox="0 0 56 56" fill="none" xmlns="http://www.w3.org/2000/svg">
<g clip-path="url(#clip0_194_1730)">
<path d="M11.2014 10.9109V52.2667C11.2014 54.3286 12.8729 56 14.9347 56H50.4016C52.4635 56 54.1349 54.3286 54.1349 52.2667V10.9109H11.2014Z" fill="#F9F5F3"/>
<path d="M51.5434 10.9109V52.2667C51.5434 54.3286 49.8719 56 47.8101 56H50.4016C52.4635 56 54.1349 54.3286 54.1349 52.2667V10.9109H51.5434Z" fill="#F9EAE0"/>
<path d="M24.5538 43.5394L9.98461 28.9701L4.70483 34.2499L19.2741 48.8191C19.3665 48.9115 19.4768 48.9817 19.5968 49.0265C19.6965 49.0636 19.8053 48.9752 19.9137 48.9752L20.7161 49.0831L24.8178 44.9814L24.4519 44.2474C24.452 44.0083 24.723 43.7084 24.5538 43.5394Z" fill="#A0C8FF"/>
<path d="M24.5537 43.5394L9.98448 28.9701L8.69141 30.2632L23.7681 45.3399C23.8917 45.4635 23.9752 45.6195 24.0114 45.7877L24.8177 44.9814L24.6841 44.1932C24.6841 44.0839 24.7979 43.9602 24.7601 43.8598C24.7155 43.7406 24.6455 43.6311 24.5537 43.5394Z" fill="#91B2FA"/>
<path d="M26.1377 51.2481C25.9214 51.2481 25.7051 51.1656 25.5402 51.0005L22.5234 47.9838C22.1934 47.6537 22.1934 47.1186 22.5234 46.7886C22.8534 46.4586 23.3885 46.4586 23.7186 46.7886L26.7353 49.8054C27.0654 50.1354 27.0654 50.6705 26.7353 51.0004C26.5703 51.1655 26.354 51.2481 26.1377 51.2481Z" fill="#868EAF"/>
<path d="M7.0896 32.553L8.28453 31.358L22.7686 45.8421L21.5737 47.037L7.0896 32.553Z" fill="#91B2FA"/>
<path d="M24.8179 48.1816V44.1767C24.8179 44.0678 24.7973 43.9614 24.7599 43.8613L19.5962 49.025C19.6962 49.0624 19.8027 49.083 19.9116 49.083H23.9165C24.4143 49.083 24.8179 48.6795 24.8179 48.1816Z" fill="#F9EAE0"/>
<path d="M5.05188 26.6773L2.41199 29.3172C1.68298 30.0462 1.68298 31.228 2.41199 31.9571L5.05188 34.5969L10.3317 29.3172L7.69177 26.6773C6.96276 25.9483 5.78078 25.9483 5.05188 26.6773Z" fill="#FA8EBB"/>
<path d="M5.07861 26.6529C5.0874 26.6614 5.09687 26.6686 5.10543 26.6772L9.03839 30.6101L10.3315 29.317L7.69157 26.6772C6.97123 25.9568 5.80943 25.9496 5.07861 26.6529Z" fill="#F57FB0"/>
<path d="M47.6014 19.5118H17.7347C17.268 19.5118 16.8896 19.1334 16.8896 18.6667C16.8896 18.2 17.268 17.8216 17.7347 17.8216H47.6014C48.0681 17.8216 48.4465 18.2 48.4465 18.6667C48.4465 19.1334 48.0681 19.5118 47.6014 19.5118Z" fill="#868EAF"/>
<path d="M47.6014 25.1118H17.7347C17.268 25.1118 16.8896 24.7334 16.8896 24.2667C16.8896 23.8 17.268 23.4216 17.7347 23.4216H47.6014C48.0681 23.4216 48.4465 23.8 48.4465 24.2667C48.4465 24.7334 48.0681 25.1118 47.6014 25.1118Z" fill="#868EAF"/>
<path d="M47.6014 30.7118H17.7347C17.268 30.7118 16.8896 30.3334 16.8896 29.8667C16.8896 29.4 17.268 29.0216 17.7347 29.0216H47.6014C48.0681 29.0216 48.4465 29.4 48.4465 29.8667C48.4465 30.3334 48.0681 30.7118 47.6014 30.7118Z" fill="#868EAF"/>
<path d="M47.6014 36.3118H17.7347C17.268 36.3118 16.8896 35.9334 16.8896 35.4667C16.8896 35 17.268 34.6216 17.7347 34.6216H47.6014C48.0681 34.6216 48.4465 35 48.4465 35.4667C48.4465 35.9334 48.0681 36.3118 47.6014 36.3118Z" fill="#868EAF"/>
<path d="M47.6016 41.9118H28.0016C27.5349 41.9118 27.1565 41.5334 27.1565 41.0667C27.1565 40.6 27.5349 40.2216 28.0016 40.2216H47.6016C48.0683 40.2216 48.4466 40.6 48.4466 41.0667C48.4466 41.5335 48.0683 41.9118 47.6016 41.9118Z" fill="#868EAF"/>
<path d="M50.4016 3.7334H14.9347C12.8729 3.7334 11.2014 5.40483 11.2014 7.46669V13.0668H54.1348V7.46658C54.1349 5.40483 52.4635 3.7334 50.4016 3.7334Z" fill="#FFCE69"/>
<path d="M50.4016 3.7334H47.8101C49.8719 3.7334 51.5434 5.40483 51.5434 7.46669V13.0668H54.1349V7.46658C54.1349 5.40483 52.4635 3.7334 50.4016 3.7334Z" fill="#FFBD61"/>
<path d="M16.8015 5.6C16.8015 6.63099 17.6372 7.4667 18.6682 7.4667C19.6992 7.4667 20.5349 6.63099 20.5349 5.6V1.8667C20.5349 0.835718 19.6991 0 18.6682 0C17.6372 0 16.8015 0.835718 16.8015 1.8667V5.6Z" fill="#BDD3DD"/>
<path d="M44.8015 5.6C44.8015 6.63099 45.6372 7.4667 46.6682 7.4667C47.6992 7.4667 48.5349 6.63099 48.5349 5.6V1.8667C48.5349 0.835718 47.6992 0 46.6682 0C45.6372 0 44.8015 0.835718 44.8015 1.8667V5.6Z" fill="#BDD3DD"/>
<path d="M26.1348 5.6C26.1348 6.63099 26.9705 7.4667 28.0015 7.4667C29.0325 7.4667 29.8682 6.63099 29.8682 5.6V1.8667C29.8682 0.835718 29.0325 0 28.0015 0C26.9705 0 26.1348 0.835718 26.1348 1.8667V5.6Z" fill="#BDD3DD"/>
<path d="M35.4683 5.6C35.4683 6.63099 36.304 7.4667 37.335 7.4667C38.366 7.4667 39.2017 6.63099 39.2017 5.6V1.8667C39.2017 0.835718 38.366 0 37.335 0C36.304 0 35.4683 0.835718 35.4683 1.8667V5.6Z" fill="#BDD3DD"/>
<path d="M46.6683 0C46.1647 0 45.7083 0.200451 45.3726 0.524732C45.724 0.864225 45.9435 1.33949 45.9435 1.8667V5.6C45.9435 6.12721 45.724 6.60248 45.3726 6.94197C45.7083 7.26625 46.1647 7.4667 46.6683 7.4667C47.6993 7.4667 48.535 6.63099 48.535 5.6V1.8667C48.535 0.835718 47.6993 0 46.6683 0Z" fill="#ABC4D6"/>
<path d="M37.3348 0C36.8311 0 36.3748 0.200451 36.0391 0.524732C36.3905 0.864225 36.61 1.33949 36.61 1.8667V5.6C36.61 6.12721 36.3905 6.60248 36.0391 6.94197C36.3748 7.26625 36.8311 7.4667 37.3348 7.4667C38.3658 7.4667 39.2015 6.63099 39.2015 5.6V1.8667C39.2015 0.835718 38.3657 0 37.3348 0Z" fill="#ABC4D6"/>
<path d="M28.0016 0C27.4979 0 27.0416 0.200451 26.7058 0.524732C27.0572 0.864225 27.2767 1.33949 27.2767 1.8667V5.6C27.2767 6.12721 27.0572 6.60248 26.7058 6.94197C27.0416 7.26625 27.4979 7.4667 28.0016 7.4667C29.0326 7.4667 29.8683 6.63099 29.8683 5.6V1.8667C29.8683 0.835718 29.0326 0 28.0016 0Z" fill="#ABC4D6"/>
<path d="M18.6683 0C18.1647 0 17.7083 0.200451 17.3726 0.524732C17.724 0.864225 17.9435 1.33949 17.9435 1.8667V5.6C17.9435 6.12721 17.724 6.60248 17.3726 6.94197C17.7083 7.26625 18.1647 7.4667 18.6683 7.4667C19.6993 7.4667 20.535 6.63099 20.535 5.6V1.8667C20.535 0.835718 19.6993 0 18.6683 0Z" fill="#ABC4D6"/>
</g>
<defs>
<clipPath id="clip0_194_1730">
<rect width="56" height="56" fill="white"/>
</clipPath>
</defs>
</svg>
