<svg width="56" height="56" viewBox="0 0 56 56" fill="none" xmlns="http://www.w3.org/2000/svg">
<path d="M43.6856 0.0103808C41.8416 0.107834 40.1738 0.910318 38.8283 1.84919L38.5186 3.25149L39.659 4.2969L41.5606 4.18588C42.2772 3.78513 43.0623 3.49463 43.8675 3.45208C45.1152 3.38613 46.2711 3.94744 47.4009 5.16818C48.6731 6.5428 48.8874 8.23013 48.561 9.92205L48.8092 11.4152L50.2744 12.6786L51.4663 12.3322C53.069 7.66958 51.5961 4.6271 49.9302 2.82701C48.0877 0.836381 45.9867 -0.111244 43.6856 0.0103808Z" fill="#71AA52"/>
<path d="M50.5377 14.5213C50.9217 13.7547 51.2275 13.0256 51.4659 12.332L48.5604 9.92184C48.4046 10.7295 48.1265 11.5381 47.7808 12.3142V14.5774H50.5091C50.5184 14.5586 50.5282 14.5401 50.5377 14.5213Z" fill="#68994B"/>
<path d="M36.9917 3.36491V5.58162H39.6639C40.2082 5.08637 40.8752 4.56334 41.6121 4.15843L38.8283 1.8493C38.1367 2.33187 37.5307 2.85019 37.0291 3.32751L36.9917 3.36491Z" fill="#68994B"/>
<path d="M23.5286 15.0771C23.5286 15.0771 21.0412 9.97433 23.7571 6.01277C23.7933 5.95994 23.8513 5.92964 23.9063 5.90547C24.0714 5.83284 24.2728 5.86424 24.4087 6.00019L29.3785 10.97L28.1741 14.2175L24.8812 15.4673L23.5286 15.0771Z" fill="#FFC265"/>
<path d="M23.9468 5.89246C23.8767 5.91564 23.8107 5.95436 23.7573 6.01288C19.1169 11.0967 23.2147 17.134 23.2147 17.134H24.7942L24.8815 15.4673C24.0686 13.6879 21.9915 9.22369 23.9468 5.89246Z" fill="#FFB541"/>
<path d="M11.2684 33.3109C9.35193 31.5751 5.86943 31.8827 5.53245 31.917C5.51506 31.9188 5.44462 34.8907 7.45996 36.7161C9.47531 38.5415 12.779 36.5029 12.779 36.5029C12.6353 35.4468 12.2445 34.1949 11.2684 33.3109Z" fill="#AEE295"/>
<path d="M14.4398 33.3109C16.3562 31.5751 19.8387 31.8827 20.1757 31.917C20.1931 31.9188 20.2636 34.8907 18.2482 36.7161C16.2329 38.5415 12.9292 36.5029 12.9292 36.5029C13.0728 35.4468 13.4637 34.1949 14.4398 33.3109Z" fill="#AEE295"/>
<path d="M20.2023 31.9199C20.2023 31.9199 20.1916 31.9187 20.1758 31.917C20.032 32.9727 19.6419 34.2231 18.6663 35.1065C16.7448 36.8468 13.1735 36.5004 12.854 36.5004C12.5301 36.5004 8.96325 36.8468 7.04175 35.1065C6.06623 34.223 5.67598 32.9727 5.53226 31.917C5.51651 31.9187 5.5059 31.9199 5.5059 31.9199C5.5059 31.9199 5.0264 35.3136 7.04175 37.1388C8.47882 38.4404 10.7953 38.5928 12.0069 38.5734V43.6421C12.0069 44.1098 12.386 44.4889 12.8537 44.4889C13.3214 44.4889 13.7005 44.1098 13.7005 43.6421V38.5734C14.912 38.5929 17.229 38.4405 18.6662 37.1388C20.6818 35.3136 20.2023 31.9199 20.2023 31.9199Z" fill="#98DB7C"/>
<path d="M18.947 47.4402L20.4669 48.4881L19.199 54.2289C18.9705 55.2634 18.0534 56 16.9939 56H12.854H8.7142C7.65468 56 6.73768 55.2634 6.50909 54.2288L5.24121 48.488L6.76109 47.4401H18.947V47.4402Z" fill="#DD8858"/>
<path d="M20.9157 45.338H4.79248V46.4557L4.79259 46.4558L5.24136 48.488H20.4668L20.9157 46.4558H20.9156L20.9157 46.4557V45.338Z" fill="#D97F4A"/>
<path d="M21.2319 45.0327H4.47618C3.95162 45.0327 3.52637 44.6075 3.52637 44.0829V43.602C3.52637 43.0774 3.95162 42.6522 4.47618 42.6522H21.2319C21.7564 42.6522 22.1817 43.0774 22.1817 43.602V44.0829C22.1817 44.6075 21.7564 45.0327 21.2319 45.0327Z" fill="#FFC265"/>
<path d="M21.2319 44.5595H4.47618C3.95162 44.5595 3.52637 44.1342 3.52637 43.6096V45.5059C3.52637 46.0304 3.95162 46.4557 4.47618 46.4557H21.2319C21.7564 46.4557 22.1817 46.0304 22.1817 45.5059V43.6096C22.1817 44.1342 21.7564 44.5595 21.2319 44.5595Z" fill="#FFB541"/>
<path d="M31.4495 29.4677L16.4688 26.0553L15.6032 24.9178L14.4858 23.7901L15.8414 22.3456L26.416 20.9933L30.8256 23.7901L32.8142 28.7068L31.4495 29.4677Z" fill="#71AA52"/>
<path d="M15.0288 26.3879L15.603 24.9178L15.8411 22.3458C15.8411 22.3458 15.2098 20.3815 12.0872 19.8983C11.7653 19.8485 11.4666 20.0768 11.4349 20.401L10.8442 26.4464L11.2975 27.689L15.0288 26.3879Z" fill="#FFC265"/>
<path d="M10.8443 26.4463L10.7083 27.839C10.6778 28.1518 10.908 28.4281 11.2209 28.4564C12.233 28.5481 14.3498 28.5031 15.4334 26.7501L16.4685 26.0553L15.603 24.9178C14.1581 27.0236 11.1829 26.5125 10.8443 26.4463Z" fill="#FFB541"/>
<path d="M15.4336 26.7501L35.0268 31.3741L35.1491 29.6717L32.8143 28.7068L15.6032 24.9178L15.4336 26.7501Z" fill="#68994B"/>
<path d="M51.4642 20.263L41.6399 30.0873L40.8512 30.8879C39.416 32.3231 37.0574 32.2135 35.7615 30.6512L24.8815 17.4823L24.8762 15.4723L36.9874 3.3613L51.2275 15.1734C52.7898 16.4692 52.8994 18.8278 51.4642 20.263Z" fill="#AEE295"/>
<path d="M36.6922 29.7165L24.8801 15.4764L23.2146 17.134L35.0267 31.3741C36.3225 32.9363 38.6811 33.046 40.1163 31.6108L41.6398 30.0873C40.1952 31.3797 37.9462 31.2283 36.6922 29.7165Z" fill="#98DB7C"/>
</svg>
