<svg width="56" height="56" viewBox="0 0 56 56" fill="none" xmlns="http://www.w3.org/2000/svg">
<path d="M13.3626 9.58378C13.3626 18.618 25.932 25.6808 27.7615 26.6216C27.9114 26.6987 28.0883 26.6987 28.2382 26.6216C30.0677 25.6809 42.6372 18.9382 42.6372 9.58378C42.6373 9.58388 42.6374 9.58398 42.6375 9.58398C42.6235 9.43154 42.6062 9.27859 42.5852 9.12502C41.2884 -0.354003 29.8093 0.582403 27.9999 6.35653C26.1904 0.582403 14.7114 -0.354003 13.4146 9.12502C13.3936 9.27869 13.3763 9.43174 13.3623 9.58419C13.3624 9.58399 13.3625 9.58388 13.3626 9.58378Z" fill="#DA4A54"/>
<path d="M27.7618 25.7076C25.9322 24.7669 14.1649 18.3894 13.3628 9.5838C12.4656 19.3533 25.7983 26.5849 27.7605 27.594C27.9113 27.6715 28.0889 27.6715 28.2397 27.594C30.202 26.5849 43.5346 19.3533 42.6374 9.5838C41.8353 18.3894 30.068 24.7668 28.2384 25.7076C28.0885 25.7846 27.9116 25.7846 27.7618 25.7076Z" fill="#D82E3D"/>
<path d="M8.97058 19.8668L10.0944 28.0001C10.1766 28.2928 10.4891 28.4522 10.7757 28.351C11.1866 28.2059 12.9994 27.3214 12.9994 27.3214V21.1617C12.9994 19.9336 12.0038 18.938 10.7759 18.938C10.031 18.938 9.37226 19.3046 8.96875 19.8668C8.96926 19.8669 8.96997 19.8668 8.97058 19.8668Z" fill="#EDBCA4"/>
<path d="M10.6928 31.8064L10.6935 31.8073C10.5105 30.9709 10.7813 30.0639 11.477 29.4689C11.9191 29.0908 12.4594 28.902 12.9993 28.8939V21.1617C12.9993 19.9336 12.0037 18.9382 10.7758 18.9382C9.54776 18.9382 8.55225 19.9337 8.55225 21.1617V24.1903L10.6928 31.8064Z" fill="#EDBCA4"/>
<path d="M12.9992 27.3213C12.5577 27.3254 12.1229 27.4028 11.7121 27.5479C11.4254 27.6492 11.1129 27.4897 11.0306 27.197L8.97034 19.8668C8.7081 20.2317 8.552 20.6779 8.552 21.1616V26.0265L10.5717 33.5676L12.9991 28.8937L12.9992 27.3213Z" fill="#EAAB92"/>
<path d="M25.2484 42.3557C24.8193 37.4112 19.358 34.9049 19.358 34.9049L14.8475 29.718C13.983 28.7238 12.4784 28.6127 11.4772 29.4689C10.7815 30.064 10.5106 30.9711 10.6937 31.8074L10.6929 31.8064L7.35012 19.9135C6.99617 18.6544 5.81003 17.8467 4.54588 17.9319C3.29118 18.3339 2.84268 19.4368 3.04123 20.311L5.65027 31.8024C6.06556 33.6315 6.78838 35.3767 7.78785 36.9637L12.6877 44.7437C13.5079 46.046 13.943 47.5535 13.943 49.0924V53.1225L14.8571 54H22.8907C23.1802 54 23.4149 53.7653 23.4149 53.4759V50.4246C23.4149 49.2423 23.6996 48.0775 24.2504 47.0313C24.811 45.9663 25.4184 44.3159 25.2484 42.3557Z" fill="#FFD6BD"/>
<path d="M12.364 31.0938C11.9083 30.5557 11.7331 29.8754 11.8192 29.227C11.7004 29.2972 11.5853 29.3763 11.4769 29.4689C10.4733 30.3273 10.3519 31.8355 11.2055 32.8433L15.4957 37.9086C16.3663 37.2314 16.4973 35.9653 15.7838 35.1243L12.364 31.0938Z" fill="#F9C6AA"/>
<path d="M12.97 53.4758V50.0359C12.97 48.497 12.5348 46.9894 11.7147 45.6872L6.81484 37.9072C5.81527 36.3202 5.09255 34.5749 4.67726 32.7459L2.06822 21.2544C1.73774 19.7988 2.63951 18.3482 4.09104 18.0004C4.24298 17.964 4.39491 17.9419 4.54594 17.9317C4.00329 18.5644 3.7568 19.4367 3.95535 20.3108L6.56439 31.8023C6.97968 33.6313 7.7025 35.3766 8.70198 36.9636L13.6019 44.7436C14.422 46.0458 14.8572 47.5533 14.8572 49.0923V54H13.4943C13.2046 54 12.97 53.7653 12.97 53.4758Z" fill="#F9C6AA"/>
<path d="M47.0294 19.8668L45.9056 28.0001C45.8234 28.2928 45.5108 28.4522 45.2242 28.351C44.8134 28.2059 43.0007 27.3214 43.0007 27.3214V21.1617C43.0007 19.9336 43.9962 18.938 45.2242 18.938C45.969 18.938 46.6278 19.3046 47.0313 19.8668C47.0307 19.8669 47.03 19.8668 47.0294 19.8668Z" fill="#EDBCA4"/>
<path d="M45.3073 31.8064L45.3065 31.8073C45.4895 30.9709 45.2187 30.0639 44.523 29.4689C44.0808 29.0908 43.5406 28.902 43.0007 28.8939V21.1617C43.0007 19.9336 43.9962 18.9382 45.2242 18.9382C46.4522 18.9382 47.4477 19.9337 47.4477 21.1617V24.1903L45.3073 31.8064Z" fill="#EDBCA4"/>
<path d="M43.0007 27.3213C43.4422 27.3254 43.877 27.4028 44.2878 27.5479C44.5745 27.6492 44.8871 27.4897 44.9693 27.197L47.0296 19.8668C47.2918 20.2317 47.4479 20.6779 47.4479 21.1616V26.0265L45.4283 33.5676L43.0008 28.8937V27.3213H43.0007Z" fill="#EAAB92"/>
<path d="M30.7515 42.3557C31.1806 37.4112 36.6419 34.9049 36.6419 34.9049L41.1524 29.718C42.017 28.7238 43.5215 28.6127 44.5227 29.4689C45.2184 30.064 45.4892 30.9711 45.3062 31.8074L45.307 31.8064L48.6497 19.9135C49.0036 18.6544 50.1898 17.8467 51.4539 17.9319C52.7086 18.3339 53.1571 19.4368 52.9586 20.311L50.3495 31.8024C49.9342 33.6315 49.2114 35.3767 48.2119 36.9637L43.312 44.7437C42.4919 46.046 42.0567 47.5535 42.0567 49.0924V53.1225L41.1427 54H33.1091C32.8196 54 32.5849 53.7653 32.5849 53.4759V50.4246C32.5849 49.2423 32.3001 48.0775 31.7494 47.0313C31.1888 45.9663 30.5814 44.3159 30.7515 42.3557Z" fill="#FFD6BD"/>
<path d="M43.6357 31.0938C44.0914 30.5557 44.2666 29.8754 44.1806 29.227C44.2993 29.2972 44.4145 29.3763 44.5229 29.4689C45.5265 30.3273 45.6479 31.8355 44.7943 32.8433L40.5041 37.9086C39.6335 37.2314 39.5024 35.9653 40.216 35.1243L43.6357 31.0938Z" fill="#F9C6AA"/>
<path d="M43.03 53.4758V50.0359C43.03 48.497 43.4651 46.9894 44.2853 45.6872L49.1851 37.9072C50.1847 36.3202 50.9074 34.5749 51.3227 32.7459L53.9318 21.2544C54.2623 19.7988 53.3605 18.3482 51.9089 18.0004C51.757 17.964 51.6051 17.9419 51.4541 17.9317C51.9967 18.5644 52.2432 19.4367 52.0446 20.3108L49.4356 31.8023C49.0203 33.6313 48.2976 35.3766 47.298 36.9636L42.3981 44.7436C41.578 46.0458 41.1428 47.5533 41.1428 49.0923V54H42.5057C42.7952 54 43.03 53.7653 43.03 53.4758Z" fill="#F9C6AA"/>
</svg>
