<svg width="56" height="56" viewBox="0 0 56 56" fill="none" xmlns="http://www.w3.org/2000/svg">
<g clip-path="url(#clip0_194_1770)">
<path d="M56 23.2727C56 24.0076 55.7197 24.7425 55.1589 25.3033C54.0375 26.4247 52.2194 26.4247 51.0979 25.3033C38.3617 12.5671 17.6384 12.5671 4.90209 25.3033C3.78067 26.4247 1.96253 26.4247 0.841107 25.3033C-0.280424 24.1819 -0.280314 22.3637 0.841107 21.2423C15.8165 6.26689 40.1835 6.26689 55.1589 21.2423C55.7197 21.803 56 22.5378 56 23.2727Z" fill="#63DCFE"/>
<path d="M48.8886 30.3842C48.8886 31.1192 48.6083 31.8539 48.0475 32.4148C46.9261 33.5362 45.108 33.5362 43.9865 32.4148C39.7241 28.1523 34.0465 25.8048 28 25.8048C21.9534 25.8048 16.2759 28.1522 12.0134 32.4148C10.892 33.5362 9.07382 33.5362 7.95239 32.4148C6.83097 31.2934 6.83097 29.4752 7.95239 28.3538C13.2996 23.0064 20.4193 20.0615 28 20.0615C35.5806 20.0615 42.7003 23.0063 48.0475 28.3537C48.6082 28.9143 48.8886 29.6493 48.8886 30.3842Z" fill="#63DCFE"/>
<path d="M41.7773 37.4954C41.7773 38.2303 41.4969 38.9652 40.9362 39.5259C39.8147 40.6474 37.9966 40.6474 36.8752 39.5259C34.5045 37.1552 31.3526 35.8496 27.9999 35.8496C24.6474 35.8496 21.4954 37.1552 19.1247 39.5259C18.0034 40.6474 16.1851 40.6474 15.0637 39.5259C13.9423 38.4045 13.9423 36.5864 15.0637 35.4649C18.5191 32.0095 23.1133 30.1064 27.9999 30.1064C32.8866 30.1064 37.4808 32.0095 40.9362 35.4648C41.4969 36.0256 41.7773 36.7605 41.7773 37.4954Z" fill="#63DCFE"/>
<path d="M27.9999 36.9253C25.1778 36.9253 22.8901 34.6376 22.8901 31.8156V10.0107C22.8901 7.18857 25.1778 4.90088 27.9999 4.90088C30.822 4.90088 33.1097 7.18857 33.1097 10.0107V31.8154C33.1097 34.6375 30.822 36.9253 27.9999 36.9253Z" fill="#FFE177"/>
<path d="M27.9999 51.098C30.822 51.098 33.1097 48.8103 33.1097 45.9882C33.1097 43.1661 30.822 40.8784 27.9999 40.8784C25.1779 40.8784 22.8901 43.1661 22.8901 45.9882C22.8901 48.8103 25.1779 51.098 27.9999 51.098Z" fill="#FFE177"/>
<path d="M29.3521 36.744C28.9217 36.8622 28.4676 36.9253 28 36.9253C25.1775 36.9253 22.8901 34.6379 22.8901 31.8155V10.0115C22.8901 7.18897 25.1775 4.90161 28 4.90161C28.4676 4.90161 28.9217 4.96472 29.3521 5.08306C27.1865 5.67456 25.5943 7.65655 25.5943 10.0115V31.8155C25.5944 34.1704 27.1865 36.1523 29.3521 36.744Z" fill="#FFD15B"/>
<path d="M29.3521 50.9175C28.9217 51.0357 28.4676 51.0988 28 51.0988C25.1775 51.0988 22.8901 48.8104 22.8901 45.9889C22.8901 43.1664 25.1775 40.8792 28 40.8792C28.4676 40.8792 28.9217 40.9423 29.3521 41.0605C27.1865 41.652 25.5943 43.634 25.5943 45.9889C25.5944 48.3428 27.1865 50.326 29.3521 50.9175Z" fill="#FFD15B"/>
</g>
<defs>
<clipPath id="clip0_194_1770">
<rect width="56" height="56" fill="white"/>
</clipPath>
</defs>
</svg>
